<svg width="61" height="61" viewBox="0 0 61 61" fill="none" xmlns="http://www.w3.org/2000/svg">
<circle r="2.09076" transform="matrix(0.707107 0.707107 0.707107 -0.707107 52.1062 50.3744)" fill="#FF6B6B"/>
<circle r="2.09076" transform="matrix(0.707107 0.707107 0.707107 -0.707107 47.9101 46.1784)" fill="#1A535C"/>
<circle r="2.09076" transform="matrix(0.707107 0.707107 0.707107 -0.707107 39.5183 37.7866)" fill="#4ECDC4"/>
<circle r="2.09076" transform="matrix(0.707107 0.707107 0.707107 -0.707107 43.7146 41.9825)" fill="#FFD100"/>
<path d="M41.3244 11.7513C45.7318 14.2959 49.1018 18.3119 50.8428 23.0941C52.5838 27.8763 52.5843 33.119 50.8443 37.9016L46.7754 36.4213C48.1674 32.5952 48.167 28.4011 46.7742 24.5753C45.3814 20.7495 42.6854 17.5367 39.1594 15.501L41.3244 11.7513Z" fill="#FF6B6B"/>
<path d="M13.9156 16.5842C17.1869 12.6856 21.7271 10.0641 26.739 9.18003C31.7509 8.29594 36.914 9.20578 41.3218 11.7498L39.1574 15.4998C35.6312 13.4646 31.5006 12.7368 27.4912 13.444C23.4817 14.1513 19.8495 16.2485 17.2324 19.3674L13.9156 16.5842Z" fill="#1A535C"/>
<path d="M13.9158 44.4158C10.6445 40.5172 8.85122 35.5908 8.85087 30.5015C8.85051 25.4123 10.6431 20.4856 13.9139 16.5865L17.2311 19.3692C14.6145 22.4884 13.1804 26.4298 13.1807 30.5012C13.181 34.5726 14.6156 38.5138 17.2326 41.6326L13.9158 44.4158Z" fill="#FFD100"/>
<path d="M41.3245 49.2487C36.9171 51.7933 31.7541 52.7039 26.7421 51.8205C21.7301 50.9371 17.1895 48.3162 13.9177 44.4181L17.2341 41.6345C19.8516 44.753 23.4841 46.8497 27.4937 47.5564C31.5033 48.2631 35.6337 47.5346 39.1596 45.4989L41.3245 49.2487Z" fill="#4ECDC4"/>
</svg>
