<svg width="347" height="84" viewBox="0 0 347 84" fill="none" xmlns="http://www.w3.org/2000/svg">
<circle r="2.09076" transform="matrix(0.707107 0.707107 0.707107 -0.707107 269.106 50.3744)" fill="#FF6B6B"/>
<circle r="2.09076" transform="matrix(0.707107 0.707107 0.707107 -0.707107 264.91 46.1784)" fill="#1A535C"/>
<circle r="2.09076" transform="matrix(0.707107 0.707107 0.707107 -0.707107 256.518 37.7866)" fill="#4ECDC4"/>
<circle r="2.09076" transform="matrix(0.707107 0.707107 0.707107 -0.707107 260.715 41.9825)" fill="#FFD100"/>
<path d="M258.324 11.7513C262.732 14.2959 266.102 18.3119 267.843 23.0941C269.584 27.8763 269.584 33.119 267.844 37.9016L263.775 36.4213C265.167 32.5952 265.167 28.4011 263.774 24.5753C262.381 20.7495 259.685 17.5367 256.159 15.501L258.324 11.7513Z" fill="#FF6B6B"/>
<path d="M230.916 16.5842C234.187 12.6856 238.727 10.0641 243.739 9.18003C248.751 8.29594 253.914 9.20578 258.322 11.7498L256.158 15.4998C252.631 13.4646 248.501 12.7368 244.491 13.444C240.482 14.1513 236.85 16.2485 234.233 19.3674L230.916 16.5842Z" fill="#1A535C"/>
<path d="M230.916 44.4158C227.644 40.5172 225.851 35.5908 225.851 30.5015C225.851 25.4123 227.643 20.4856 230.914 16.5865L234.231 19.3692C231.614 22.4884 230.18 26.4298 230.181 30.5012C230.181 34.5726 231.616 38.5138 234.233 41.6326L230.916 44.4158Z" fill="#FFD100"/>
<path d="M258.325 49.2487C253.917 51.7933 248.754 52.7039 243.742 51.8205C238.73 50.9371 234.19 48.3162 230.918 44.4181L234.234 41.6345C236.852 44.753 240.484 46.8497 244.494 47.5564C248.504 48.2631 252.634 47.5346 256.16 45.4989L258.325 49.2487Z" fill="#4ECDC4"/>
<path d="M81.448 42.144C79.648 42.144 78.052 41.724 76.66 40.884C75.292 40.02 74.212 38.844 73.42 37.356C72.628 35.844 72.232 34.116 72.232 32.172C72.232 30.204 72.652 28.476 73.492 26.988C74.356 25.476 75.532 24.3 77.02 23.46C78.508 22.596 80.224 22.164 82.168 22.164C84.088 22.164 85.792 22.596 87.28 23.46C88.768 24.3 89.932 25.476 90.772 26.988C91.636 28.476 92.068 30.204 92.068 32.172H89.944C89.944 34.116 89.572 35.844 88.828 37.356C88.108 38.844 87.112 40.02 85.84 40.884C84.568 41.724 83.104 42.144 81.448 42.144ZM82.096 50.172C80.392 50.172 78.796 49.836 77.308 49.164C75.82 48.492 74.56 47.508 73.528 46.212C73.216 45.804 73.096 45.384 73.168 44.952C73.264 44.52 73.504 44.172 73.888 43.908C74.32 43.62 74.764 43.524 75.22 43.62C75.7 43.716 76.084 43.956 76.372 44.34C77.02 45.156 77.836 45.792 78.82 46.248C79.804 46.704 80.92 46.932 82.168 46.932C83.32 46.932 84.376 46.656 85.336 46.104C86.32 45.552 87.1 44.736 87.676 43.656C88.252 42.576 88.54 41.256 88.54 39.696V34.584L89.728 31.416L92.068 32.172V39.948C92.068 41.844 91.648 43.56 90.808 45.096C89.968 46.656 88.792 47.892 87.28 48.804C85.792 49.716 84.064 50.172 82.096 50.172ZM82.168 38.904C83.416 38.904 84.52 38.616 85.48 38.04C86.44 37.464 87.184 36.672 87.712 35.664C88.264 34.656 88.54 33.492 88.54 32.172C88.54 30.852 88.264 29.688 87.712 28.68C87.184 27.648 86.44 26.844 85.48 26.268C84.52 25.692 83.416 25.404 82.168 25.404C80.92 25.404 79.816 25.692 78.856 26.268C77.896 26.844 77.14 27.648 76.588 28.68C76.036 29.688 75.76 30.852 75.76 32.172C75.76 33.492 76.036 34.656 76.588 35.664C77.14 36.672 77.896 37.464 78.856 38.04C79.816 38.616 80.92 38.904 82.168 38.904ZM99.729 42C99.201 42 98.757 41.832 98.397 41.496C98.061 41.136 97.893 40.692 97.893 40.164V24.144C97.893 23.592 98.061 23.148 98.397 22.812C98.757 22.476 99.201 22.308 99.729 22.308C100.281 22.308 100.725 22.476 101.061 22.812C101.397 23.148 101.565 23.592 101.565 24.144V40.164C101.565 40.692 101.397 41.136 101.061 41.496C100.725 41.832 100.281 42 99.729 42ZM99.729 19.104C99.081 19.104 98.517 18.876 98.037 18.42C97.581 17.94 97.353 17.376 97.353 16.728C97.353 16.08 97.581 15.528 98.037 15.072C98.517 14.592 99.081 14.352 99.729 14.352C100.377 14.352 100.929 14.592 101.385 15.072C101.865 15.528 102.105 16.08 102.105 16.728C102.105 17.376 101.865 17.94 101.385 18.42C100.929 18.876 100.377 19.104 99.729 19.104ZM110.16 29.688C110.16 28.248 110.508 26.964 111.204 25.836C111.924 24.684 112.884 23.772 114.084 23.1C115.284 22.428 116.604 22.092 118.044 22.092C119.484 22.092 120.552 22.332 121.248 22.812C121.968 23.268 122.244 23.82 122.076 24.468C122.004 24.804 121.86 25.068 121.644 25.26C121.452 25.428 121.224 25.536 120.96 25.584C120.696 25.632 120.408 25.62 120.096 25.548C118.56 25.236 117.18 25.212 115.956 25.476C114.732 25.74 113.76 26.232 113.04 26.952C112.344 27.672 111.996 28.584 111.996 29.688H110.16ZM110.196 42C109.62 42 109.176 41.856 108.864 41.568C108.552 41.256 108.396 40.8 108.396 40.2V24.108C108.396 23.532 108.552 23.088 108.864 22.776C109.176 22.464 109.62 22.308 110.196 22.308C110.796 22.308 111.24 22.464 111.528 22.776C111.84 23.064 111.996 23.508 111.996 24.108V40.2C111.996 40.776 111.84 41.22 111.528 41.532C111.24 41.844 110.796 42 110.196 42ZM133.391 42.144C131.447 42.144 129.731 41.724 128.243 40.884C126.755 40.02 125.579 38.844 124.715 37.356C123.875 35.844 123.455 34.116 123.455 32.172C123.455 30.204 123.875 28.476 124.715 26.988C125.579 25.476 126.755 24.3 128.243 23.46C129.731 22.596 131.447 22.164 133.391 22.164C135.311 22.164 137.015 22.596 138.503 23.46C139.991 24.3 141.155 25.476 141.995 26.988C142.859 28.476 143.291 30.204 143.291 32.172C143.291 34.116 142.871 35.844 142.031 37.356C141.191 38.844 140.027 40.02 138.539 40.884C137.051 41.724 135.335 42.144 133.391 42.144ZM133.391 38.904C134.639 38.904 135.743 38.616 136.703 38.04C137.663 37.464 138.407 36.672 138.935 35.664C139.487 34.656 139.763 33.492 139.763 32.172C139.763 30.852 139.487 29.688 138.935 28.68C138.407 27.648 137.663 26.844 136.703 26.268C135.743 25.692 134.639 25.404 133.391 25.404C132.143 25.404 131.039 25.692 130.079 26.268C129.119 26.844 128.363 27.648 127.811 28.68C127.259 29.688 126.983 30.852 126.983 32.172C126.983 33.492 127.259 34.656 127.811 35.664C128.363 36.672 129.119 37.464 130.079 38.04C131.039 38.616 132.143 38.904 133.391 38.904ZM165.784 50.424C165.232 50.424 164.776 50.244 164.416 49.884C164.08 49.548 163.912 49.116 163.912 48.588V38.868C163.096 39.876 162.088 40.68 160.888 41.28C159.688 41.856 158.38 42.144 156.964 42.144C155.212 42.144 153.64 41.712 152.248 40.848C150.856 39.96 149.752 38.772 148.936 37.284C148.144 35.772 147.748 34.068 147.748 32.172C147.748 30.276 148.18 28.572 149.044 27.06C149.932 25.548 151.12 24.36 152.608 23.496C154.12 22.608 155.812 22.164 157.684 22.164C159.556 22.164 161.236 22.608 162.724 23.496C164.212 24.36 165.388 25.548 166.252 27.06C167.14 28.572 167.584 30.276 167.584 32.172V48.588C167.584 49.116 167.416 49.548 167.08 49.884C166.744 50.244 166.312 50.424 165.784 50.424ZM157.684 38.904C158.908 38.904 160 38.616 160.96 38.04C161.92 37.44 162.676 36.636 163.228 35.628C163.78 34.596 164.056 33.444 164.056 32.172C164.056 30.876 163.78 29.724 163.228 28.716C162.676 27.684 161.92 26.88 160.96 26.304C160 25.704 158.908 25.404 157.684 25.404C156.484 25.404 155.392 25.704 154.408 26.304C153.448 26.88 152.68 27.684 152.104 28.716C151.552 29.724 151.276 30.876 151.276 32.172C151.276 33.444 151.552 34.596 152.104 35.628C152.68 36.636 153.448 37.44 154.408 38.04C155.392 38.616 156.484 38.904 157.684 38.904Z" fill="#717171"/>
<path d="M76.5026 80C76.3533 80 76.2226 79.9487 76.1106 79.846C76.008 79.7433 75.9566 79.6127 75.9566 79.454V69.612C75.9566 69.4627 76.008 69.3367 76.1106 69.234C76.2226 69.122 76.3533 69.066 76.5026 69.066C76.652 69.066 76.778 69.122 76.8806 69.234C76.9926 69.3367 77.0486 69.4627 77.0486 69.612V78.964H82.5226C82.672 78.964 82.798 79.0153 82.9006 79.118C83.0126 79.2113 83.0686 79.3327 83.0686 79.482C83.0686 79.6313 83.0126 79.7573 82.9006 79.86C82.798 79.9533 82.672 80 82.5226 80H76.5026ZM88.05 80.07C87.3313 80.07 86.6873 79.902 86.118 79.566C85.5487 79.2207 85.096 78.754 84.76 78.166C84.4333 77.578 84.27 76.9153 84.27 76.178C84.27 75.4313 84.438 74.764 84.774 74.176C85.1193 73.588 85.586 73.126 86.174 72.79C86.762 72.4447 87.4247 72.272 88.162 72.272C88.8993 72.272 89.5573 72.4447 90.136 72.79C90.724 73.126 91.186 73.588 91.522 74.176C91.8673 74.764 92.0447 75.4313 92.054 76.178L91.62 76.514C91.62 77.186 91.4613 77.7927 91.144 78.334C90.836 78.866 90.4113 79.2907 89.87 79.608C89.338 79.916 88.7313 80.07 88.05 80.07ZM88.162 79.09C88.7033 79.09 89.184 78.964 89.604 78.712C90.0333 78.46 90.3693 78.1147 90.612 77.676C90.864 77.228 90.99 76.7287 90.99 76.178C90.99 75.618 90.864 75.1187 90.612 74.68C90.3693 74.2413 90.0333 73.896 89.604 73.644C89.184 73.3827 88.7033 73.252 88.162 73.252C87.63 73.252 87.1493 73.3827 86.72 73.644C86.2907 73.896 85.95 74.2413 85.698 74.68C85.446 75.1187 85.32 75.618 85.32 76.178C85.32 76.7287 85.446 77.228 85.698 77.676C85.95 78.1147 86.2907 78.46 86.72 78.712C87.1493 78.964 87.63 79.09 88.162 79.09ZM91.508 80C91.3493 80 91.2187 79.9533 91.116 79.86C91.0133 79.7573 90.962 79.6267 90.962 79.468V77.074L91.228 75.968L92.054 76.178V79.468C92.054 79.6267 92.0027 79.7573 91.9 79.86C91.7973 79.9533 91.6667 80 91.508 80ZM108.598 80C108.44 80 108.309 79.9533 108.206 79.86C108.104 79.7573 108.052 79.6267 108.052 79.468V75.436C108.052 74.7733 107.88 74.2507 107.534 73.868C107.189 73.476 106.746 73.28 106.204 73.28C105.626 73.28 105.15 73.476 104.776 73.868C104.412 74.2507 104.235 74.764 104.244 75.408H103.278C103.288 74.7827 103.423 74.232 103.684 73.756C103.946 73.28 104.305 72.9113 104.762 72.65C105.22 72.3887 105.738 72.258 106.316 72.258C106.867 72.258 107.352 72.3887 107.772 72.65C108.202 72.9113 108.533 73.28 108.766 73.756C109.009 74.232 109.13 74.792 109.13 75.436V79.468C109.13 79.6267 109.079 79.7573 108.976 79.86C108.883 79.9533 108.757 80 108.598 80ZM98.7982 80C98.6302 80 98.4949 79.9533 98.3922 79.86C98.2989 79.7573 98.2522 79.6267 98.2522 79.468V72.888C98.2522 72.7293 98.2989 72.5987 98.3922 72.496C98.4949 72.3933 98.6302 72.342 98.7982 72.342C98.9569 72.342 99.0829 72.3933 99.1762 72.496C99.2789 72.5987 99.3302 72.7293 99.3302 72.888V79.468C99.3302 79.6267 99.2789 79.7573 99.1762 79.86C99.0829 79.9533 98.9569 80 98.7982 80ZM103.712 80C103.554 80 103.423 79.9533 103.32 79.86C103.218 79.7573 103.166 79.6267 103.166 79.468V75.436C103.166 74.7733 102.994 74.2507 102.648 73.868C102.303 73.476 101.86 73.28 101.318 73.28C100.74 73.28 100.264 73.4713 99.8902 73.854C99.5169 74.2273 99.3302 74.7173 99.3302 75.324H98.5602C98.5789 74.7267 98.7095 74.1993 98.9522 73.742C99.2042 73.2753 99.5449 72.9113 99.9742 72.65C100.404 72.3887 100.889 72.258 101.43 72.258C101.981 72.258 102.466 72.3887 102.886 72.65C103.316 72.9113 103.647 73.28 103.88 73.756C104.123 74.232 104.244 74.792 104.244 75.436V79.468C104.244 79.6267 104.193 79.7573 104.09 79.86C103.997 79.9533 103.871 80 103.712 80ZM114.888 80.07C114.169 80.07 113.525 79.902 112.956 79.566C112.387 79.2207 111.934 78.754 111.598 78.166C111.271 77.578 111.108 76.9153 111.108 76.178C111.108 75.4313 111.276 74.764 111.612 74.176C111.957 73.588 112.424 73.126 113.012 72.79C113.6 72.4447 114.263 72.272 115 72.272C115.737 72.272 116.395 72.4447 116.974 72.79C117.562 73.126 118.024 73.588 118.36 74.176C118.705 74.764 118.883 75.4313 118.892 76.178L118.458 76.514C118.458 77.186 118.299 77.7927 117.982 78.334C117.674 78.866 117.249 79.2907 116.708 79.608C116.176 79.916 115.569 80.07 114.888 80.07ZM115 79.09C115.541 79.09 116.022 78.964 116.442 78.712C116.871 78.46 117.207 78.1147 117.45 77.676C117.702 77.228 117.828 76.7287 117.828 76.178C117.828 75.618 117.702 75.1187 117.45 74.68C117.207 74.2413 116.871 73.896 116.442 73.644C116.022 73.3827 115.541 73.252 115 73.252C114.468 73.252 113.987 73.3827 113.558 73.644C113.129 73.896 112.788 74.2413 112.536 74.68C112.284 75.1187 112.158 75.618 112.158 76.178C112.158 76.7287 112.284 77.228 112.536 77.676C112.788 78.1147 113.129 78.46 113.558 78.712C113.987 78.964 114.468 79.09 115 79.09ZM118.346 80C118.187 80 118.057 79.9533 117.954 79.86C117.851 79.7573 117.8 79.6267 117.8 79.468V77.074L118.066 75.968L118.892 76.178V79.468C118.892 79.6267 118.841 79.7573 118.738 79.86C118.635 79.9533 118.505 80 118.346 80ZM121.535 83.276C121.367 83.276 121.231 83.2247 121.129 83.122C121.035 83.0287 120.989 82.898 120.989 82.73V76.122C120.998 75.394 121.171 74.7407 121.507 74.162C121.852 73.574 122.314 73.112 122.893 72.776C123.481 72.44 124.139 72.272 124.867 72.272C125.613 72.272 126.281 72.4447 126.869 72.79C127.457 73.126 127.919 73.588 128.255 74.176C128.6 74.764 128.773 75.4313 128.773 76.178C128.773 76.9153 128.605 77.578 128.269 78.166C127.942 78.754 127.494 79.2207 126.925 79.566C126.355 79.902 125.711 80.07 124.993 80.07C124.367 80.07 123.798 79.9393 123.285 79.678C122.781 79.4073 122.375 79.0527 122.067 78.614V82.73C122.067 82.898 122.015 83.0287 121.913 83.122C121.819 83.2247 121.693 83.276 121.535 83.276ZM124.867 79.09C125.408 79.09 125.893 78.964 126.323 78.712C126.752 78.46 127.088 78.1147 127.331 77.676C127.583 77.228 127.709 76.7287 127.709 76.178C127.709 75.618 127.583 75.1187 127.331 74.68C127.088 74.2413 126.752 73.896 126.323 73.644C125.893 73.3827 125.408 73.252 124.867 73.252C124.335 73.252 123.854 73.3827 123.425 73.644C122.995 73.896 122.659 74.2413 122.417 74.68C122.174 75.1187 122.053 75.618 122.053 76.178C122.053 76.7287 122.174 77.228 122.417 77.676C122.659 78.1147 122.995 78.46 123.425 78.712C123.854 78.964 124.335 79.09 124.867 79.09ZM131.433 83.276C131.265 83.276 131.13 83.2247 131.027 83.122C130.934 83.0287 130.887 82.898 130.887 82.73V76.122C130.896 75.394 131.069 74.7407 131.405 74.162C131.75 73.574 132.212 73.112 132.791 72.776C133.379 72.44 134.037 72.272 134.765 72.272C135.512 72.272 136.179 72.4447 136.767 72.79C137.355 73.126 137.817 73.588 138.153 74.176C138.498 74.764 138.671 75.4313 138.671 76.178C138.671 76.9153 138.503 77.578 138.167 78.166C137.84 78.754 137.392 79.2207 136.823 79.566C136.254 79.902 135.61 80.07 134.891 80.07C134.266 80.07 133.696 79.9393 133.183 79.678C132.679 79.4073 132.273 79.0527 131.965 78.614V82.73C131.965 82.898 131.914 83.0287 131.811 83.122C131.718 83.2247 131.592 83.276 131.433 83.276ZM134.765 79.09C135.306 79.09 135.792 78.964 136.221 78.712C136.65 78.46 136.986 78.1147 137.229 77.676C137.481 77.228 137.607 76.7287 137.607 76.178C137.607 75.618 137.481 75.1187 137.229 74.68C136.986 74.2413 136.65 73.896 136.221 73.644C135.792 73.3827 135.306 73.252 134.765 73.252C134.233 73.252 133.752 73.3827 133.323 73.644C132.894 73.896 132.558 74.2413 132.315 74.68C132.072 75.1187 131.951 75.618 131.951 76.178C131.951 76.7287 132.072 77.228 132.315 77.676C132.558 78.1147 132.894 78.46 133.323 78.712C133.752 78.964 134.233 79.09 134.765 79.09ZM144.159 80.07C143.441 80.07 142.797 79.902 142.227 79.566C141.658 79.2207 141.205 78.754 140.869 78.166C140.543 77.578 140.379 76.9153 140.379 76.178C140.379 75.4313 140.547 74.764 140.883 74.176C141.229 73.588 141.695 73.126 142.283 72.79C142.871 72.4447 143.534 72.272 144.271 72.272C145.009 72.272 145.667 72.4447 146.245 72.79C146.833 73.126 147.295 73.588 147.631 74.176C147.977 74.764 148.154 75.4313 148.163 76.178L147.729 76.514C147.729 77.186 147.571 77.7927 147.253 78.334C146.945 78.866 146.521 79.2907 145.979 79.608C145.447 79.916 144.841 80.07 144.159 80.07ZM144.271 79.09C144.813 79.09 145.293 78.964 145.713 78.712C146.143 78.46 146.479 78.1147 146.721 77.676C146.973 77.228 147.099 76.7287 147.099 76.178C147.099 75.618 146.973 75.1187 146.721 74.68C146.479 74.2413 146.143 73.896 145.713 73.644C145.293 73.3827 144.813 73.252 144.271 73.252C143.739 73.252 143.259 73.3827 142.829 73.644C142.4 73.896 142.059 74.2413 141.807 74.68C141.555 75.1187 141.429 75.618 141.429 76.178C141.429 76.7287 141.555 77.228 141.807 77.676C142.059 78.1147 142.4 78.46 142.829 78.712C143.259 78.964 143.739 79.09 144.271 79.09ZM147.617 80C147.459 80 147.328 79.9533 147.225 79.86C147.123 79.7573 147.071 79.6267 147.071 79.468V77.074L147.337 75.968L148.163 76.178V79.468C148.163 79.6267 148.112 79.7573 148.009 79.86C147.907 79.9533 147.776 80 147.617 80ZM157.848 80.07C157.11 80.07 156.448 79.902 155.86 79.566C155.272 79.2207 154.805 78.754 154.46 78.166C154.124 77.578 153.956 76.9107 153.956 76.164C153.956 75.4267 154.119 74.764 154.446 74.176C154.782 73.588 155.234 73.126 155.804 72.79C156.373 72.4447 157.017 72.272 157.736 72.272C158.361 72.272 158.926 72.4073 159.43 72.678C159.934 72.9393 160.34 73.2893 160.648 73.728V69.612C160.648 69.444 160.699 69.3133 160.802 69.22C160.904 69.1173 161.035 69.066 161.194 69.066C161.352 69.066 161.483 69.1173 161.586 69.22C161.688 69.3133 161.74 69.444 161.74 69.612V76.22C161.721 76.948 161.539 77.606 161.194 78.194C160.858 78.7727 160.396 79.23 159.808 79.566C159.229 79.902 158.576 80.07 157.848 80.07ZM157.848 79.09C158.389 79.09 158.87 78.964 159.29 78.712C159.719 78.4507 160.055 78.1007 160.298 77.662C160.55 77.2233 160.676 76.724 160.676 76.164C160.676 75.6133 160.55 75.1187 160.298 74.68C160.055 74.232 159.719 73.882 159.29 73.63C158.87 73.378 158.389 73.252 157.848 73.252C157.316 73.252 156.835 73.378 156.406 73.63C155.976 73.882 155.636 74.232 155.384 74.68C155.132 75.1187 155.006 75.6133 155.006 76.164C155.006 76.724 155.132 77.2233 155.384 77.662C155.636 78.1007 155.976 78.4507 156.406 78.712C156.835 78.964 157.316 79.09 157.848 79.09ZM167.732 80.07C166.976 80.07 166.304 79.9067 165.716 79.58C165.137 79.244 164.68 78.782 164.344 78.194C164.017 77.606 163.854 76.934 163.854 76.178C163.854 75.4127 164.008 74.7407 164.316 74.162C164.633 73.574 165.067 73.112 165.618 72.776C166.169 72.44 166.803 72.272 167.522 72.272C168.231 72.272 168.847 72.4353 169.37 72.762C169.902 73.0793 170.313 73.5227 170.602 74.092C170.891 74.6613 171.036 75.31 171.036 76.038C171.036 76.1873 170.989 76.3087 170.896 76.402C170.803 76.486 170.681 76.528 170.532 76.528H164.582V75.632H170.644L170.042 76.066C170.051 75.5247 169.953 75.0393 169.748 74.61C169.543 74.1807 169.249 73.8447 168.866 73.602C168.493 73.3593 168.045 73.238 167.522 73.238C166.99 73.238 166.523 73.364 166.122 73.616C165.721 73.868 165.408 74.218 165.184 74.666C164.969 75.1047 164.862 75.6087 164.862 76.178C164.862 76.7473 164.983 77.2513 165.226 77.69C165.478 78.1287 165.819 78.474 166.248 78.726C166.677 78.978 167.172 79.104 167.732 79.104C168.068 79.104 168.404 79.048 168.74 78.936C169.085 78.8147 169.361 78.6653 169.566 78.488C169.669 78.404 169.785 78.362 169.916 78.362C170.047 78.3527 170.159 78.3853 170.252 78.46C170.373 78.572 170.434 78.6933 170.434 78.824C170.443 78.9547 170.392 79.0667 170.28 79.16C169.972 79.4213 169.58 79.6407 169.104 79.818C168.628 79.986 168.171 80.07 167.732 80.07ZM174.512 80C174.138 80 173.802 79.8973 173.504 79.692C173.214 79.4867 172.986 79.202 172.818 78.838C172.659 78.474 172.58 78.054 172.58 77.578V69.598C172.58 69.4393 172.626 69.3133 172.72 69.22C172.822 69.1173 172.953 69.066 173.112 69.066C173.27 69.066 173.396 69.1173 173.49 69.22C173.592 69.3133 173.644 69.4393 173.644 69.598V77.578C173.644 77.9793 173.723 78.306 173.882 78.558C174.05 78.81 174.26 78.936 174.512 78.936H174.862C175.002 78.936 175.114 78.9873 175.198 79.09C175.282 79.1833 175.324 79.3093 175.324 79.468C175.324 79.6267 175.263 79.7573 175.142 79.86C175.03 79.9533 174.88 80 174.694 80H174.512ZM183.908 80C183.414 80 182.97 79.8833 182.578 79.65C182.196 79.4167 181.892 79.0993 181.668 78.698C181.444 78.2873 181.332 77.8207 181.332 77.298V70.452C181.332 70.2933 181.379 70.1627 181.472 70.06C181.575 69.9573 181.706 69.906 181.864 69.906C182.023 69.906 182.154 69.9573 182.256 70.06C182.359 70.1627 182.41 70.2933 182.41 70.452V77.298C182.41 77.774 182.55 78.166 182.83 78.474C183.11 78.7727 183.47 78.922 183.908 78.922H184.286C184.436 78.922 184.557 78.9733 184.65 79.076C184.744 79.1787 184.79 79.3093 184.79 79.468C184.79 79.6267 184.734 79.7573 184.622 79.86C184.51 79.9533 184.37 80 184.202 80H183.908ZM180.422 73.56C180.282 73.56 180.166 73.518 180.072 73.434C179.979 73.3407 179.932 73.2287 179.932 73.098C179.932 72.958 179.979 72.846 180.072 72.762C180.166 72.6687 180.282 72.622 180.422 72.622H183.992C184.132 72.622 184.249 72.6687 184.342 72.762C184.436 72.846 184.482 72.958 184.482 73.098C184.482 73.2287 184.436 73.3407 184.342 73.434C184.249 73.518 184.132 73.56 183.992 73.56H180.422ZM190.017 80.07C189.261 80.07 188.589 79.9067 188.001 79.58C187.422 79.244 186.965 78.782 186.629 78.194C186.302 77.606 186.139 76.934 186.139 76.178C186.139 75.4127 186.293 74.7407 186.601 74.162C186.918 73.574 187.352 73.112 187.903 72.776C188.454 72.44 189.088 72.272 189.807 72.272C190.516 72.272 191.132 72.4353 191.655 72.762C192.187 73.0793 192.598 73.5227 192.887 74.092C193.176 74.6613 193.321 75.31 193.321 76.038C193.321 76.1873 193.274 76.3087 193.181 76.402C193.088 76.486 192.966 76.528 192.817 76.528H186.867V75.632H192.929L192.327 76.066C192.336 75.5247 192.238 75.0393 192.033 74.61C191.828 74.1807 191.534 73.8447 191.151 73.602C190.778 73.3593 190.33 73.238 189.807 73.238C189.275 73.238 188.808 73.364 188.407 73.616C188.006 73.868 187.693 74.218 187.469 74.666C187.254 75.1047 187.147 75.6087 187.147 76.178C187.147 76.7473 187.268 77.2513 187.511 77.69C187.763 78.1287 188.104 78.474 188.533 78.726C188.962 78.978 189.457 79.104 190.017 79.104C190.353 79.104 190.689 79.048 191.025 78.936C191.37 78.8147 191.646 78.6653 191.851 78.488C191.954 78.404 192.07 78.362 192.201 78.362C192.332 78.3527 192.444 78.3853 192.537 78.46C192.658 78.572 192.719 78.6933 192.719 78.824C192.728 78.9547 192.677 79.0667 192.565 79.16C192.257 79.4213 191.865 79.6407 191.389 79.818C190.913 79.986 190.456 80.07 190.017 80.07ZM205.491 80C205.332 80 205.201 79.9533 205.099 79.86C204.996 79.7573 204.945 79.6267 204.945 79.468V75.436C204.945 74.7733 204.772 74.2507 204.427 73.868C204.081 73.476 203.638 73.28 203.097 73.28C202.518 73.28 202.042 73.476 201.669 73.868C201.305 74.2507 201.127 74.764 201.137 75.408H200.171C200.18 74.7827 200.315 74.232 200.577 73.756C200.838 73.28 201.197 72.9113 201.655 72.65C202.112 72.3887 202.63 72.258 203.209 72.258C203.759 72.258 204.245 72.3887 204.665 72.65C205.094 72.9113 205.425 73.28 205.659 73.756C205.901 74.232 206.023 74.792 206.023 75.436V79.468C206.023 79.6267 205.971 79.7573 205.869 79.86C205.775 79.9533 205.649 80 205.491 80ZM195.691 80C195.523 80 195.387 79.9533 195.285 79.86C195.191 79.7573 195.145 79.6267 195.145 79.468V72.888C195.145 72.7293 195.191 72.5987 195.285 72.496C195.387 72.3933 195.523 72.342 195.691 72.342C195.849 72.342 195.975 72.3933 196.069 72.496C196.171 72.5987 196.223 72.7293 196.223 72.888V79.468C196.223 79.6267 196.171 79.7573 196.069 79.86C195.975 79.9533 195.849 80 195.691 80ZM200.605 80C200.446 80 200.315 79.9533 200.213 79.86C200.11 79.7573 200.059 79.6267 200.059 79.468V75.436C200.059 74.7733 199.886 74.2507 199.541 73.868C199.195 73.476 198.752 73.28 198.211 73.28C197.632 73.28 197.156 73.4713 196.783 73.854C196.409 74.2273 196.223 74.7173 196.223 75.324H195.453C195.471 74.7267 195.602 74.1993 195.845 73.742C196.097 73.2753 196.437 72.9113 196.867 72.65C197.296 72.3887 197.781 72.258 198.323 72.258C198.873 72.258 199.359 72.3887 199.779 72.65C200.208 72.9113 200.539 73.28 200.773 73.756C201.015 74.232 201.137 74.792 201.137 75.436V79.468C201.137 79.6267 201.085 79.7573 200.983 79.86C200.889 79.9533 200.763 80 200.605 80ZM208.952 83.276C208.784 83.276 208.649 83.2247 208.546 83.122C208.453 83.0287 208.406 82.898 208.406 82.73V76.122C208.416 75.394 208.588 74.7407 208.924 74.162C209.27 73.574 209.732 73.112 210.31 72.776C210.898 72.44 211.556 72.272 212.284 72.272C213.031 72.272 213.698 72.4447 214.286 72.79C214.874 73.126 215.336 73.588 215.672 74.176C216.018 74.764 216.19 75.4313 216.19 76.178C216.19 76.9153 216.022 77.578 215.686 78.166C215.36 78.754 214.912 79.2207 214.342 79.566C213.773 79.902 213.129 80.07 212.41 80.07C211.785 80.07 211.216 79.9393 210.702 79.678C210.198 79.4073 209.792 79.0527 209.484 78.614V82.73C209.484 82.898 209.433 83.0287 209.33 83.122C209.237 83.2247 209.111 83.276 208.952 83.276ZM212.284 79.09C212.826 79.09 213.311 78.964 213.74 78.712C214.17 78.46 214.506 78.1147 214.748 77.676C215 77.228 215.126 76.7287 215.126 76.178C215.126 75.618 215 75.1187 214.748 74.68C214.506 74.2413 214.17 73.896 213.74 73.644C213.311 73.3827 212.826 73.252 212.284 73.252C211.752 73.252 211.272 73.3827 210.842 73.644C210.413 73.896 210.077 74.2413 209.834 74.68C209.592 75.1187 209.47 75.618 209.47 76.178C209.47 76.7287 209.592 77.228 209.834 77.676C210.077 78.1147 210.413 78.46 210.842 78.712C211.272 78.964 211.752 79.09 212.284 79.09ZM221.791 80.07C221.044 80.07 220.377 79.902 219.789 79.566C219.201 79.23 218.739 78.768 218.403 78.18C218.067 77.592 217.899 76.9247 217.899 76.178C217.899 75.422 218.067 74.75 218.403 74.162C218.739 73.574 219.201 73.112 219.789 72.776C220.377 72.44 221.044 72.272 221.791 72.272C222.538 72.272 223.2 72.44 223.779 72.776C224.367 73.112 224.829 73.574 225.165 74.162C225.501 74.75 225.674 75.422 225.683 76.178C225.683 76.9247 225.51 77.592 225.165 78.18C224.829 78.768 224.367 79.23 223.779 79.566C223.2 79.902 222.538 80.07 221.791 80.07ZM221.791 79.09C222.332 79.09 222.818 78.964 223.247 78.712C223.676 78.46 224.012 78.1147 224.255 77.676C224.498 77.2373 224.619 76.738 224.619 76.178C224.619 75.618 224.498 75.1187 224.255 74.68C224.012 74.232 223.676 73.882 223.247 73.63C222.818 73.378 222.332 73.252 221.791 73.252C221.25 73.252 220.764 73.378 220.335 73.63C219.906 73.882 219.565 74.232 219.313 74.68C219.07 75.1187 218.949 75.618 218.949 76.178C218.949 76.738 219.07 77.2373 219.313 77.676C219.565 78.1147 219.906 78.46 220.335 78.712C220.764 78.964 221.25 79.09 221.791 79.09ZM233.533 80C233.16 80 232.824 79.8973 232.525 79.692C232.236 79.4867 232.007 79.202 231.839 78.838C231.68 78.474 231.601 78.054 231.601 77.578V69.598C231.601 69.4393 231.648 69.3133 231.741 69.22C231.844 69.1173 231.974 69.066 232.133 69.066C232.292 69.066 232.418 69.1173 232.511 69.22C232.614 69.3133 232.665 69.4393 232.665 69.598V77.578C232.665 77.9793 232.744 78.306 232.903 78.558C233.071 78.81 233.281 78.936 233.533 78.936H233.883C234.023 78.936 234.135 78.9873 234.219 79.09C234.303 79.1833 234.345 79.3093 234.345 79.468C234.345 79.6267 234.284 79.7573 234.163 79.86C234.051 79.9533 233.902 80 233.715 80H233.533ZM236.602 80C236.434 80 236.299 79.9533 236.196 79.86C236.103 79.7573 236.056 79.622 236.056 79.454V72.888C236.056 72.72 236.103 72.5893 236.196 72.496C236.299 72.3933 236.434 72.342 236.602 72.342C236.761 72.342 236.887 72.3933 236.98 72.496C237.083 72.5893 237.134 72.72 237.134 72.888V79.454C237.134 79.622 237.083 79.7573 236.98 79.86C236.887 79.9533 236.761 80 236.602 80ZM236.588 70.886C236.383 70.886 236.206 70.8113 236.056 70.662C235.907 70.5127 235.832 70.3307 235.832 70.116C235.832 69.8827 235.907 69.7007 236.056 69.57C236.215 69.43 236.397 69.36 236.602 69.36C236.798 69.36 236.971 69.43 237.12 69.57C237.279 69.7007 237.358 69.8827 237.358 70.116C237.358 70.3307 237.284 70.5127 237.134 70.662C236.985 70.8113 236.803 70.886 236.588 70.886ZM243.757 80.07C243.029 80.07 242.371 79.902 241.783 79.566C241.204 79.23 240.742 78.7727 240.397 78.194C240.061 77.606 239.888 76.948 239.879 76.22V69.612C239.879 69.444 239.926 69.3133 240.019 69.22C240.122 69.1173 240.257 69.066 240.425 69.066C240.584 69.066 240.71 69.1173 240.803 69.22C240.906 69.3133 240.957 69.444 240.957 69.612V73.728C241.265 73.2893 241.671 72.9393 242.175 72.678C242.688 72.4073 243.258 72.272 243.883 72.272C244.602 72.272 245.246 72.4447 245.815 72.79C246.384 73.126 246.832 73.588 247.159 74.176C247.495 74.764 247.663 75.4267 247.663 76.164C247.663 76.9107 247.49 77.578 247.145 78.166C246.809 78.754 246.347 79.2207 245.759 79.566C245.171 79.902 244.504 80.07 243.757 80.07ZM243.757 79.09C244.298 79.09 244.784 78.964 245.213 78.712C245.642 78.4507 245.978 78.1007 246.221 77.662C246.473 77.2233 246.599 76.724 246.599 76.164C246.599 75.6133 246.473 75.1187 246.221 74.68C245.978 74.232 245.642 73.882 245.213 73.63C244.784 73.378 244.298 73.252 243.757 73.252C243.225 73.252 242.744 73.378 242.315 73.63C241.886 73.882 241.55 74.232 241.307 74.68C241.064 75.1187 240.943 75.6133 240.943 76.164C240.943 76.724 241.064 77.2233 241.307 77.662C241.55 78.1007 241.886 78.4507 242.315 78.712C242.744 78.964 243.225 79.09 243.757 79.09ZM253.25 80.07C252.494 80.07 251.822 79.9067 251.234 79.58C250.655 79.244 250.198 78.782 249.862 78.194C249.535 77.606 249.372 76.934 249.372 76.178C249.372 75.4127 249.526 74.7407 249.834 74.162C250.151 73.574 250.585 73.112 251.136 72.776C251.686 72.44 252.321 72.272 253.04 72.272C253.749 72.272 254.365 72.4353 254.888 72.762C255.42 73.0793 255.83 73.5227 256.12 74.092C256.409 74.6613 256.554 75.31 256.554 76.038C256.554 76.1873 256.507 76.3087 256.414 76.402C256.32 76.486 256.199 76.528 256.05 76.528H250.1V75.632H256.162L255.56 76.066C255.569 75.5247 255.471 75.0393 255.266 74.61C255.06 74.1807 254.766 73.8447 254.384 73.602C254.01 73.3593 253.562 73.238 253.04 73.238C252.508 73.238 252.041 73.364 251.64 73.616C251.238 73.868 250.926 74.218 250.702 74.666C250.487 75.1047 250.38 75.6087 250.38 76.178C250.38 76.7473 250.501 77.2513 250.744 77.69C250.996 78.1287 251.336 78.474 251.766 78.726C252.195 78.978 252.69 79.104 253.25 79.104C253.586 79.104 253.922 79.048 254.258 78.936C254.603 78.8147 254.878 78.6653 255.084 78.488C255.186 78.404 255.303 78.362 255.434 78.362C255.564 78.3527 255.676 78.3853 255.77 78.46C255.891 78.572 255.952 78.6933 255.952 78.824C255.961 78.9547 255.91 79.0667 255.798 79.16C255.49 79.4213 255.098 79.6407 254.622 79.818C254.146 79.986 253.688 80.07 253.25 80.07ZM258.825 75.282C258.853 74.7033 259.003 74.1853 259.273 73.728C259.553 73.2707 259.913 72.9113 260.351 72.65C260.799 72.3887 261.294 72.258 261.835 72.258C262.265 72.258 262.596 72.3187 262.829 72.44C263.063 72.5613 263.151 72.7387 263.095 72.972C263.058 73.112 262.993 73.2053 262.899 73.252C262.815 73.2987 262.708 73.3173 262.577 73.308C262.456 73.2987 262.316 73.2893 262.157 73.28C261.635 73.2333 261.168 73.2893 260.757 73.448C260.356 73.5973 260.034 73.8307 259.791 74.148C259.558 74.4653 259.441 74.8433 259.441 75.282H258.825ZM258.909 80C258.741 80 258.611 79.9533 258.517 79.86C258.424 79.7667 258.377 79.636 258.377 79.468V72.874C258.377 72.706 258.424 72.5753 258.517 72.482C258.611 72.3887 258.741 72.342 258.909 72.342C259.077 72.342 259.208 72.3887 259.301 72.482C259.395 72.5753 259.441 72.706 259.441 72.874V79.468C259.441 79.636 259.395 79.7667 259.301 79.86C259.208 79.9533 259.077 80 258.909 80ZM267.715 80.07C266.968 80.07 266.301 79.902 265.713 79.566C265.125 79.23 264.663 78.768 264.327 78.18C263.991 77.592 263.823 76.9247 263.823 76.178C263.823 75.422 263.991 74.75 264.327 74.162C264.663 73.574 265.125 73.112 265.713 72.776C266.301 72.44 266.968 72.272 267.715 72.272C268.461 72.272 269.124 72.44 269.703 72.776C270.291 73.112 270.753 73.574 271.089 74.162C271.425 74.75 271.597 75.422 271.607 76.178C271.607 76.9247 271.434 77.592 271.089 78.18C270.753 78.768 270.291 79.23 269.703 79.566C269.124 79.902 268.461 80.07 267.715 80.07ZM267.715 79.09C268.256 79.09 268.741 78.964 269.171 78.712C269.6 78.46 269.936 78.1147 270.179 77.676C270.421 77.2373 270.543 76.738 270.543 76.178C270.543 75.618 270.421 75.1187 270.179 74.68C269.936 74.232 269.6 73.882 269.171 73.63C268.741 73.378 268.256 73.252 267.715 73.252C267.173 73.252 266.688 73.378 266.259 73.63C265.829 73.882 265.489 74.232 265.237 74.68C264.994 75.1187 264.873 75.618 264.873 76.178C264.873 76.738 264.994 77.2373 265.237 77.676C265.489 78.1147 265.829 78.46 266.259 78.712C266.688 78.964 267.173 79.09 267.715 79.09Z" fill="#717171"/>
</svg>
