<svg width="347" height="112" viewBox="0 0 347 112" fill="none" xmlns="http://www.w3.org/2000/svg">
<circle r="2.09076" transform="matrix(0.707107 0.707107 0.707107 -0.707107 187.106 77.3744)" fill="#FF6B6B"/>
<circle r="2.09076" transform="matrix(0.707107 0.707107 0.707107 -0.707107 182.91 73.1784)" fill="#1A535C"/>
<circle r="2.09076" transform="matrix(0.707107 0.707107 0.707107 -0.707107 174.518 64.7866)" fill="#4ECDC4"/>
<circle r="2.09076" transform="matrix(0.707107 0.707107 0.707107 -0.707107 178.715 68.9825)" fill="#FFD100"/>
<path d="M176.324 38.7513C180.732 41.2959 184.102 45.3119 185.843 50.0941C187.584 54.8763 187.584 60.119 185.844 64.9016L181.775 63.4213C183.167 59.5952 183.167 55.4011 181.774 51.5753C180.381 47.7495 177.685 44.5367 174.159 42.501L176.324 38.7513Z" fill="#FF6B6B"/>
<path d="M148.916 43.5842C152.187 39.6856 156.727 37.0641 161.739 36.18C166.751 35.2959 171.914 36.2058 176.322 38.7498L174.157 42.4998C170.631 40.4646 166.501 39.7368 162.491 40.444C158.482 41.1513 154.849 43.2485 152.232 46.3674L148.916 43.5842Z" fill="#1A535C"/>
<path d="M148.916 71.4158C145.644 67.5172 143.851 62.5908 143.851 57.5015C143.851 52.4123 145.643 47.4856 148.914 43.5865L152.231 46.3692C149.614 49.4884 148.18 53.4298 148.181 57.5012C148.181 61.5726 149.616 65.5138 152.233 68.6326L148.916 71.4158Z" fill="#FFD100"/>
<path d="M176.325 76.2487C171.917 78.7933 166.754 79.7039 161.742 78.8205C156.73 77.9371 152.19 75.3162 148.918 71.4181L152.234 68.6345C154.852 71.753 158.484 73.8497 162.494 74.5564C166.503 75.2631 170.634 74.5346 174.16 72.4989L176.325 76.2487Z" fill="#4ECDC4"/>
<path d="M139.632 21.096C138.432 21.096 137.368 20.816 136.44 20.256C135.528 19.68 134.808 18.896 134.28 17.904C133.752 16.896 133.488 15.744 133.488 14.448C133.488 13.136 133.768 11.984 134.328 10.992C134.904 9.984 135.688 9.2 136.68 8.64C137.672 8.064 138.816 7.776 140.112 7.776C141.392 7.776 142.528 8.064 143.52 8.64C144.512 9.2 145.288 9.984 145.848 10.992C146.424 11.984 146.712 13.136 146.712 14.448H145.296C145.296 15.744 145.048 16.896 144.552 17.904C144.072 18.896 143.408 19.68 142.56 20.256C141.712 20.816 140.736 21.096 139.632 21.096ZM140.064 26.448C138.928 26.448 137.864 26.224 136.872 25.776C135.88 25.328 135.04 24.672 134.352 23.808C134.144 23.536 134.064 23.256 134.112 22.968C134.176 22.68 134.336 22.448 134.592 22.272C134.88 22.08 135.176 22.016 135.48 22.08C135.8 22.144 136.056 22.304 136.248 22.56C136.68 23.104 137.224 23.528 137.88 23.832C138.536 24.136 139.28 24.288 140.112 24.288C140.88 24.288 141.584 24.104 142.224 23.736C142.88 23.368 143.4 22.824 143.784 22.104C144.168 21.384 144.36 20.504 144.36 19.464V16.056L145.152 13.944L146.712 14.448V19.632C146.712 20.896 146.432 22.04 145.872 23.064C145.312 24.104 144.528 24.928 143.52 25.536C142.528 26.144 141.376 26.448 140.064 26.448ZM140.112 18.936C140.944 18.936 141.68 18.744 142.32 18.36C142.96 17.976 143.456 17.448 143.808 16.776C144.176 16.104 144.36 15.328 144.36 14.448C144.36 13.568 144.176 12.792 143.808 12.12C143.456 11.432 142.96 10.896 142.32 10.512C141.68 10.128 140.944 9.936 140.112 9.936C139.28 9.936 138.544 10.128 137.904 10.512C137.264 10.896 136.76 11.432 136.392 12.12C136.024 12.792 135.84 13.568 135.84 14.448C135.84 15.328 136.024 16.104 136.392 16.776C136.76 17.448 137.264 17.976 137.904 18.36C138.544 18.744 139.28 18.936 140.112 18.936ZM151.819 21C151.467 21 151.171 20.888 150.931 20.664C150.707 20.424 150.595 20.128 150.595 19.776V9.096C150.595 8.728 150.707 8.432 150.931 8.208C151.171 7.984 151.467 7.872 151.819 7.872C152.187 7.872 152.483 7.984 152.707 8.208C152.931 8.432 153.043 8.728 153.043 9.096V19.776C153.043 20.128 152.931 20.424 152.707 20.664C152.483 20.888 152.187 21 151.819 21ZM151.819 5.736C151.387 5.736 151.011 5.584 150.691 5.28C150.387 4.96 150.235 4.584 150.235 4.152C150.235 3.72 150.387 3.352 150.691 3.048C151.011 2.728 151.387 2.568 151.819 2.568C152.251 2.568 152.619 2.728 152.923 3.048C153.243 3.352 153.403 3.72 153.403 4.152C153.403 4.584 153.243 4.96 152.923 5.28C152.619 5.584 152.251 5.736 151.819 5.736ZM158.774 12.792C158.774 11.832 159.006 10.976 159.47 10.224C159.95 9.456 160.59 8.848 161.39 8.4C162.19 7.952 163.07 7.728 164.03 7.728C164.99 7.728 165.702 7.888 166.166 8.208C166.646 8.512 166.83 8.88 166.718 9.312C166.67 9.536 166.574 9.712 166.43 9.84C166.302 9.952 166.15 10.024 165.974 10.056C165.798 10.088 165.606 10.08 165.398 10.032C164.374 9.824 163.454 9.808 162.638 9.984C161.822 10.16 161.174 10.488 160.694 10.968C160.23 11.448 159.998 12.056 159.998 12.792H158.774ZM158.798 21C158.414 21 158.118 20.904 157.91 20.712C157.702 20.504 157.598 20.2 157.598 19.8V9.072C157.598 8.688 157.702 8.392 157.91 8.184C158.118 7.976 158.414 7.872 158.798 7.872C159.198 7.872 159.494 7.976 159.686 8.184C159.894 8.376 159.998 8.672 159.998 9.072V19.8C159.998 20.184 159.894 20.48 159.686 20.688C159.494 20.896 159.198 21 158.798 21ZM174.26 21.096C172.964 21.096 171.82 20.816 170.828 20.256C169.836 19.68 169.052 18.896 168.476 17.904C167.916 16.896 167.636 15.744 167.636 14.448C167.636 13.136 167.916 11.984 168.476 10.992C169.052 9.984 169.836 9.2 170.828 8.64C171.82 8.064 172.964 7.776 174.26 7.776C175.54 7.776 176.676 8.064 177.668 8.64C178.66 9.2 179.436 9.984 179.996 10.992C180.572 11.984 180.86 13.136 180.86 14.448C180.86 15.744 180.58 16.896 180.02 17.904C179.46 18.896 178.684 19.68 177.692 20.256C176.7 20.816 175.556 21.096 174.26 21.096ZM174.26 18.936C175.092 18.936 175.828 18.744 176.468 18.36C177.108 17.976 177.604 17.448 177.956 16.776C178.324 16.104 178.508 15.328 178.508 14.448C178.508 13.568 178.324 12.792 177.956 12.12C177.604 11.432 177.108 10.896 176.468 10.512C175.828 10.128 175.092 9.936 174.26 9.936C173.428 9.936 172.692 10.128 172.052 10.512C171.412 10.896 170.908 11.432 170.54 12.12C170.172 12.792 169.988 13.568 169.988 14.448C169.988 15.328 170.172 16.104 170.54 16.776C170.908 17.448 171.412 17.976 172.052 18.36C172.692 18.744 173.428 18.936 174.26 18.936ZM195.856 26.616C195.488 26.616 195.184 26.496 194.944 26.256C194.72 26.032 194.608 25.744 194.608 25.392V18.912C194.064 19.584 193.392 20.12 192.592 20.52C191.792 20.904 190.92 21.096 189.976 21.096C188.808 21.096 187.76 20.808 186.832 20.232C185.904 19.64 185.168 18.848 184.624 17.856C184.096 16.848 183.832 15.712 183.832 14.448C183.832 13.184 184.12 12.048 184.696 11.04C185.288 10.032 186.08 9.24 187.072 8.664C188.08 8.072 189.208 7.776 190.456 7.776C191.704 7.776 192.824 8.072 193.816 8.664C194.808 9.24 195.592 10.032 196.168 11.04C196.76 12.048 197.056 13.184 197.056 14.448V25.392C197.056 25.744 196.944 26.032 196.72 26.256C196.496 26.496 196.208 26.616 195.856 26.616ZM190.456 18.936C191.272 18.936 192 18.744 192.64 18.36C193.28 17.96 193.784 17.424 194.152 16.752C194.52 16.064 194.704 15.296 194.704 14.448C194.704 13.584 194.52 12.816 194.152 12.144C193.784 11.456 193.28 10.92 192.64 10.536C192 10.136 191.272 9.936 190.456 9.936C189.656 9.936 188.928 10.136 188.272 10.536C187.632 10.92 187.12 11.456 186.736 12.144C186.368 12.816 186.184 13.584 186.184 14.448C186.184 15.296 186.368 16.064 186.736 16.752C187.12 17.424 187.632 17.96 188.272 18.36C188.928 18.744 189.656 18.936 190.456 18.936Z" fill="#717171"/>
<path d="M76.5026 108C76.3533 108 76.2226 107.949 76.1106 107.846C76.008 107.743 75.9566 107.613 75.9566 107.454V97.612C75.9566 97.4627 76.008 97.3367 76.1106 97.234C76.2226 97.122 76.3533 97.066 76.5026 97.066C76.652 97.066 76.778 97.122 76.8806 97.234C76.9926 97.3367 77.0486 97.4627 77.0486 97.612V106.964H82.5226C82.672 106.964 82.798 107.015 82.9006 107.118C83.0126 107.211 83.0686 107.333 83.0686 107.482C83.0686 107.631 83.0126 107.757 82.9006 107.86C82.798 107.953 82.672 108 82.5226 108H76.5026ZM88.05 108.07C87.3313 108.07 86.6873 107.902 86.118 107.566C85.5487 107.221 85.096 106.754 84.76 106.166C84.4333 105.578 84.27 104.915 84.27 104.178C84.27 103.431 84.438 102.764 84.774 102.176C85.1193 101.588 85.586 101.126 86.174 100.79C86.762 100.445 87.4247 100.272 88.162 100.272C88.8993 100.272 89.5573 100.445 90.136 100.79C90.724 101.126 91.186 101.588 91.522 102.176C91.8673 102.764 92.0447 103.431 92.054 104.178L91.62 104.514C91.62 105.186 91.4613 105.793 91.144 106.334C90.836 106.866 90.4113 107.291 89.87 107.608C89.338 107.916 88.7313 108.07 88.05 108.07ZM88.162 107.09C88.7033 107.09 89.184 106.964 89.604 106.712C90.0333 106.46 90.3693 106.115 90.612 105.676C90.864 105.228 90.99 104.729 90.99 104.178C90.99 103.618 90.864 103.119 90.612 102.68C90.3693 102.241 90.0333 101.896 89.604 101.644C89.184 101.383 88.7033 101.252 88.162 101.252C87.63 101.252 87.1493 101.383 86.72 101.644C86.2907 101.896 85.95 102.241 85.698 102.68C85.446 103.119 85.32 103.618 85.32 104.178C85.32 104.729 85.446 105.228 85.698 105.676C85.95 106.115 86.2907 106.46 86.72 106.712C87.1493 106.964 87.63 107.09 88.162 107.09ZM91.508 108C91.3493 108 91.2187 107.953 91.116 107.86C91.0133 107.757 90.962 107.627 90.962 107.468V105.074L91.228 103.968L92.054 104.178V107.468C92.054 107.627 92.0027 107.757 91.9 107.86C91.7973 107.953 91.6667 108 91.508 108ZM108.598 108C108.44 108 108.309 107.953 108.206 107.86C108.104 107.757 108.052 107.627 108.052 107.468V103.436C108.052 102.773 107.88 102.251 107.534 101.868C107.189 101.476 106.746 101.28 106.204 101.28C105.626 101.28 105.15 101.476 104.776 101.868C104.412 102.251 104.235 102.764 104.244 103.408H103.278C103.288 102.783 103.423 102.232 103.684 101.756C103.946 101.28 104.305 100.911 104.762 100.65C105.22 100.389 105.738 100.258 106.316 100.258C106.867 100.258 107.352 100.389 107.772 100.65C108.202 100.911 108.533 101.28 108.766 101.756C109.009 102.232 109.13 102.792 109.13 103.436V107.468C109.13 107.627 109.079 107.757 108.976 107.86C108.883 107.953 108.757 108 108.598 108ZM98.7982 108C98.6302 108 98.4949 107.953 98.3922 107.86C98.2989 107.757 98.2522 107.627 98.2522 107.468V100.888C98.2522 100.729 98.2989 100.599 98.3922 100.496C98.4949 100.393 98.6302 100.342 98.7982 100.342C98.9569 100.342 99.0829 100.393 99.1762 100.496C99.2789 100.599 99.3302 100.729 99.3302 100.888V107.468C99.3302 107.627 99.2789 107.757 99.1762 107.86C99.0829 107.953 98.9569 108 98.7982 108ZM103.712 108C103.554 108 103.423 107.953 103.32 107.86C103.218 107.757 103.166 107.627 103.166 107.468V103.436C103.166 102.773 102.994 102.251 102.648 101.868C102.303 101.476 101.86 101.28 101.318 101.28C100.74 101.28 100.264 101.471 99.8902 101.854C99.5169 102.227 99.3302 102.717 99.3302 103.324H98.5602C98.5789 102.727 98.7095 102.199 98.9522 101.742C99.2042 101.275 99.5449 100.911 99.9742 100.65C100.404 100.389 100.889 100.258 101.43 100.258C101.981 100.258 102.466 100.389 102.886 100.65C103.316 100.911 103.647 101.28 103.88 101.756C104.123 102.232 104.244 102.792 104.244 103.436V107.468C104.244 107.627 104.193 107.757 104.09 107.86C103.997 107.953 103.871 108 103.712 108ZM114.888 108.07C114.169 108.07 113.525 107.902 112.956 107.566C112.387 107.221 111.934 106.754 111.598 106.166C111.271 105.578 111.108 104.915 111.108 104.178C111.108 103.431 111.276 102.764 111.612 102.176C111.957 101.588 112.424 101.126 113.012 100.79C113.6 100.445 114.263 100.272 115 100.272C115.737 100.272 116.395 100.445 116.974 100.79C117.562 101.126 118.024 101.588 118.36 102.176C118.705 102.764 118.883 103.431 118.892 104.178L118.458 104.514C118.458 105.186 118.299 105.793 117.982 106.334C117.674 106.866 117.249 107.291 116.708 107.608C116.176 107.916 115.569 108.07 114.888 108.07ZM115 107.09C115.541 107.09 116.022 106.964 116.442 106.712C116.871 106.46 117.207 106.115 117.45 105.676C117.702 105.228 117.828 104.729 117.828 104.178C117.828 103.618 117.702 103.119 117.45 102.68C117.207 102.241 116.871 101.896 116.442 101.644C116.022 101.383 115.541 101.252 115 101.252C114.468 101.252 113.987 101.383 113.558 101.644C113.129 101.896 112.788 102.241 112.536 102.68C112.284 103.119 112.158 103.618 112.158 104.178C112.158 104.729 112.284 105.228 112.536 105.676C112.788 106.115 113.129 106.46 113.558 106.712C113.987 106.964 114.468 107.09 115 107.09ZM118.346 108C118.187 108 118.057 107.953 117.954 107.86C117.851 107.757 117.8 107.627 117.8 107.468V105.074L118.066 103.968L118.892 104.178V107.468C118.892 107.627 118.841 107.757 118.738 107.86C118.635 107.953 118.505 108 118.346 108ZM121.535 111.276C121.367 111.276 121.231 111.225 121.129 111.122C121.035 111.029 120.989 110.898 120.989 110.73V104.122C120.998 103.394 121.171 102.741 121.507 102.162C121.852 101.574 122.314 101.112 122.893 100.776C123.481 100.44 124.139 100.272 124.867 100.272C125.613 100.272 126.281 100.445 126.869 100.79C127.457 101.126 127.919 101.588 128.255 102.176C128.6 102.764 128.773 103.431 128.773 104.178C128.773 104.915 128.605 105.578 128.269 106.166C127.942 106.754 127.494 107.221 126.925 107.566C126.355 107.902 125.711 108.07 124.993 108.07C124.367 108.07 123.798 107.939 123.285 107.678C122.781 107.407 122.375 107.053 122.067 106.614V110.73C122.067 110.898 122.015 111.029 121.913 111.122C121.819 111.225 121.693 111.276 121.535 111.276ZM124.867 107.09C125.408 107.09 125.893 106.964 126.323 106.712C126.752 106.46 127.088 106.115 127.331 105.676C127.583 105.228 127.709 104.729 127.709 104.178C127.709 103.618 127.583 103.119 127.331 102.68C127.088 102.241 126.752 101.896 126.323 101.644C125.893 101.383 125.408 101.252 124.867 101.252C124.335 101.252 123.854 101.383 123.425 101.644C122.995 101.896 122.659 102.241 122.417 102.68C122.174 103.119 122.053 103.618 122.053 104.178C122.053 104.729 122.174 105.228 122.417 105.676C122.659 106.115 122.995 106.46 123.425 106.712C123.854 106.964 124.335 107.09 124.867 107.09ZM131.433 111.276C131.265 111.276 131.13 111.225 131.027 111.122C130.934 111.029 130.887 110.898 130.887 110.73V104.122C130.896 103.394 131.069 102.741 131.405 102.162C131.75 101.574 132.212 101.112 132.791 100.776C133.379 100.44 134.037 100.272 134.765 100.272C135.512 100.272 136.179 100.445 136.767 100.79C137.355 101.126 137.817 101.588 138.153 102.176C138.498 102.764 138.671 103.431 138.671 104.178C138.671 104.915 138.503 105.578 138.167 106.166C137.84 106.754 137.392 107.221 136.823 107.566C136.254 107.902 135.61 108.07 134.891 108.07C134.266 108.07 133.696 107.939 133.183 107.678C132.679 107.407 132.273 107.053 131.965 106.614V110.73C131.965 110.898 131.914 111.029 131.811 111.122C131.718 111.225 131.592 111.276 131.433 111.276ZM134.765 107.09C135.306 107.09 135.792 106.964 136.221 106.712C136.65 106.46 136.986 106.115 137.229 105.676C137.481 105.228 137.607 104.729 137.607 104.178C137.607 103.618 137.481 103.119 137.229 102.68C136.986 102.241 136.65 101.896 136.221 101.644C135.792 101.383 135.306 101.252 134.765 101.252C134.233 101.252 133.752 101.383 133.323 101.644C132.894 101.896 132.558 102.241 132.315 102.68C132.072 103.119 131.951 103.618 131.951 104.178C131.951 104.729 132.072 105.228 132.315 105.676C132.558 106.115 132.894 106.46 133.323 106.712C133.752 106.964 134.233 107.09 134.765 107.09ZM144.159 108.07C143.441 108.07 142.797 107.902 142.227 107.566C141.658 107.221 141.205 106.754 140.869 106.166C140.543 105.578 140.379 104.915 140.379 104.178C140.379 103.431 140.547 102.764 140.883 102.176C141.229 101.588 141.695 101.126 142.283 100.79C142.871 100.445 143.534 100.272 144.271 100.272C145.009 100.272 145.667 100.445 146.245 100.79C146.833 101.126 147.295 101.588 147.631 102.176C147.977 102.764 148.154 103.431 148.163 104.178L147.729 104.514C147.729 105.186 147.571 105.793 147.253 106.334C146.945 106.866 146.521 107.291 145.979 107.608C145.447 107.916 144.841 108.07 144.159 108.07ZM144.271 107.09C144.813 107.09 145.293 106.964 145.713 106.712C146.143 106.46 146.479 106.115 146.721 105.676C146.973 105.228 147.099 104.729 147.099 104.178C147.099 103.618 146.973 103.119 146.721 102.68C146.479 102.241 146.143 101.896 145.713 101.644C145.293 101.383 144.813 101.252 144.271 101.252C143.739 101.252 143.259 101.383 142.829 101.644C142.4 101.896 142.059 102.241 141.807 102.68C141.555 103.119 141.429 103.618 141.429 104.178C141.429 104.729 141.555 105.228 141.807 105.676C142.059 106.115 142.4 106.46 142.829 106.712C143.259 106.964 143.739 107.09 144.271 107.09ZM147.617 108C147.459 108 147.328 107.953 147.225 107.86C147.123 107.757 147.071 107.627 147.071 107.468V105.074L147.337 103.968L148.163 104.178V107.468C148.163 107.627 148.112 107.757 148.009 107.86C147.907 107.953 147.776 108 147.617 108ZM157.848 108.07C157.11 108.07 156.448 107.902 155.86 107.566C155.272 107.221 154.805 106.754 154.46 106.166C154.124 105.578 153.956 104.911 153.956 104.164C153.956 103.427 154.119 102.764 154.446 102.176C154.782 101.588 155.234 101.126 155.804 100.79C156.373 100.445 157.017 100.272 157.736 100.272C158.361 100.272 158.926 100.407 159.43 100.678C159.934 100.939 160.34 101.289 160.648 101.728V97.612C160.648 97.444 160.699 97.3133 160.802 97.22C160.904 97.1173 161.035 97.066 161.194 97.066C161.352 97.066 161.483 97.1173 161.586 97.22C161.688 97.3133 161.74 97.444 161.74 97.612V104.22C161.721 104.948 161.539 105.606 161.194 106.194C160.858 106.773 160.396 107.23 159.808 107.566C159.229 107.902 158.576 108.07 157.848 108.07ZM157.848 107.09C158.389 107.09 158.87 106.964 159.29 106.712C159.719 106.451 160.055 106.101 160.298 105.662C160.55 105.223 160.676 104.724 160.676 104.164C160.676 103.613 160.55 103.119 160.298 102.68C160.055 102.232 159.719 101.882 159.29 101.63C158.87 101.378 158.389 101.252 157.848 101.252C157.316 101.252 156.835 101.378 156.406 101.63C155.976 101.882 155.636 102.232 155.384 102.68C155.132 103.119 155.006 103.613 155.006 104.164C155.006 104.724 155.132 105.223 155.384 105.662C155.636 106.101 155.976 106.451 156.406 106.712C156.835 106.964 157.316 107.09 157.848 107.09ZM167.732 108.07C166.976 108.07 166.304 107.907 165.716 107.58C165.137 107.244 164.68 106.782 164.344 106.194C164.017 105.606 163.854 104.934 163.854 104.178C163.854 103.413 164.008 102.741 164.316 102.162C164.633 101.574 165.067 101.112 165.618 100.776C166.169 100.44 166.803 100.272 167.522 100.272C168.231 100.272 168.847 100.435 169.37 100.762C169.902 101.079 170.313 101.523 170.602 102.092C170.891 102.661 171.036 103.31 171.036 104.038C171.036 104.187 170.989 104.309 170.896 104.402C170.803 104.486 170.681 104.528 170.532 104.528H164.582V103.632H170.644L170.042 104.066C170.051 103.525 169.953 103.039 169.748 102.61C169.543 102.181 169.249 101.845 168.866 101.602C168.493 101.359 168.045 101.238 167.522 101.238C166.99 101.238 166.523 101.364 166.122 101.616C165.721 101.868 165.408 102.218 165.184 102.666C164.969 103.105 164.862 103.609 164.862 104.178C164.862 104.747 164.983 105.251 165.226 105.69C165.478 106.129 165.819 106.474 166.248 106.726C166.677 106.978 167.172 107.104 167.732 107.104C168.068 107.104 168.404 107.048 168.74 106.936C169.085 106.815 169.361 106.665 169.566 106.488C169.669 106.404 169.785 106.362 169.916 106.362C170.047 106.353 170.159 106.385 170.252 106.46C170.373 106.572 170.434 106.693 170.434 106.824C170.443 106.955 170.392 107.067 170.28 107.16C169.972 107.421 169.58 107.641 169.104 107.818C168.628 107.986 168.171 108.07 167.732 108.07ZM174.512 108C174.138 108 173.802 107.897 173.504 107.692C173.214 107.487 172.986 107.202 172.818 106.838C172.659 106.474 172.58 106.054 172.58 105.578V97.598C172.58 97.4393 172.626 97.3133 172.72 97.22C172.822 97.1173 172.953 97.066 173.112 97.066C173.27 97.066 173.396 97.1173 173.49 97.22C173.592 97.3133 173.644 97.4393 173.644 97.598V105.578C173.644 105.979 173.723 106.306 173.882 106.558C174.05 106.81 174.26 106.936 174.512 106.936H174.862C175.002 106.936 175.114 106.987 175.198 107.09C175.282 107.183 175.324 107.309 175.324 107.468C175.324 107.627 175.263 107.757 175.142 107.86C175.03 107.953 174.88 108 174.694 108H174.512ZM183.908 108C183.414 108 182.97 107.883 182.578 107.65C182.196 107.417 181.892 107.099 181.668 106.698C181.444 106.287 181.332 105.821 181.332 105.298V98.452C181.332 98.2933 181.379 98.1627 181.472 98.06C181.575 97.9573 181.706 97.906 181.864 97.906C182.023 97.906 182.154 97.9573 182.256 98.06C182.359 98.1627 182.41 98.2933 182.41 98.452V105.298C182.41 105.774 182.55 106.166 182.83 106.474C183.11 106.773 183.47 106.922 183.908 106.922H184.286C184.436 106.922 184.557 106.973 184.65 107.076C184.744 107.179 184.79 107.309 184.79 107.468C184.79 107.627 184.734 107.757 184.622 107.86C184.51 107.953 184.37 108 184.202 108H183.908ZM180.422 101.56C180.282 101.56 180.166 101.518 180.072 101.434C179.979 101.341 179.932 101.229 179.932 101.098C179.932 100.958 179.979 100.846 180.072 100.762C180.166 100.669 180.282 100.622 180.422 100.622H183.992C184.132 100.622 184.249 100.669 184.342 100.762C184.436 100.846 184.482 100.958 184.482 101.098C184.482 101.229 184.436 101.341 184.342 101.434C184.249 101.518 184.132 101.56 183.992 101.56H180.422ZM190.017 108.07C189.261 108.07 188.589 107.907 188.001 107.58C187.422 107.244 186.965 106.782 186.629 106.194C186.302 105.606 186.139 104.934 186.139 104.178C186.139 103.413 186.293 102.741 186.601 102.162C186.918 101.574 187.352 101.112 187.903 100.776C188.454 100.44 189.088 100.272 189.807 100.272C190.516 100.272 191.132 100.435 191.655 100.762C192.187 101.079 192.598 101.523 192.887 102.092C193.176 102.661 193.321 103.31 193.321 104.038C193.321 104.187 193.274 104.309 193.181 104.402C193.088 104.486 192.966 104.528 192.817 104.528H186.867V103.632H192.929L192.327 104.066C192.336 103.525 192.238 103.039 192.033 102.61C191.828 102.181 191.534 101.845 191.151 101.602C190.778 101.359 190.33 101.238 189.807 101.238C189.275 101.238 188.808 101.364 188.407 101.616C188.006 101.868 187.693 102.218 187.469 102.666C187.254 103.105 187.147 103.609 187.147 104.178C187.147 104.747 187.268 105.251 187.511 105.69C187.763 106.129 188.104 106.474 188.533 106.726C188.962 106.978 189.457 107.104 190.017 107.104C190.353 107.104 190.689 107.048 191.025 106.936C191.37 106.815 191.646 106.665 191.851 106.488C191.954 106.404 192.07 106.362 192.201 106.362C192.332 106.353 192.444 106.385 192.537 106.46C192.658 106.572 192.719 106.693 192.719 106.824C192.728 106.955 192.677 107.067 192.565 107.16C192.257 107.421 191.865 107.641 191.389 107.818C190.913 107.986 190.456 108.07 190.017 108.07ZM205.491 108C205.332 108 205.201 107.953 205.099 107.86C204.996 107.757 204.945 107.627 204.945 107.468V103.436C204.945 102.773 204.772 102.251 204.427 101.868C204.081 101.476 203.638 101.28 203.097 101.28C202.518 101.28 202.042 101.476 201.669 101.868C201.305 102.251 201.127 102.764 201.137 103.408H200.171C200.18 102.783 200.315 102.232 200.577 101.756C200.838 101.28 201.197 100.911 201.655 100.65C202.112 100.389 202.63 100.258 203.209 100.258C203.759 100.258 204.245 100.389 204.665 100.65C205.094 100.911 205.425 101.28 205.659 101.756C205.901 102.232 206.023 102.792 206.023 103.436V107.468C206.023 107.627 205.971 107.757 205.869 107.86C205.775 107.953 205.649 108 205.491 108ZM195.691 108C195.523 108 195.387 107.953 195.285 107.86C195.191 107.757 195.145 107.627 195.145 107.468V100.888C195.145 100.729 195.191 100.599 195.285 100.496C195.387 100.393 195.523 100.342 195.691 100.342C195.849 100.342 195.975 100.393 196.069 100.496C196.171 100.599 196.223 100.729 196.223 100.888V107.468C196.223 107.627 196.171 107.757 196.069 107.86C195.975 107.953 195.849 108 195.691 108ZM200.605 108C200.446 108 200.315 107.953 200.213 107.86C200.11 107.757 200.059 107.627 200.059 107.468V103.436C200.059 102.773 199.886 102.251 199.541 101.868C199.195 101.476 198.752 101.28 198.211 101.28C197.632 101.28 197.156 101.471 196.783 101.854C196.409 102.227 196.223 102.717 196.223 103.324H195.453C195.471 102.727 195.602 102.199 195.845 101.742C196.097 101.275 196.437 100.911 196.867 100.65C197.296 100.389 197.781 100.258 198.323 100.258C198.873 100.258 199.359 100.389 199.779 100.65C200.208 100.911 200.539 101.28 200.773 101.756C201.015 102.232 201.137 102.792 201.137 103.436V107.468C201.137 107.627 201.085 107.757 200.983 107.86C200.889 107.953 200.763 108 200.605 108ZM208.952 111.276C208.784 111.276 208.649 111.225 208.546 111.122C208.453 111.029 208.406 110.898 208.406 110.73V104.122C208.416 103.394 208.588 102.741 208.924 102.162C209.27 101.574 209.732 101.112 210.31 100.776C210.898 100.44 211.556 100.272 212.284 100.272C213.031 100.272 213.698 100.445 214.286 100.79C214.874 101.126 215.336 101.588 215.672 102.176C216.018 102.764 216.19 103.431 216.19 104.178C216.19 104.915 216.022 105.578 215.686 106.166C215.36 106.754 214.912 107.221 214.342 107.566C213.773 107.902 213.129 108.07 212.41 108.07C211.785 108.07 211.216 107.939 210.702 107.678C210.198 107.407 209.792 107.053 209.484 106.614V110.73C209.484 110.898 209.433 111.029 209.33 111.122C209.237 111.225 209.111 111.276 208.952 111.276ZM212.284 107.09C212.826 107.09 213.311 106.964 213.74 106.712C214.17 106.46 214.506 106.115 214.748 105.676C215 105.228 215.126 104.729 215.126 104.178C215.126 103.618 215 103.119 214.748 102.68C214.506 102.241 214.17 101.896 213.74 101.644C213.311 101.383 212.826 101.252 212.284 101.252C211.752 101.252 211.272 101.383 210.842 101.644C210.413 101.896 210.077 102.241 209.834 102.68C209.592 103.119 209.47 103.618 209.47 104.178C209.47 104.729 209.592 105.228 209.834 105.676C210.077 106.115 210.413 106.46 210.842 106.712C211.272 106.964 211.752 107.09 212.284 107.09ZM221.791 108.07C221.044 108.07 220.377 107.902 219.789 107.566C219.201 107.23 218.739 106.768 218.403 106.18C218.067 105.592 217.899 104.925 217.899 104.178C217.899 103.422 218.067 102.75 218.403 102.162C218.739 101.574 219.201 101.112 219.789 100.776C220.377 100.44 221.044 100.272 221.791 100.272C222.538 100.272 223.2 100.44 223.779 100.776C224.367 101.112 224.829 101.574 225.165 102.162C225.501 102.75 225.674 103.422 225.683 104.178C225.683 104.925 225.51 105.592 225.165 106.18C224.829 106.768 224.367 107.23 223.779 107.566C223.2 107.902 222.538 108.07 221.791 108.07ZM221.791 107.09C222.332 107.09 222.818 106.964 223.247 106.712C223.676 106.46 224.012 106.115 224.255 105.676C224.498 105.237 224.619 104.738 224.619 104.178C224.619 103.618 224.498 103.119 224.255 102.68C224.012 102.232 223.676 101.882 223.247 101.63C222.818 101.378 222.332 101.252 221.791 101.252C221.25 101.252 220.764 101.378 220.335 101.63C219.906 101.882 219.565 102.232 219.313 102.68C219.07 103.119 218.949 103.618 218.949 104.178C218.949 104.738 219.07 105.237 219.313 105.676C219.565 106.115 219.906 106.46 220.335 106.712C220.764 106.964 221.25 107.09 221.791 107.09ZM233.533 108C233.16 108 232.824 107.897 232.525 107.692C232.236 107.487 232.007 107.202 231.839 106.838C231.68 106.474 231.601 106.054 231.601 105.578V97.598C231.601 97.4393 231.648 97.3133 231.741 97.22C231.844 97.1173 231.974 97.066 232.133 97.066C232.292 97.066 232.418 97.1173 232.511 97.22C232.614 97.3133 232.665 97.4393 232.665 97.598V105.578C232.665 105.979 232.744 106.306 232.903 106.558C233.071 106.81 233.281 106.936 233.533 106.936H233.883C234.023 106.936 234.135 106.987 234.219 107.09C234.303 107.183 234.345 107.309 234.345 107.468C234.345 107.627 234.284 107.757 234.163 107.86C234.051 107.953 233.902 108 233.715 108H233.533ZM236.602 108C236.434 108 236.299 107.953 236.196 107.86C236.103 107.757 236.056 107.622 236.056 107.454V100.888C236.056 100.72 236.103 100.589 236.196 100.496C236.299 100.393 236.434 100.342 236.602 100.342C236.761 100.342 236.887 100.393 236.98 100.496C237.083 100.589 237.134 100.72 237.134 100.888V107.454C237.134 107.622 237.083 107.757 236.98 107.86C236.887 107.953 236.761 108 236.602 108ZM236.588 98.886C236.383 98.886 236.206 98.8113 236.056 98.662C235.907 98.5127 235.832 98.3307 235.832 98.116C235.832 97.8827 235.907 97.7007 236.056 97.57C236.215 97.43 236.397 97.36 236.602 97.36C236.798 97.36 236.971 97.43 237.12 97.57C237.279 97.7007 237.358 97.8827 237.358 98.116C237.358 98.3307 237.284 98.5127 237.134 98.662C236.985 98.8113 236.803 98.886 236.588 98.886ZM243.757 108.07C243.029 108.07 242.371 107.902 241.783 107.566C241.204 107.23 240.742 106.773 240.397 106.194C240.061 105.606 239.888 104.948 239.879 104.22V97.612C239.879 97.444 239.926 97.3133 240.019 97.22C240.122 97.1173 240.257 97.066 240.425 97.066C240.584 97.066 240.71 97.1173 240.803 97.22C240.906 97.3133 240.957 97.444 240.957 97.612V101.728C241.265 101.289 241.671 100.939 242.175 100.678C242.688 100.407 243.258 100.272 243.883 100.272C244.602 100.272 245.246 100.445 245.815 100.79C246.384 101.126 246.832 101.588 247.159 102.176C247.495 102.764 247.663 103.427 247.663 104.164C247.663 104.911 247.49 105.578 247.145 106.166C246.809 106.754 246.347 107.221 245.759 107.566C245.171 107.902 244.504 108.07 243.757 108.07ZM243.757 107.09C244.298 107.09 244.784 106.964 245.213 106.712C245.642 106.451 245.978 106.101 246.221 105.662C246.473 105.223 246.599 104.724 246.599 104.164C246.599 103.613 246.473 103.119 246.221 102.68C245.978 102.232 245.642 101.882 245.213 101.63C244.784 101.378 244.298 101.252 243.757 101.252C243.225 101.252 242.744 101.378 242.315 101.63C241.886 101.882 241.55 102.232 241.307 102.68C241.064 103.119 240.943 103.613 240.943 104.164C240.943 104.724 241.064 105.223 241.307 105.662C241.55 106.101 241.886 106.451 242.315 106.712C242.744 106.964 243.225 107.09 243.757 107.09ZM253.25 108.07C252.494 108.07 251.822 107.907 251.234 107.58C250.655 107.244 250.198 106.782 249.862 106.194C249.535 105.606 249.372 104.934 249.372 104.178C249.372 103.413 249.526 102.741 249.834 102.162C250.151 101.574 250.585 101.112 251.136 100.776C251.686 100.44 252.321 100.272 253.04 100.272C253.749 100.272 254.365 100.435 254.888 100.762C255.42 101.079 255.83 101.523 256.12 102.092C256.409 102.661 256.554 103.31 256.554 104.038C256.554 104.187 256.507 104.309 256.414 104.402C256.32 104.486 256.199 104.528 256.05 104.528H250.1V103.632H256.162L255.56 104.066C255.569 103.525 255.471 103.039 255.266 102.61C255.06 102.181 254.766 101.845 254.384 101.602C254.01 101.359 253.562 101.238 253.04 101.238C252.508 101.238 252.041 101.364 251.64 101.616C251.238 101.868 250.926 102.218 250.702 102.666C250.487 103.105 250.38 103.609 250.38 104.178C250.38 104.747 250.501 105.251 250.744 105.69C250.996 106.129 251.336 106.474 251.766 106.726C252.195 106.978 252.69 107.104 253.25 107.104C253.586 107.104 253.922 107.048 254.258 106.936C254.603 106.815 254.878 106.665 255.084 106.488C255.186 106.404 255.303 106.362 255.434 106.362C255.564 106.353 255.676 106.385 255.77 106.46C255.891 106.572 255.952 106.693 255.952 106.824C255.961 106.955 255.91 107.067 255.798 107.16C255.49 107.421 255.098 107.641 254.622 107.818C254.146 107.986 253.688 108.07 253.25 108.07ZM258.825 103.282C258.853 102.703 259.003 102.185 259.273 101.728C259.553 101.271 259.913 100.911 260.351 100.65C260.799 100.389 261.294 100.258 261.835 100.258C262.265 100.258 262.596 100.319 262.829 100.44C263.063 100.561 263.151 100.739 263.095 100.972C263.058 101.112 262.993 101.205 262.899 101.252C262.815 101.299 262.708 101.317 262.577 101.308C262.456 101.299 262.316 101.289 262.157 101.28C261.635 101.233 261.168 101.289 260.757 101.448C260.356 101.597 260.034 101.831 259.791 102.148C259.558 102.465 259.441 102.843 259.441 103.282H258.825ZM258.909 108C258.741 108 258.611 107.953 258.517 107.86C258.424 107.767 258.377 107.636 258.377 107.468V100.874C258.377 100.706 258.424 100.575 258.517 100.482C258.611 100.389 258.741 100.342 258.909 100.342C259.077 100.342 259.208 100.389 259.301 100.482C259.395 100.575 259.441 100.706 259.441 100.874V107.468C259.441 107.636 259.395 107.767 259.301 107.86C259.208 107.953 259.077 108 258.909 108ZM267.715 108.07C266.968 108.07 266.301 107.902 265.713 107.566C265.125 107.23 264.663 106.768 264.327 106.18C263.991 105.592 263.823 104.925 263.823 104.178C263.823 103.422 263.991 102.75 264.327 102.162C264.663 101.574 265.125 101.112 265.713 100.776C266.301 100.44 266.968 100.272 267.715 100.272C268.461 100.272 269.124 100.44 269.703 100.776C270.291 101.112 270.753 101.574 271.089 102.162C271.425 102.75 271.597 103.422 271.607 104.178C271.607 104.925 271.434 105.592 271.089 106.18C270.753 106.768 270.291 107.23 269.703 107.566C269.124 107.902 268.461 108.07 267.715 108.07ZM267.715 107.09C268.256 107.09 268.741 106.964 269.171 106.712C269.6 106.46 269.936 106.115 270.179 105.676C270.421 105.237 270.543 104.738 270.543 104.178C270.543 103.618 270.421 103.119 270.179 102.68C269.936 102.232 269.6 101.882 269.171 101.63C268.741 101.378 268.256 101.252 267.715 101.252C267.173 101.252 266.688 101.378 266.259 101.63C265.829 101.882 265.489 102.232 265.237 102.68C264.994 103.119 264.873 103.618 264.873 104.178C264.873 104.738 264.994 105.237 265.237 105.676C265.489 106.115 265.829 106.46 266.259 106.712C266.688 106.964 267.173 107.09 267.715 107.09Z" fill="#717171"/>
</svg>
