<svg width="347" height="134" viewBox="0 0 347 134" fill="none" xmlns="http://www.w3.org/2000/svg">
<circle r="2.02221" transform="matrix(0.707107 0.707107 0.707107 -0.707107 191.397 48.7227)" fill="#FF6B6B"/>
<circle r="2.02221" transform="matrix(0.707107 0.707107 0.707107 -0.707107 187.339 44.6644)" fill="#1A535C"/>
<circle r="2.02221" transform="matrix(0.707107 0.707107 0.707107 -0.707107 179.223 36.5477)" fill="#4ECDC4"/>
<circle r="2.02221" transform="matrix(0.707107 0.707107 0.707107 -0.707107 183.281 40.606)" fill="#FFD100"/>
<path d="M180.969 11.366C185.232 13.8272 188.492 17.7116 190.176 22.337C191.86 26.9624 191.86 32.0332 190.177 36.6589L186.242 35.2272C187.588 31.5265 187.588 27.4699 186.24 23.7696C184.893 20.0692 182.286 16.9618 178.875 14.9928L180.969 11.366Z" fill="#FF6B6B"/>
<path d="M154.46 16.0405C157.624 12.2697 162.015 9.73415 166.863 8.87905C171.71 8.02394 176.704 8.90395 180.967 11.3646L178.874 14.9916C175.463 13.0232 171.468 12.3192 167.59 13.0032C163.712 13.6873 160.199 15.7158 157.668 18.7324L154.46 16.0405Z" fill="#1A535C"/>
<path d="M154.46 42.9595C151.295 39.1888 149.561 34.4238 149.561 29.5014C149.56 24.5791 151.294 19.8139 154.458 16.0427L157.666 18.7341C155.135 21.7511 153.748 25.5632 153.749 29.5012C153.749 33.4391 155.136 37.251 157.668 40.2676L154.46 42.9595Z" fill="#FFD100"/>
<path d="M180.97 47.6339C176.707 50.0951 171.713 50.9758 166.866 50.1214C162.018 49.267 157.626 46.7321 154.462 42.9617L157.669 40.2694C160.201 43.2856 163.714 45.3136 167.593 45.9971C171.471 46.6807 175.466 45.9761 178.876 44.0071L180.97 47.6339Z" fill="#4ECDC4"/>
<path d="M125.72 94.16C123.72 94.16 121.947 93.6933 120.4 92.76C118.88 91.8 117.68 90.4933 116.8 88.84C115.92 87.16 115.48 85.24 115.48 83.08C115.48 80.8933 115.947 78.9733 116.88 77.32C117.84 75.64 119.147 74.3333 120.8 73.4C122.453 72.44 124.36 71.96 126.52 71.96C128.653 71.96 130.547 72.44 132.2 73.4C133.853 74.3333 135.147 75.64 136.08 77.32C137.04 78.9733 137.52 80.8933 137.52 83.08H135.16C135.16 85.24 134.747 87.16 133.92 88.84C133.12 90.4933 132.013 91.8 130.6 92.76C129.187 93.6933 127.56 94.16 125.72 94.16ZM126.44 103.08C124.547 103.08 122.773 102.707 121.12 101.96C119.467 101.213 118.067 100.12 116.92 98.68C116.573 98.2267 116.44 97.76 116.52 97.28C116.627 96.8 116.893 96.4133 117.32 96.12C117.8 95.8 118.293 95.6933 118.8 95.8C119.333 95.9067 119.76 96.1733 120.08 96.6C120.8 97.5067 121.707 98.2133 122.8 98.72C123.893 99.2267 125.133 99.48 126.52 99.48C127.8 99.48 128.973 99.1733 130.04 98.56C131.133 97.9467 132 97.04 132.64 95.84C133.28 94.64 133.6 93.1733 133.6 91.44V85.76L134.92 82.24L137.52 83.08V91.72C137.52 93.8267 137.053 95.7333 136.12 97.44C135.187 99.1733 133.88 100.547 132.2 101.56C130.547 102.573 128.627 103.08 126.44 103.08ZM126.52 90.56C127.907 90.56 129.133 90.24 130.2 89.6C131.267 88.96 132.093 88.08 132.68 86.96C133.293 85.84 133.6 84.5467 133.6 83.08C133.6 81.6133 133.293 80.32 132.68 79.2C132.093 78.0533 131.267 77.16 130.2 76.52C129.133 75.88 127.907 75.56 126.52 75.56C125.133 75.56 123.907 75.88 122.84 76.52C121.773 77.16 120.933 78.0533 120.32 79.2C119.707 80.32 119.4 81.6133 119.4 83.08C119.4 84.5467 119.707 85.84 120.32 86.96C120.933 88.08 121.773 88.96 122.84 89.6C123.907 90.24 125.133 90.56 126.52 90.56ZM146.032 94C145.446 94 144.952 93.8133 144.552 93.44C144.179 93.04 143.992 92.5467 143.992 91.96V74.16C143.992 73.5467 144.179 73.0533 144.552 72.68C144.952 72.3067 145.446 72.12 146.032 72.12C146.646 72.12 147.139 72.3067 147.512 72.68C147.886 73.0533 148.072 73.5467 148.072 74.16V91.96C148.072 92.5467 147.886 93.04 147.512 93.44C147.139 93.8133 146.646 94 146.032 94ZM146.032 68.56C145.312 68.56 144.686 68.3067 144.152 67.8C143.646 67.2667 143.392 66.64 143.392 65.92C143.392 65.2 143.646 64.5867 144.152 64.08C144.686 63.5467 145.312 63.28 146.032 63.28C146.752 63.28 147.366 63.5467 147.872 64.08C148.406 64.5867 148.672 65.2 148.672 65.92C148.672 66.64 148.406 67.2667 147.872 67.8C147.366 68.3067 146.752 68.56 146.032 68.56ZM157.623 80.32C157.623 78.72 158.009 77.2933 158.783 76.04C159.583 74.76 160.649 73.7467 161.983 73C163.316 72.2533 164.783 71.88 166.383 71.88C167.983 71.88 169.169 72.1467 169.943 72.68C170.743 73.1867 171.049 73.8 170.863 74.52C170.783 74.8933 170.623 75.1867 170.383 75.4C170.169 75.5867 169.916 75.7067 169.623 75.76C169.329 75.8133 169.009 75.8 168.663 75.72C166.956 75.3733 165.423 75.3467 164.063 75.64C162.703 75.9333 161.623 76.48 160.823 77.28C160.049 78.08 159.663 79.0933 159.663 80.32H157.623ZM157.663 94C157.023 94 156.529 93.84 156.183 93.52C155.836 93.1733 155.663 92.6667 155.663 92V74.12C155.663 73.48 155.836 72.9867 156.183 72.64C156.529 72.2933 157.023 72.12 157.663 72.12C158.329 72.12 158.823 72.2933 159.143 72.64C159.489 72.96 159.663 73.4533 159.663 74.12V92C159.663 92.64 159.489 93.1333 159.143 93.48C158.823 93.8267 158.329 94 157.663 94ZM183.434 94.16C181.274 94.16 179.367 93.6933 177.714 92.76C176.061 91.8 174.754 90.4933 173.794 88.84C172.861 87.16 172.394 85.24 172.394 83.08C172.394 80.8933 172.861 78.9733 173.794 77.32C174.754 75.64 176.061 74.3333 177.714 73.4C179.367 72.44 181.274 71.96 183.434 71.96C185.567 71.96 187.461 72.44 189.114 73.4C190.767 74.3333 192.061 75.64 192.994 77.32C193.954 78.9733 194.434 80.8933 194.434 83.08C194.434 85.24 193.967 87.16 193.034 88.84C192.101 90.4933 190.807 91.8 189.154 92.76C187.501 93.6933 185.594 94.16 183.434 94.16ZM183.434 90.56C184.821 90.56 186.047 90.24 187.114 89.6C188.181 88.96 189.007 88.08 189.594 86.96C190.207 85.84 190.514 84.5467 190.514 83.08C190.514 81.6133 190.207 80.32 189.594 79.2C189.007 78.0533 188.181 77.16 187.114 76.52C186.047 75.88 184.821 75.56 183.434 75.56C182.047 75.56 180.821 75.88 179.754 76.52C178.687 77.16 177.847 78.0533 177.234 79.2C176.621 80.32 176.314 81.6133 176.314 83.08C176.314 84.5467 176.621 85.84 177.234 86.96C177.847 88.08 178.687 88.96 179.754 89.6C180.821 90.24 182.047 90.56 183.434 90.56ZM219.426 103.36C218.813 103.36 218.306 103.16 217.906 102.76C217.533 102.387 217.346 101.907 217.346 101.32V90.52C216.44 91.64 215.32 92.5333 213.986 93.2C212.653 93.84 211.2 94.16 209.626 94.16C207.68 94.16 205.933 93.68 204.386 92.72C202.84 91.7333 201.613 90.4133 200.706 88.76C199.826 87.08 199.386 85.1867 199.386 83.08C199.386 80.9733 199.866 79.08 200.826 77.4C201.813 75.72 203.133 74.4 204.786 73.44C206.466 72.4533 208.346 71.96 210.426 71.96C212.506 71.96 214.373 72.4533 216.026 73.44C217.68 74.4 218.986 75.72 219.946 77.4C220.933 79.08 221.426 80.9733 221.426 83.08V101.32C221.426 101.907 221.24 102.387 220.866 102.76C220.493 103.16 220.013 103.36 219.426 103.36ZM210.426 90.56C211.786 90.56 213 90.24 214.066 89.6C215.133 88.9333 215.973 88.04 216.586 86.92C217.2 85.7733 217.506 84.4933 217.506 83.08C217.506 81.64 217.2 80.36 216.586 79.24C215.973 78.0933 215.133 77.2 214.066 76.56C213 75.8933 211.786 75.56 210.426 75.56C209.093 75.56 207.88 75.8933 206.786 76.56C205.72 77.2 204.866 78.0933 204.226 79.24C203.613 80.36 203.306 81.64 203.306 83.08C203.306 84.4933 203.613 85.7733 204.226 86.92C204.866 88.04 205.72 88.9333 206.786 89.6C207.88 90.24 209.093 90.56 210.426 90.56Z" fill="#717171"/>
<path d="M76.5026 130C76.3533 130 76.2226 129.949 76.1106 129.846C76.008 129.743 75.9566 129.613 75.9566 129.454V119.612C75.9566 119.463 76.008 119.337 76.1106 119.234C76.2226 119.122 76.3533 119.066 76.5026 119.066C76.652 119.066 76.778 119.122 76.8806 119.234C76.9926 119.337 77.0486 119.463 77.0486 119.612V128.964H82.5226C82.672 128.964 82.798 129.015 82.9006 129.118C83.0126 129.211 83.0686 129.333 83.0686 129.482C83.0686 129.631 83.0126 129.757 82.9006 129.86C82.798 129.953 82.672 130 82.5226 130H76.5026ZM88.05 130.07C87.3313 130.07 86.6873 129.902 86.118 129.566C85.5487 129.221 85.096 128.754 84.76 128.166C84.4333 127.578 84.27 126.915 84.27 126.178C84.27 125.431 84.438 124.764 84.774 124.176C85.1193 123.588 85.586 123.126 86.174 122.79C86.762 122.445 87.4247 122.272 88.162 122.272C88.8993 122.272 89.5573 122.445 90.136 122.79C90.724 123.126 91.186 123.588 91.522 124.176C91.8673 124.764 92.0447 125.431 92.054 126.178L91.62 126.514C91.62 127.186 91.4613 127.793 91.144 128.334C90.836 128.866 90.4113 129.291 89.87 129.608C89.338 129.916 88.7313 130.07 88.05 130.07ZM88.162 129.09C88.7033 129.09 89.184 128.964 89.604 128.712C90.0333 128.46 90.3693 128.115 90.612 127.676C90.864 127.228 90.99 126.729 90.99 126.178C90.99 125.618 90.864 125.119 90.612 124.68C90.3693 124.241 90.0333 123.896 89.604 123.644C89.184 123.383 88.7033 123.252 88.162 123.252C87.63 123.252 87.1493 123.383 86.72 123.644C86.2907 123.896 85.95 124.241 85.698 124.68C85.446 125.119 85.32 125.618 85.32 126.178C85.32 126.729 85.446 127.228 85.698 127.676C85.95 128.115 86.2907 128.46 86.72 128.712C87.1493 128.964 87.63 129.09 88.162 129.09ZM91.508 130C91.3493 130 91.2187 129.953 91.116 129.86C91.0133 129.757 90.962 129.627 90.962 129.468V127.074L91.228 125.968L92.054 126.178V129.468C92.054 129.627 92.0027 129.757 91.9 129.86C91.7973 129.953 91.6667 130 91.508 130ZM108.598 130C108.44 130 108.309 129.953 108.206 129.86C108.104 129.757 108.052 129.627 108.052 129.468V125.436C108.052 124.773 107.88 124.251 107.534 123.868C107.189 123.476 106.746 123.28 106.204 123.28C105.626 123.28 105.15 123.476 104.776 123.868C104.412 124.251 104.235 124.764 104.244 125.408H103.278C103.288 124.783 103.423 124.232 103.684 123.756C103.946 123.28 104.305 122.911 104.762 122.65C105.22 122.389 105.738 122.258 106.316 122.258C106.867 122.258 107.352 122.389 107.772 122.65C108.202 122.911 108.533 123.28 108.766 123.756C109.009 124.232 109.13 124.792 109.13 125.436V129.468C109.13 129.627 109.079 129.757 108.976 129.86C108.883 129.953 108.757 130 108.598 130ZM98.7982 130C98.6302 130 98.4949 129.953 98.3922 129.86C98.2989 129.757 98.2522 129.627 98.2522 129.468V122.888C98.2522 122.729 98.2989 122.599 98.3922 122.496C98.4949 122.393 98.6302 122.342 98.7982 122.342C98.9569 122.342 99.0829 122.393 99.1762 122.496C99.2789 122.599 99.3302 122.729 99.3302 122.888V129.468C99.3302 129.627 99.2789 129.757 99.1762 129.86C99.0829 129.953 98.9569 130 98.7982 130ZM103.712 130C103.554 130 103.423 129.953 103.32 129.86C103.218 129.757 103.166 129.627 103.166 129.468V125.436C103.166 124.773 102.994 124.251 102.648 123.868C102.303 123.476 101.86 123.28 101.318 123.28C100.74 123.28 100.264 123.471 99.8902 123.854C99.5169 124.227 99.3302 124.717 99.3302 125.324H98.5602C98.5789 124.727 98.7095 124.199 98.9522 123.742C99.2042 123.275 99.5449 122.911 99.9742 122.65C100.404 122.389 100.889 122.258 101.43 122.258C101.981 122.258 102.466 122.389 102.886 122.65C103.316 122.911 103.647 123.28 103.88 123.756C104.123 124.232 104.244 124.792 104.244 125.436V129.468C104.244 129.627 104.193 129.757 104.09 129.86C103.997 129.953 103.871 130 103.712 130ZM114.888 130.07C114.169 130.07 113.525 129.902 112.956 129.566C112.387 129.221 111.934 128.754 111.598 128.166C111.271 127.578 111.108 126.915 111.108 126.178C111.108 125.431 111.276 124.764 111.612 124.176C111.957 123.588 112.424 123.126 113.012 122.79C113.6 122.445 114.263 122.272 115 122.272C115.737 122.272 116.395 122.445 116.974 122.79C117.562 123.126 118.024 123.588 118.36 124.176C118.705 124.764 118.883 125.431 118.892 126.178L118.458 126.514C118.458 127.186 118.299 127.793 117.982 128.334C117.674 128.866 117.249 129.291 116.708 129.608C116.176 129.916 115.569 130.07 114.888 130.07ZM115 129.09C115.541 129.09 116.022 128.964 116.442 128.712C116.871 128.46 117.207 128.115 117.45 127.676C117.702 127.228 117.828 126.729 117.828 126.178C117.828 125.618 117.702 125.119 117.45 124.68C117.207 124.241 116.871 123.896 116.442 123.644C116.022 123.383 115.541 123.252 115 123.252C114.468 123.252 113.987 123.383 113.558 123.644C113.129 123.896 112.788 124.241 112.536 124.68C112.284 125.119 112.158 125.618 112.158 126.178C112.158 126.729 112.284 127.228 112.536 127.676C112.788 128.115 113.129 128.46 113.558 128.712C113.987 128.964 114.468 129.09 115 129.09ZM118.346 130C118.187 130 118.057 129.953 117.954 129.86C117.851 129.757 117.8 129.627 117.8 129.468V127.074L118.066 125.968L118.892 126.178V129.468C118.892 129.627 118.841 129.757 118.738 129.86C118.635 129.953 118.505 130 118.346 130ZM121.535 133.276C121.367 133.276 121.231 133.225 121.129 133.122C121.035 133.029 120.989 132.898 120.989 132.73V126.122C120.998 125.394 121.171 124.741 121.507 124.162C121.852 123.574 122.314 123.112 122.893 122.776C123.481 122.44 124.139 122.272 124.867 122.272C125.613 122.272 126.281 122.445 126.869 122.79C127.457 123.126 127.919 123.588 128.255 124.176C128.6 124.764 128.773 125.431 128.773 126.178C128.773 126.915 128.605 127.578 128.269 128.166C127.942 128.754 127.494 129.221 126.925 129.566C126.355 129.902 125.711 130.07 124.993 130.07C124.367 130.07 123.798 129.939 123.285 129.678C122.781 129.407 122.375 129.053 122.067 128.614V132.73C122.067 132.898 122.015 133.029 121.913 133.122C121.819 133.225 121.693 133.276 121.535 133.276ZM124.867 129.09C125.408 129.09 125.893 128.964 126.323 128.712C126.752 128.46 127.088 128.115 127.331 127.676C127.583 127.228 127.709 126.729 127.709 126.178C127.709 125.618 127.583 125.119 127.331 124.68C127.088 124.241 126.752 123.896 126.323 123.644C125.893 123.383 125.408 123.252 124.867 123.252C124.335 123.252 123.854 123.383 123.425 123.644C122.995 123.896 122.659 124.241 122.417 124.68C122.174 125.119 122.053 125.618 122.053 126.178C122.053 126.729 122.174 127.228 122.417 127.676C122.659 128.115 122.995 128.46 123.425 128.712C123.854 128.964 124.335 129.09 124.867 129.09ZM131.433 133.276C131.265 133.276 131.13 133.225 131.027 133.122C130.934 133.029 130.887 132.898 130.887 132.73V126.122C130.896 125.394 131.069 124.741 131.405 124.162C131.75 123.574 132.212 123.112 132.791 122.776C133.379 122.44 134.037 122.272 134.765 122.272C135.512 122.272 136.179 122.445 136.767 122.79C137.355 123.126 137.817 123.588 138.153 124.176C138.498 124.764 138.671 125.431 138.671 126.178C138.671 126.915 138.503 127.578 138.167 128.166C137.84 128.754 137.392 129.221 136.823 129.566C136.254 129.902 135.61 130.07 134.891 130.07C134.266 130.07 133.696 129.939 133.183 129.678C132.679 129.407 132.273 129.053 131.965 128.614V132.73C131.965 132.898 131.914 133.029 131.811 133.122C131.718 133.225 131.592 133.276 131.433 133.276ZM134.765 129.09C135.306 129.09 135.792 128.964 136.221 128.712C136.65 128.46 136.986 128.115 137.229 127.676C137.481 127.228 137.607 126.729 137.607 126.178C137.607 125.618 137.481 125.119 137.229 124.68C136.986 124.241 136.65 123.896 136.221 123.644C135.792 123.383 135.306 123.252 134.765 123.252C134.233 123.252 133.752 123.383 133.323 123.644C132.894 123.896 132.558 124.241 132.315 124.68C132.072 125.119 131.951 125.618 131.951 126.178C131.951 126.729 132.072 127.228 132.315 127.676C132.558 128.115 132.894 128.46 133.323 128.712C133.752 128.964 134.233 129.09 134.765 129.09ZM144.159 130.07C143.441 130.07 142.797 129.902 142.227 129.566C141.658 129.221 141.205 128.754 140.869 128.166C140.543 127.578 140.379 126.915 140.379 126.178C140.379 125.431 140.547 124.764 140.883 124.176C141.229 123.588 141.695 123.126 142.283 122.79C142.871 122.445 143.534 122.272 144.271 122.272C145.009 122.272 145.667 122.445 146.245 122.79C146.833 123.126 147.295 123.588 147.631 124.176C147.977 124.764 148.154 125.431 148.163 126.178L147.729 126.514C147.729 127.186 147.571 127.793 147.253 128.334C146.945 128.866 146.521 129.291 145.979 129.608C145.447 129.916 144.841 130.07 144.159 130.07ZM144.271 129.09C144.813 129.09 145.293 128.964 145.713 128.712C146.143 128.46 146.479 128.115 146.721 127.676C146.973 127.228 147.099 126.729 147.099 126.178C147.099 125.618 146.973 125.119 146.721 124.68C146.479 124.241 146.143 123.896 145.713 123.644C145.293 123.383 144.813 123.252 144.271 123.252C143.739 123.252 143.259 123.383 142.829 123.644C142.4 123.896 142.059 124.241 141.807 124.68C141.555 125.119 141.429 125.618 141.429 126.178C141.429 126.729 141.555 127.228 141.807 127.676C142.059 128.115 142.4 128.46 142.829 128.712C143.259 128.964 143.739 129.09 144.271 129.09ZM147.617 130C147.459 130 147.328 129.953 147.225 129.86C147.123 129.757 147.071 129.627 147.071 129.468V127.074L147.337 125.968L148.163 126.178V129.468C148.163 129.627 148.112 129.757 148.009 129.86C147.907 129.953 147.776 130 147.617 130ZM157.848 130.07C157.11 130.07 156.448 129.902 155.86 129.566C155.272 129.221 154.805 128.754 154.46 128.166C154.124 127.578 153.956 126.911 153.956 126.164C153.956 125.427 154.119 124.764 154.446 124.176C154.782 123.588 155.234 123.126 155.804 122.79C156.373 122.445 157.017 122.272 157.736 122.272C158.361 122.272 158.926 122.407 159.43 122.678C159.934 122.939 160.34 123.289 160.648 123.728V119.612C160.648 119.444 160.699 119.313 160.802 119.22C160.904 119.117 161.035 119.066 161.194 119.066C161.352 119.066 161.483 119.117 161.586 119.22C161.688 119.313 161.74 119.444 161.74 119.612V126.22C161.721 126.948 161.539 127.606 161.194 128.194C160.858 128.773 160.396 129.23 159.808 129.566C159.229 129.902 158.576 130.07 157.848 130.07ZM157.848 129.09C158.389 129.09 158.87 128.964 159.29 128.712C159.719 128.451 160.055 128.101 160.298 127.662C160.55 127.223 160.676 126.724 160.676 126.164C160.676 125.613 160.55 125.119 160.298 124.68C160.055 124.232 159.719 123.882 159.29 123.63C158.87 123.378 158.389 123.252 157.848 123.252C157.316 123.252 156.835 123.378 156.406 123.63C155.976 123.882 155.636 124.232 155.384 124.68C155.132 125.119 155.006 125.613 155.006 126.164C155.006 126.724 155.132 127.223 155.384 127.662C155.636 128.101 155.976 128.451 156.406 128.712C156.835 128.964 157.316 129.09 157.848 129.09ZM167.732 130.07C166.976 130.07 166.304 129.907 165.716 129.58C165.137 129.244 164.68 128.782 164.344 128.194C164.017 127.606 163.854 126.934 163.854 126.178C163.854 125.413 164.008 124.741 164.316 124.162C164.633 123.574 165.067 123.112 165.618 122.776C166.169 122.44 166.803 122.272 167.522 122.272C168.231 122.272 168.847 122.435 169.37 122.762C169.902 123.079 170.313 123.523 170.602 124.092C170.891 124.661 171.036 125.31 171.036 126.038C171.036 126.187 170.989 126.309 170.896 126.402C170.803 126.486 170.681 126.528 170.532 126.528H164.582V125.632H170.644L170.042 126.066C170.051 125.525 169.953 125.039 169.748 124.61C169.543 124.181 169.249 123.845 168.866 123.602C168.493 123.359 168.045 123.238 167.522 123.238C166.99 123.238 166.523 123.364 166.122 123.616C165.721 123.868 165.408 124.218 165.184 124.666C164.969 125.105 164.862 125.609 164.862 126.178C164.862 126.747 164.983 127.251 165.226 127.69C165.478 128.129 165.819 128.474 166.248 128.726C166.677 128.978 167.172 129.104 167.732 129.104C168.068 129.104 168.404 129.048 168.74 128.936C169.085 128.815 169.361 128.665 169.566 128.488C169.669 128.404 169.785 128.362 169.916 128.362C170.047 128.353 170.159 128.385 170.252 128.46C170.373 128.572 170.434 128.693 170.434 128.824C170.443 128.955 170.392 129.067 170.28 129.16C169.972 129.421 169.58 129.641 169.104 129.818C168.628 129.986 168.171 130.07 167.732 130.07ZM174.512 130C174.138 130 173.802 129.897 173.504 129.692C173.214 129.487 172.986 129.202 172.818 128.838C172.659 128.474 172.58 128.054 172.58 127.578V119.598C172.58 119.439 172.626 119.313 172.72 119.22C172.822 119.117 172.953 119.066 173.112 119.066C173.27 119.066 173.396 119.117 173.49 119.22C173.592 119.313 173.644 119.439 173.644 119.598V127.578C173.644 127.979 173.723 128.306 173.882 128.558C174.05 128.81 174.26 128.936 174.512 128.936H174.862C175.002 128.936 175.114 128.987 175.198 129.09C175.282 129.183 175.324 129.309 175.324 129.468C175.324 129.627 175.263 129.757 175.142 129.86C175.03 129.953 174.88 130 174.694 130H174.512ZM183.908 130C183.414 130 182.97 129.883 182.578 129.65C182.196 129.417 181.892 129.099 181.668 128.698C181.444 128.287 181.332 127.821 181.332 127.298V120.452C181.332 120.293 181.379 120.163 181.472 120.06C181.575 119.957 181.706 119.906 181.864 119.906C182.023 119.906 182.154 119.957 182.256 120.06C182.359 120.163 182.41 120.293 182.41 120.452V127.298C182.41 127.774 182.55 128.166 182.83 128.474C183.11 128.773 183.47 128.922 183.908 128.922H184.286C184.436 128.922 184.557 128.973 184.65 129.076C184.744 129.179 184.79 129.309 184.79 129.468C184.79 129.627 184.734 129.757 184.622 129.86C184.51 129.953 184.37 130 184.202 130H183.908ZM180.422 123.56C180.282 123.56 180.166 123.518 180.072 123.434C179.979 123.341 179.932 123.229 179.932 123.098C179.932 122.958 179.979 122.846 180.072 122.762C180.166 122.669 180.282 122.622 180.422 122.622H183.992C184.132 122.622 184.249 122.669 184.342 122.762C184.436 122.846 184.482 122.958 184.482 123.098C184.482 123.229 184.436 123.341 184.342 123.434C184.249 123.518 184.132 123.56 183.992 123.56H180.422ZM190.017 130.07C189.261 130.07 188.589 129.907 188.001 129.58C187.422 129.244 186.965 128.782 186.629 128.194C186.302 127.606 186.139 126.934 186.139 126.178C186.139 125.413 186.293 124.741 186.601 124.162C186.918 123.574 187.352 123.112 187.903 122.776C188.454 122.44 189.088 122.272 189.807 122.272C190.516 122.272 191.132 122.435 191.655 122.762C192.187 123.079 192.598 123.523 192.887 124.092C193.176 124.661 193.321 125.31 193.321 126.038C193.321 126.187 193.274 126.309 193.181 126.402C193.088 126.486 192.966 126.528 192.817 126.528H186.867V125.632H192.929L192.327 126.066C192.336 125.525 192.238 125.039 192.033 124.61C191.828 124.181 191.534 123.845 191.151 123.602C190.778 123.359 190.33 123.238 189.807 123.238C189.275 123.238 188.808 123.364 188.407 123.616C188.006 123.868 187.693 124.218 187.469 124.666C187.254 125.105 187.147 125.609 187.147 126.178C187.147 126.747 187.268 127.251 187.511 127.69C187.763 128.129 188.104 128.474 188.533 128.726C188.962 128.978 189.457 129.104 190.017 129.104C190.353 129.104 190.689 129.048 191.025 128.936C191.37 128.815 191.646 128.665 191.851 128.488C191.954 128.404 192.07 128.362 192.201 128.362C192.332 128.353 192.444 128.385 192.537 128.46C192.658 128.572 192.719 128.693 192.719 128.824C192.728 128.955 192.677 129.067 192.565 129.16C192.257 129.421 191.865 129.641 191.389 129.818C190.913 129.986 190.456 130.07 190.017 130.07ZM205.491 130C205.332 130 205.201 129.953 205.099 129.86C204.996 129.757 204.945 129.627 204.945 129.468V125.436C204.945 124.773 204.772 124.251 204.427 123.868C204.081 123.476 203.638 123.28 203.097 123.28C202.518 123.28 202.042 123.476 201.669 123.868C201.305 124.251 201.127 124.764 201.137 125.408H200.171C200.18 124.783 200.315 124.232 200.577 123.756C200.838 123.28 201.197 122.911 201.655 122.65C202.112 122.389 202.63 122.258 203.209 122.258C203.759 122.258 204.245 122.389 204.665 122.65C205.094 122.911 205.425 123.28 205.659 123.756C205.901 124.232 206.023 124.792 206.023 125.436V129.468C206.023 129.627 205.971 129.757 205.869 129.86C205.775 129.953 205.649 130 205.491 130ZM195.691 130C195.523 130 195.387 129.953 195.285 129.86C195.191 129.757 195.145 129.627 195.145 129.468V122.888C195.145 122.729 195.191 122.599 195.285 122.496C195.387 122.393 195.523 122.342 195.691 122.342C195.849 122.342 195.975 122.393 196.069 122.496C196.171 122.599 196.223 122.729 196.223 122.888V129.468C196.223 129.627 196.171 129.757 196.069 129.86C195.975 129.953 195.849 130 195.691 130ZM200.605 130C200.446 130 200.315 129.953 200.213 129.86C200.11 129.757 200.059 129.627 200.059 129.468V125.436C200.059 124.773 199.886 124.251 199.541 123.868C199.195 123.476 198.752 123.28 198.211 123.28C197.632 123.28 197.156 123.471 196.783 123.854C196.409 124.227 196.223 124.717 196.223 125.324H195.453C195.471 124.727 195.602 124.199 195.845 123.742C196.097 123.275 196.437 122.911 196.867 122.65C197.296 122.389 197.781 122.258 198.323 122.258C198.873 122.258 199.359 122.389 199.779 122.65C200.208 122.911 200.539 123.28 200.773 123.756C201.015 124.232 201.137 124.792 201.137 125.436V129.468C201.137 129.627 201.085 129.757 200.983 129.86C200.889 129.953 200.763 130 200.605 130ZM208.952 133.276C208.784 133.276 208.649 133.225 208.546 133.122C208.453 133.029 208.406 132.898 208.406 132.73V126.122C208.416 125.394 208.588 124.741 208.924 124.162C209.27 123.574 209.732 123.112 210.31 122.776C210.898 122.44 211.556 122.272 212.284 122.272C213.031 122.272 213.698 122.445 214.286 122.79C214.874 123.126 215.336 123.588 215.672 124.176C216.018 124.764 216.19 125.431 216.19 126.178C216.19 126.915 216.022 127.578 215.686 128.166C215.36 128.754 214.912 129.221 214.342 129.566C213.773 129.902 213.129 130.07 212.41 130.07C211.785 130.07 211.216 129.939 210.702 129.678C210.198 129.407 209.792 129.053 209.484 128.614V132.73C209.484 132.898 209.433 133.029 209.33 133.122C209.237 133.225 209.111 133.276 208.952 133.276ZM212.284 129.09C212.826 129.09 213.311 128.964 213.74 128.712C214.17 128.46 214.506 128.115 214.748 127.676C215 127.228 215.126 126.729 215.126 126.178C215.126 125.618 215 125.119 214.748 124.68C214.506 124.241 214.17 123.896 213.74 123.644C213.311 123.383 212.826 123.252 212.284 123.252C211.752 123.252 211.272 123.383 210.842 123.644C210.413 123.896 210.077 124.241 209.834 124.68C209.592 125.119 209.47 125.618 209.47 126.178C209.47 126.729 209.592 127.228 209.834 127.676C210.077 128.115 210.413 128.46 210.842 128.712C211.272 128.964 211.752 129.09 212.284 129.09ZM221.791 130.07C221.044 130.07 220.377 129.902 219.789 129.566C219.201 129.23 218.739 128.768 218.403 128.18C218.067 127.592 217.899 126.925 217.899 126.178C217.899 125.422 218.067 124.75 218.403 124.162C218.739 123.574 219.201 123.112 219.789 122.776C220.377 122.44 221.044 122.272 221.791 122.272C222.538 122.272 223.2 122.44 223.779 122.776C224.367 123.112 224.829 123.574 225.165 124.162C225.501 124.75 225.674 125.422 225.683 126.178C225.683 126.925 225.51 127.592 225.165 128.18C224.829 128.768 224.367 129.23 223.779 129.566C223.2 129.902 222.538 130.07 221.791 130.07ZM221.791 129.09C222.332 129.09 222.818 128.964 223.247 128.712C223.676 128.46 224.012 128.115 224.255 127.676C224.498 127.237 224.619 126.738 224.619 126.178C224.619 125.618 224.498 125.119 224.255 124.68C224.012 124.232 223.676 123.882 223.247 123.63C222.818 123.378 222.332 123.252 221.791 123.252C221.25 123.252 220.764 123.378 220.335 123.63C219.906 123.882 219.565 124.232 219.313 124.68C219.07 125.119 218.949 125.618 218.949 126.178C218.949 126.738 219.07 127.237 219.313 127.676C219.565 128.115 219.906 128.46 220.335 128.712C220.764 128.964 221.25 129.09 221.791 129.09ZM233.533 130C233.16 130 232.824 129.897 232.525 129.692C232.236 129.487 232.007 129.202 231.839 128.838C231.68 128.474 231.601 128.054 231.601 127.578V119.598C231.601 119.439 231.648 119.313 231.741 119.22C231.844 119.117 231.974 119.066 232.133 119.066C232.292 119.066 232.418 119.117 232.511 119.22C232.614 119.313 232.665 119.439 232.665 119.598V127.578C232.665 127.979 232.744 128.306 232.903 128.558C233.071 128.81 233.281 128.936 233.533 128.936H233.883C234.023 128.936 234.135 128.987 234.219 129.09C234.303 129.183 234.345 129.309 234.345 129.468C234.345 129.627 234.284 129.757 234.163 129.86C234.051 129.953 233.902 130 233.715 130H233.533ZM236.602 130C236.434 130 236.299 129.953 236.196 129.86C236.103 129.757 236.056 129.622 236.056 129.454V122.888C236.056 122.72 236.103 122.589 236.196 122.496C236.299 122.393 236.434 122.342 236.602 122.342C236.761 122.342 236.887 122.393 236.98 122.496C237.083 122.589 237.134 122.72 237.134 122.888V129.454C237.134 129.622 237.083 129.757 236.98 129.86C236.887 129.953 236.761 130 236.602 130ZM236.588 120.886C236.383 120.886 236.206 120.811 236.056 120.662C235.907 120.513 235.832 120.331 235.832 120.116C235.832 119.883 235.907 119.701 236.056 119.57C236.215 119.43 236.397 119.36 236.602 119.36C236.798 119.36 236.971 119.43 237.12 119.57C237.279 119.701 237.358 119.883 237.358 120.116C237.358 120.331 237.284 120.513 237.134 120.662C236.985 120.811 236.803 120.886 236.588 120.886ZM243.757 130.07C243.029 130.07 242.371 129.902 241.783 129.566C241.204 129.23 240.742 128.773 240.397 128.194C240.061 127.606 239.888 126.948 239.879 126.22V119.612C239.879 119.444 239.926 119.313 240.019 119.22C240.122 119.117 240.257 119.066 240.425 119.066C240.584 119.066 240.71 119.117 240.803 119.22C240.906 119.313 240.957 119.444 240.957 119.612V123.728C241.265 123.289 241.671 122.939 242.175 122.678C242.688 122.407 243.258 122.272 243.883 122.272C244.602 122.272 245.246 122.445 245.815 122.79C246.384 123.126 246.832 123.588 247.159 124.176C247.495 124.764 247.663 125.427 247.663 126.164C247.663 126.911 247.49 127.578 247.145 128.166C246.809 128.754 246.347 129.221 245.759 129.566C245.171 129.902 244.504 130.07 243.757 130.07ZM243.757 129.09C244.298 129.09 244.784 128.964 245.213 128.712C245.642 128.451 245.978 128.101 246.221 127.662C246.473 127.223 246.599 126.724 246.599 126.164C246.599 125.613 246.473 125.119 246.221 124.68C245.978 124.232 245.642 123.882 245.213 123.63C244.784 123.378 244.298 123.252 243.757 123.252C243.225 123.252 242.744 123.378 242.315 123.63C241.886 123.882 241.55 124.232 241.307 124.68C241.064 125.119 240.943 125.613 240.943 126.164C240.943 126.724 241.064 127.223 241.307 127.662C241.55 128.101 241.886 128.451 242.315 128.712C242.744 128.964 243.225 129.09 243.757 129.09ZM253.25 130.07C252.494 130.07 251.822 129.907 251.234 129.58C250.655 129.244 250.198 128.782 249.862 128.194C249.535 127.606 249.372 126.934 249.372 126.178C249.372 125.413 249.526 124.741 249.834 124.162C250.151 123.574 250.585 123.112 251.136 122.776C251.686 122.44 252.321 122.272 253.04 122.272C253.749 122.272 254.365 122.435 254.888 122.762C255.42 123.079 255.83 123.523 256.12 124.092C256.409 124.661 256.554 125.31 256.554 126.038C256.554 126.187 256.507 126.309 256.414 126.402C256.32 126.486 256.199 126.528 256.05 126.528H250.1V125.632H256.162L255.56 126.066C255.569 125.525 255.471 125.039 255.266 124.61C255.06 124.181 254.766 123.845 254.384 123.602C254.01 123.359 253.562 123.238 253.04 123.238C252.508 123.238 252.041 123.364 251.64 123.616C251.238 123.868 250.926 124.218 250.702 124.666C250.487 125.105 250.38 125.609 250.38 126.178C250.38 126.747 250.501 127.251 250.744 127.69C250.996 128.129 251.336 128.474 251.766 128.726C252.195 128.978 252.69 129.104 253.25 129.104C253.586 129.104 253.922 129.048 254.258 128.936C254.603 128.815 254.878 128.665 255.084 128.488C255.186 128.404 255.303 128.362 255.434 128.362C255.564 128.353 255.676 128.385 255.77 128.46C255.891 128.572 255.952 128.693 255.952 128.824C255.961 128.955 255.91 129.067 255.798 129.16C255.49 129.421 255.098 129.641 254.622 129.818C254.146 129.986 253.688 130.07 253.25 130.07ZM258.825 125.282C258.853 124.703 259.003 124.185 259.273 123.728C259.553 123.271 259.913 122.911 260.351 122.65C260.799 122.389 261.294 122.258 261.835 122.258C262.265 122.258 262.596 122.319 262.829 122.44C263.063 122.561 263.151 122.739 263.095 122.972C263.058 123.112 262.993 123.205 262.899 123.252C262.815 123.299 262.708 123.317 262.577 123.308C262.456 123.299 262.316 123.289 262.157 123.28C261.635 123.233 261.168 123.289 260.757 123.448C260.356 123.597 260.034 123.831 259.791 124.148C259.558 124.465 259.441 124.843 259.441 125.282H258.825ZM258.909 130C258.741 130 258.611 129.953 258.517 129.86C258.424 129.767 258.377 129.636 258.377 129.468V122.874C258.377 122.706 258.424 122.575 258.517 122.482C258.611 122.389 258.741 122.342 258.909 122.342C259.077 122.342 259.208 122.389 259.301 122.482C259.395 122.575 259.441 122.706 259.441 122.874V129.468C259.441 129.636 259.395 129.767 259.301 129.86C259.208 129.953 259.077 130 258.909 130ZM267.715 130.07C266.968 130.07 266.301 129.902 265.713 129.566C265.125 129.23 264.663 128.768 264.327 128.18C263.991 127.592 263.823 126.925 263.823 126.178C263.823 125.422 263.991 124.75 264.327 124.162C264.663 123.574 265.125 123.112 265.713 122.776C266.301 122.44 266.968 122.272 267.715 122.272C268.461 122.272 269.124 122.44 269.703 122.776C270.291 123.112 270.753 123.574 271.089 124.162C271.425 124.75 271.597 125.422 271.607 126.178C271.607 126.925 271.434 127.592 271.089 128.18C270.753 128.768 270.291 129.23 269.703 129.566C269.124 129.902 268.461 130.07 267.715 130.07ZM267.715 129.09C268.256 129.09 268.741 128.964 269.171 128.712C269.6 128.46 269.936 128.115 270.179 127.676C270.421 127.237 270.543 126.738 270.543 126.178C270.543 125.618 270.421 125.119 270.179 124.68C269.936 124.232 269.6 123.882 269.171 123.63C268.741 123.378 268.256 123.252 267.715 123.252C267.173 123.252 266.688 123.378 266.259 123.63C265.829 123.882 265.489 124.232 265.237 124.68C264.994 125.119 264.873 125.618 264.873 126.178C264.873 126.738 264.994 127.237 265.237 127.676C265.489 128.115 265.829 128.46 266.259 128.712C266.688 128.964 267.173 129.09 267.715 129.09Z" fill="#717171"/>
</svg>
