<svg width="237" height="77" viewBox="0 0 237 77" fill="none" xmlns="http://www.w3.org/2000/svg">
<circle r="1.71374" transform="matrix(0.707107 0.707107 0.707107 -0.707107 174.71 41.2904)" fill="#FF6B6B"/>
<circle r="1.71374" transform="matrix(0.707107 0.707107 0.707107 -0.707107 171.271 37.8511)" fill="#1A535C"/>
<circle r="1.71374" transform="matrix(0.707107 0.707107 0.707107 -0.707107 164.392 30.9726)" fill="#4ECDC4"/>
<circle r="1.71374" transform="matrix(0.707107 0.707107 0.707107 -0.707107 167.831 34.4118)" fill="#FFD100"/>
<path d="M165.872 9.63221C169.485 11.718 172.247 15.0098 173.674 18.9296C175.101 22.8495 175.102 27.1467 173.676 31.0669L170.34 29.8535C171.481 26.7174 171.481 23.2796 170.339 20.1437C169.198 17.0078 166.988 14.3744 164.098 12.7058L165.872 9.63221Z" fill="#FF6B6B"/>
<path d="M143.407 13.5936C146.088 10.398 149.81 8.24928 153.918 7.52461C158.026 6.79995 162.258 7.54572 165.871 9.63098L164.097 12.7048C161.206 11.0366 157.821 10.44 154.534 11.0197C151.248 11.5994 148.271 13.3184 146.125 15.8749L143.407 13.5936Z" fill="#1A535C"/>
<path d="M143.406 36.4064C140.725 33.2108 139.255 29.1727 139.255 25.0012C139.255 20.8297 140.724 16.7914 143.405 13.5955L146.124 15.8764C143.979 18.4331 142.804 21.6638 142.804 25.001C142.804 28.3382 143.98 31.5686 146.125 34.1251L143.406 36.4064Z" fill="#FFD100"/>
<path d="M165.873 40.3678C162.26 42.4535 158.028 43.1999 153.92 42.4758C149.812 41.7517 146.09 39.6034 143.408 36.4083L146.126 34.1266C148.272 36.6828 151.249 38.4014 154.536 38.9806C157.822 39.5599 161.208 38.9628 164.098 37.2942L165.873 40.3678Z" fill="#4ECDC4"/>
<path d="M68.72 42.16C66.72 42.16 64.9467 41.6933 63.4 40.76C61.88 39.8 60.68 38.4933 59.8 36.84C58.92 35.16 58.48 33.24 58.48 31.08C58.48 28.8933 58.9467 26.9733 59.88 25.32C60.84 23.64 62.1467 22.3333 63.8 21.4C65.4533 20.44 67.36 19.96 69.52 19.96C71.6533 19.96 73.5467 20.44 75.2 21.4C76.8533 22.3333 78.1467 23.64 79.08 25.32C80.04 26.9733 80.52 28.8933 80.52 31.08H78.16C78.16 33.24 77.7467 35.16 76.92 36.84C76.12 38.4933 75.0133 39.8 73.6 40.76C72.1867 41.6933 70.56 42.16 68.72 42.16ZM69.44 51.08C67.5467 51.08 65.7733 50.7067 64.12 49.96C62.4667 49.2133 61.0667 48.12 59.92 46.68C59.5733 46.2267 59.44 45.76 59.52 45.28C59.6267 44.8 59.8933 44.4133 60.32 44.12C60.8 43.8 61.2933 43.6933 61.8 43.8C62.3333 43.9067 62.76 44.1733 63.08 44.6C63.8 45.5067 64.7067 46.2133 65.8 46.72C66.8933 47.2267 68.1333 47.48 69.52 47.48C70.8 47.48 71.9733 47.1733 73.04 46.56C74.1333 45.9467 75 45.04 75.64 43.84C76.28 42.64 76.6 41.1733 76.6 39.44V33.76L77.92 30.24L80.52 31.08V39.72C80.52 41.8267 80.0533 43.7333 79.12 45.44C78.1867 47.1733 76.88 48.5467 75.2 49.56C73.5467 50.5733 71.6267 51.08 69.44 51.08ZM69.52 38.56C70.9067 38.56 72.1333 38.24 73.2 37.6C74.2667 36.96 75.0933 36.08 75.68 34.96C76.2933 33.84 76.6 32.5467 76.6 31.08C76.6 29.6133 76.2933 28.32 75.68 27.2C75.0933 26.0533 74.2667 25.16 73.2 24.52C72.1333 23.88 70.9067 23.56 69.52 23.56C68.1333 23.56 66.9067 23.88 65.84 24.52C64.7733 25.16 63.9333 26.0533 63.32 27.2C62.7067 28.32 62.4 29.6133 62.4 31.08C62.4 32.5467 62.7067 33.84 63.32 34.96C63.9333 36.08 64.7733 36.96 65.84 37.6C66.9067 38.24 68.1333 38.56 69.52 38.56ZM89.0322 42C88.4455 42 87.9522 41.8133 87.5522 41.44C87.1789 41.04 86.9922 40.5467 86.9922 39.96V22.16C86.9922 21.5467 87.1789 21.0533 87.5522 20.68C87.9522 20.3067 88.4455 20.12 89.0322 20.12C89.6455 20.12 90.1389 20.3067 90.5122 20.68C90.8855 21.0533 91.0722 21.5467 91.0722 22.16V39.96C91.0722 40.5467 90.8855 41.04 90.5122 41.44C90.1389 41.8133 89.6455 42 89.0322 42ZM89.0322 16.56C88.3122 16.56 87.6855 16.3067 87.1522 15.8C86.6455 15.2667 86.3922 14.64 86.3922 13.92C86.3922 13.2 86.6455 12.5867 87.1522 12.08C87.6855 11.5467 88.3122 11.28 89.0322 11.28C89.7522 11.28 90.3655 11.5467 90.8722 12.08C91.4055 12.5867 91.6722 13.2 91.6722 13.92C91.6722 14.64 91.4055 15.2667 90.8722 15.8C90.3655 16.3067 89.7522 16.56 89.0322 16.56ZM100.623 28.32C100.623 26.72 101.009 25.2933 101.783 24.04C102.583 22.76 103.649 21.7467 104.983 21C106.316 20.2533 107.783 19.88 109.383 19.88C110.983 19.88 112.169 20.1467 112.943 20.68C113.743 21.1867 114.049 21.8 113.863 22.52C113.783 22.8933 113.623 23.1867 113.383 23.4C113.169 23.5867 112.916 23.7067 112.623 23.76C112.329 23.8133 112.009 23.8 111.663 23.72C109.956 23.3733 108.423 23.3467 107.063 23.64C105.703 23.9333 104.623 24.48 103.823 25.28C103.049 26.08 102.663 27.0933 102.663 28.32H100.623ZM100.663 42C100.023 42 99.5292 41.84 99.1825 41.52C98.8358 41.1733 98.6625 40.6667 98.6625 40V22.12C98.6625 21.48 98.8358 20.9867 99.1825 20.64C99.5292 20.2933 100.023 20.12 100.663 20.12C101.329 20.12 101.823 20.2933 102.143 20.64C102.489 20.96 102.663 21.4533 102.663 22.12V40C102.663 40.64 102.489 41.1333 102.143 41.48C101.823 41.8267 101.329 42 100.663 42ZM126.434 42.16C124.274 42.16 122.367 41.6933 120.714 40.76C119.061 39.8 117.754 38.4933 116.794 36.84C115.861 35.16 115.394 33.24 115.394 31.08C115.394 28.8933 115.861 26.9733 116.794 25.32C117.754 23.64 119.061 22.3333 120.714 21.4C122.367 20.44 124.274 19.96 126.434 19.96C128.567 19.96 130.461 20.44 132.114 21.4C133.767 22.3333 135.061 23.64 135.994 25.32C136.954 26.9733 137.434 28.8933 137.434 31.08C137.434 33.24 136.967 35.16 136.034 36.84C135.101 38.4933 133.807 39.8 132.154 40.76C130.501 41.6933 128.594 42.16 126.434 42.16ZM126.434 38.56C127.821 38.56 129.047 38.24 130.114 37.6C131.181 36.96 132.007 36.08 132.594 34.96C133.207 33.84 133.514 32.5467 133.514 31.08C133.514 29.6133 133.207 28.32 132.594 27.2C132.007 26.0533 131.181 25.16 130.114 24.52C129.047 23.88 127.821 23.56 126.434 23.56C125.047 23.56 123.821 23.88 122.754 24.52C121.687 25.16 120.847 26.0533 120.234 27.2C119.621 28.32 119.314 29.6133 119.314 31.08C119.314 32.5467 119.621 33.84 120.234 34.96C120.847 36.08 121.687 36.96 122.754 37.6C123.821 38.24 125.047 38.56 126.434 38.56Z" fill="#616161"/>
<path d="M21.2673 73C21.062 73 20.8893 72.93 20.7493 72.79C20.6187 72.65 20.5533 72.4773 20.5533 72.272V62.794C20.5533 62.5887 20.6233 62.416 20.7633 62.276C20.9033 62.136 21.0713 62.066 21.2673 62.066C21.4727 62.066 21.6453 62.136 21.7853 62.276C21.9253 62.416 21.9953 62.5887 21.9953 62.794V71.544H27.0633C27.2687 71.544 27.4413 71.614 27.5813 71.754C27.7213 71.894 27.7913 72.0667 27.7913 72.272C27.7913 72.4773 27.7213 72.65 27.5813 72.79C27.4413 72.93 27.2687 73 27.0633 73H21.2673ZM32.5877 73.056C31.9064 73.056 31.2951 72.888 30.7537 72.552C30.2124 72.2067 29.7831 71.7447 29.4657 71.166C29.1577 70.578 29.0037 69.9153 29.0037 69.178C29.0037 68.4407 29.1717 67.778 29.5077 67.19C29.8531 66.602 30.3151 66.14 30.8937 65.804C31.4817 65.4587 32.1397 65.286 32.8677 65.286C33.5957 65.286 34.2491 65.4587 34.8277 65.804C35.4064 66.14 35.8637 66.602 36.1997 67.19C36.5451 67.778 36.7177 68.4407 36.7177 69.178H36.1717C36.1717 69.9153 36.0131 70.578 35.6957 71.166C35.3877 71.7447 34.9631 72.2067 34.4217 72.552C33.8804 72.888 33.2691 73.056 32.5877 73.056ZM32.8677 71.796C33.3437 71.796 33.7684 71.684 34.1417 71.46C34.5151 71.2267 34.8091 70.914 35.0237 70.522C35.2384 70.1207 35.3457 69.6727 35.3457 69.178C35.3457 68.674 35.2384 68.226 35.0237 67.834C34.8091 67.4327 34.5151 67.12 34.1417 66.896C33.7684 66.6627 33.3437 66.546 32.8677 66.546C32.4011 66.546 31.9764 66.6627 31.5937 66.896C31.2204 67.12 30.9217 67.4327 30.6977 67.834C30.4831 68.226 30.3757 68.674 30.3757 69.178C30.3757 69.6727 30.4831 70.1207 30.6977 70.522C30.9217 70.914 31.2204 71.2267 31.5937 71.46C31.9764 71.684 32.4011 71.796 32.8677 71.796ZM36.0037 73.014C35.7984 73.014 35.6257 72.9487 35.4857 72.818C35.3551 72.678 35.2897 72.5053 35.2897 72.3V70.158L35.5557 68.674L36.7177 69.178V72.3C36.7177 72.5053 36.6477 72.678 36.5077 72.818C36.3771 72.9487 36.2091 73.014 36.0037 73.014ZM52.9966 73.014C52.7912 73.014 52.6186 72.9487 52.4786 72.818C52.3479 72.678 52.2826 72.5053 52.2826 72.3V68.296C52.2826 67.708 52.1379 67.274 51.8486 66.994C51.5592 66.7047 51.1812 66.56 50.7146 66.56C50.2292 66.56 49.8279 66.728 49.5106 67.064C49.2026 67.4 49.0486 67.8293 49.0486 68.352H47.8866C47.8866 67.7453 48.0172 67.2133 48.2786 66.756C48.5399 66.2893 48.9039 65.9253 49.3706 65.664C49.8466 65.4027 50.3879 65.272 50.9946 65.272C51.5266 65.272 51.9979 65.3887 52.4086 65.622C52.8192 65.8553 53.1366 66.2007 53.3606 66.658C53.5939 67.106 53.7106 67.652 53.7106 68.296V72.3C53.7106 72.5053 53.6452 72.678 53.5146 72.818C53.3839 72.9487 53.2112 73.014 52.9966 73.014ZM43.6586 73.014C43.4532 73.014 43.2806 72.9487 43.1406 72.818C43.0099 72.678 42.9446 72.5053 42.9446 72.3V66.07C42.9446 65.8553 43.0099 65.6827 43.1406 65.552C43.2806 65.4213 43.4532 65.356 43.6586 65.356C43.8732 65.356 44.0459 65.4213 44.1766 65.552C44.3072 65.6827 44.3726 65.8553 44.3726 66.07V72.3C44.3726 72.5053 44.3072 72.678 44.1766 72.818C44.0459 72.9487 43.8732 73.014 43.6586 73.014ZM48.3346 73.014C48.1292 73.014 47.9566 72.9487 47.8166 72.818C47.6859 72.678 47.6206 72.5053 47.6206 72.3V68.296C47.6206 67.708 47.4759 67.274 47.1866 66.994C46.8972 66.7047 46.5192 66.56 46.0526 66.56C45.5672 66.56 45.1659 66.728 44.8486 67.064C44.5312 67.4 44.3726 67.8293 44.3726 68.352H43.4906C43.4906 67.7453 43.6119 67.2133 43.8546 66.756C44.0972 66.2893 44.4332 65.9253 44.8626 65.664C45.2919 65.4027 45.7819 65.272 46.3326 65.272C46.8646 65.272 47.3359 65.3887 47.7466 65.622C48.1572 65.8553 48.4746 66.2007 48.6986 66.658C48.9319 67.106 49.0486 67.652 49.0486 68.296V72.3C49.0486 72.5053 48.9832 72.678 48.8526 72.818C48.7219 72.9487 48.5492 73.014 48.3346 73.014ZM59.2752 73.056C58.5939 73.056 57.9826 72.888 57.4412 72.552C56.8999 72.2067 56.4706 71.7447 56.1532 71.166C55.8452 70.578 55.6912 69.9153 55.6912 69.178C55.6912 68.4407 55.8592 67.778 56.1952 67.19C56.5406 66.602 57.0026 66.14 57.5812 65.804C58.1692 65.4587 58.8272 65.286 59.5552 65.286C60.2832 65.286 60.9366 65.4587 61.5152 65.804C62.0939 66.14 62.5512 66.602 62.8872 67.19C63.2326 67.778 63.4052 68.4407 63.4052 69.178H62.8592C62.8592 69.9153 62.7006 70.578 62.3832 71.166C62.0752 71.7447 61.6506 72.2067 61.1092 72.552C60.5679 72.888 59.9566 73.056 59.2752 73.056ZM59.5552 71.796C60.0312 71.796 60.4559 71.684 60.8292 71.46C61.2026 71.2267 61.4966 70.914 61.7112 70.522C61.9259 70.1207 62.0332 69.6727 62.0332 69.178C62.0332 68.674 61.9259 68.226 61.7112 67.834C61.4966 67.4327 61.2026 67.12 60.8292 66.896C60.4559 66.6627 60.0312 66.546 59.5552 66.546C59.0886 66.546 58.6639 66.6627 58.2812 66.896C57.9079 67.12 57.6092 67.4327 57.3852 67.834C57.1706 68.226 57.0632 68.674 57.0632 69.178C57.0632 69.6727 57.1706 70.1207 57.3852 70.522C57.6092 70.914 57.9079 71.2267 58.2812 71.46C58.6639 71.684 59.0886 71.796 59.5552 71.796ZM62.6912 73.014C62.4859 73.014 62.3132 72.9487 62.1732 72.818C62.0426 72.678 61.9772 72.5053 61.9772 72.3V70.158L62.2432 68.674L63.4052 69.178V72.3C63.4052 72.5053 63.3352 72.678 63.1952 72.818C63.0646 72.9487 62.8966 73.014 62.6912 73.014ZM66.2445 76.276C66.0392 76.276 65.8665 76.206 65.7265 76.066C65.5958 75.9353 65.5305 75.7673 65.5305 75.562V69.178C65.5398 68.4407 65.7125 67.778 66.0485 67.19C66.3845 66.602 66.8418 66.14 67.4205 65.804C67.9992 65.4587 68.6525 65.286 69.3805 65.286C70.1178 65.286 70.7758 65.4587 71.3545 65.804C71.9332 66.14 72.3905 66.602 72.7265 67.19C73.0718 67.778 73.2445 68.4407 73.2445 69.178C73.2445 69.9153 73.0858 70.578 72.7685 71.166C72.4605 71.7447 72.0358 72.2067 71.4945 72.552C70.9532 72.888 70.3418 73.056 69.6605 73.056C69.1098 73.056 68.6012 72.944 68.1345 72.72C67.6772 72.4867 67.2852 72.174 66.9585 71.782V75.562C66.9585 75.7673 66.8932 75.9353 66.7625 76.066C66.6318 76.206 66.4592 76.276 66.2445 76.276ZM69.3805 71.796C69.8565 71.796 70.2812 71.684 70.6545 71.46C71.0278 71.2267 71.3218 70.914 71.5365 70.522C71.7605 70.1207 71.8725 69.6727 71.8725 69.178C71.8725 68.674 71.7605 68.226 71.5365 67.834C71.3218 67.4327 71.0278 67.12 70.6545 66.896C70.2812 66.6627 69.8565 66.546 69.3805 66.546C68.9138 66.546 68.4892 66.6627 68.1065 66.896C67.7332 67.12 67.4392 67.4327 67.2245 67.834C67.0098 68.226 66.9025 68.674 66.9025 69.178C66.9025 69.6727 67.0098 70.1207 67.2245 70.522C67.4392 70.914 67.7332 71.2267 68.1065 71.46C68.4892 71.684 68.9138 71.796 69.3805 71.796ZM76.0883 76.276C75.8829 76.276 75.7103 76.206 75.5703 76.066C75.4396 75.9353 75.3743 75.7673 75.3743 75.562V69.178C75.3836 68.4407 75.5563 67.778 75.8923 67.19C76.2283 66.602 76.6856 66.14 77.2643 65.804C77.8429 65.4587 78.4963 65.286 79.2243 65.286C79.9616 65.286 80.6196 65.4587 81.1983 65.804C81.7769 66.14 82.2343 66.602 82.5703 67.19C82.9156 67.778 83.0883 68.4407 83.0883 69.178C83.0883 69.9153 82.9296 70.578 82.6123 71.166C82.3043 71.7447 81.8796 72.2067 81.3383 72.552C80.7969 72.888 80.1856 73.056 79.5043 73.056C78.9536 73.056 78.4449 72.944 77.9783 72.72C77.5209 72.4867 77.1289 72.174 76.8023 71.782V75.562C76.8023 75.7673 76.7369 75.9353 76.6063 76.066C76.4756 76.206 76.3029 76.276 76.0883 76.276ZM79.2243 71.796C79.7003 71.796 80.1249 71.684 80.4983 71.46C80.8716 71.2267 81.1656 70.914 81.3803 70.522C81.6043 70.1207 81.7163 69.6727 81.7163 69.178C81.7163 68.674 81.6043 68.226 81.3803 67.834C81.1656 67.4327 80.8716 67.12 80.4983 66.896C80.1249 66.6627 79.7003 66.546 79.2243 66.546C78.7576 66.546 78.3329 66.6627 77.9503 66.896C77.5769 67.12 77.2829 67.4327 77.0683 67.834C76.8536 68.226 76.7463 68.674 76.7463 69.178C76.7463 69.6727 76.8536 70.1207 77.0683 70.522C77.2829 70.914 77.5769 71.2267 77.9503 71.46C78.3329 71.684 78.7576 71.796 79.2243 71.796ZM88.41 73.056C87.7287 73.056 87.1173 72.888 86.576 72.552C86.0347 72.2067 85.6053 71.7447 85.288 71.166C84.98 70.578 84.826 69.9153 84.826 69.178C84.826 68.4407 84.994 67.778 85.33 67.19C85.6753 66.602 86.1373 66.14 86.716 65.804C87.304 65.4587 87.962 65.286 88.69 65.286C89.418 65.286 90.0713 65.4587 90.65 65.804C91.2287 66.14 91.686 66.602 92.022 67.19C92.3673 67.778 92.54 68.4407 92.54 69.178H91.994C91.994 69.9153 91.8353 70.578 91.518 71.166C91.21 71.7447 90.7853 72.2067 90.244 72.552C89.7027 72.888 89.0913 73.056 88.41 73.056ZM88.69 71.796C89.166 71.796 89.5907 71.684 89.964 71.46C90.3373 71.2267 90.6313 70.914 90.846 70.522C91.0607 70.1207 91.168 69.6727 91.168 69.178C91.168 68.674 91.0607 68.226 90.846 67.834C90.6313 67.4327 90.3373 67.12 89.964 66.896C89.5907 66.6627 89.166 66.546 88.69 66.546C88.2233 66.546 87.7987 66.6627 87.416 66.896C87.0427 67.12 86.744 67.4327 86.52 67.834C86.3053 68.226 86.198 68.674 86.198 69.178C86.198 69.6727 86.3053 70.1207 86.52 70.522C86.744 70.914 87.0427 71.2267 87.416 71.46C87.7987 71.684 88.2233 71.796 88.69 71.796ZM91.826 73.014C91.6207 73.014 91.448 72.9487 91.308 72.818C91.1773 72.678 91.112 72.5053 91.112 72.3V70.158L91.378 68.674L92.54 69.178V72.3C92.54 72.5053 92.47 72.678 92.33 72.818C92.1993 72.9487 92.0313 73.014 91.826 73.014ZM102.239 73.056C101.511 73.056 100.853 72.888 100.265 72.552C99.6862 72.2067 99.2242 71.74 98.8788 71.152C98.5428 70.564 98.3748 69.9013 98.3748 69.164C98.3748 68.4267 98.5288 67.7687 98.8368 67.19C99.1542 66.602 99.5835 66.14 100.125 65.804C100.666 65.4587 101.278 65.286 101.959 65.286C102.51 65.286 103.018 65.4027 103.485 65.636C103.952 65.86 104.344 66.168 104.661 66.56V62.78C104.661 62.5653 104.726 62.3927 104.857 62.262C104.997 62.1313 105.17 62.066 105.375 62.066C105.59 62.066 105.762 62.1313 105.893 62.262C106.024 62.3927 106.089 62.5653 106.089 62.78V69.164C106.089 69.9013 105.916 70.564 105.571 71.152C105.235 71.74 104.778 72.2067 104.199 72.552C103.62 72.888 102.967 73.056 102.239 73.056ZM102.239 71.796C102.715 71.796 103.14 71.684 103.513 71.46C103.886 71.2267 104.18 70.9093 104.395 70.508C104.61 70.1067 104.717 69.6587 104.717 69.164C104.717 68.66 104.61 68.212 104.395 67.82C104.18 67.428 103.886 67.12 103.513 66.896C103.14 66.6627 102.715 66.546 102.239 66.546C101.772 66.546 101.348 66.6627 100.965 66.896C100.592 67.12 100.293 67.428 100.069 67.82C99.8542 68.212 99.7468 68.66 99.7468 69.164C99.7468 69.6587 99.8542 70.1067 100.069 70.508C100.293 70.9093 100.592 71.2267 100.965 71.46C101.348 71.684 101.772 71.796 102.239 71.796ZM112.209 73.056C111.434 73.056 110.743 72.8927 110.137 72.566C109.539 72.23 109.068 71.7727 108.723 71.194C108.387 70.606 108.219 69.934 108.219 69.178C108.219 68.4127 108.377 67.7407 108.695 67.162C109.021 66.574 109.469 66.1167 110.039 65.79C110.608 65.454 111.261 65.286 111.999 65.286C112.727 65.286 113.352 65.4493 113.875 65.776C114.397 66.0933 114.794 66.5367 115.065 67.106C115.345 67.666 115.485 68.3147 115.485 69.052C115.485 69.2293 115.424 69.3787 115.303 69.5C115.181 69.612 115.027 69.668 114.841 69.668H109.199V68.548H114.799L114.225 68.94C114.215 68.4733 114.122 68.058 113.945 67.694C113.767 67.3207 113.515 67.0267 113.189 66.812C112.862 66.5973 112.465 66.49 111.999 66.49C111.467 66.49 111.009 66.6067 110.627 66.84C110.253 67.0733 109.969 67.3953 109.773 67.806C109.577 68.2073 109.479 68.6647 109.479 69.178C109.479 69.6913 109.595 70.1487 109.829 70.55C110.062 70.9513 110.384 71.2687 110.795 71.502C111.205 71.7353 111.677 71.852 112.209 71.852C112.498 71.852 112.792 71.8007 113.091 71.698C113.399 71.586 113.646 71.46 113.833 71.32C113.973 71.2173 114.122 71.166 114.281 71.166C114.449 71.1567 114.593 71.2033 114.715 71.306C114.873 71.446 114.957 71.6 114.967 71.768C114.976 71.936 114.901 72.0807 114.743 72.202C114.425 72.454 114.029 72.6593 113.553 72.818C113.086 72.9767 112.638 73.056 112.209 73.056ZM119.126 73C118.715 73 118.351 72.888 118.034 72.664C117.717 72.44 117.469 72.1367 117.292 71.754C117.115 71.362 117.026 70.914 117.026 70.41V62.766C117.026 62.5607 117.091 62.3927 117.222 62.262C117.353 62.1313 117.521 62.066 117.726 62.066C117.931 62.066 118.099 62.1313 118.23 62.262C118.361 62.3927 118.426 62.5607 118.426 62.766V70.41C118.426 70.7553 118.491 71.04 118.622 71.264C118.753 71.488 118.921 71.6 119.126 71.6H119.476C119.663 71.6 119.812 71.6653 119.924 71.796C120.045 71.9267 120.106 72.0947 120.106 72.3C120.106 72.5053 120.017 72.6733 119.84 72.804C119.663 72.9347 119.434 73 119.154 73H119.126ZM128.391 73C127.924 73 127.504 72.8833 127.131 72.65C126.757 72.4073 126.463 72.0807 126.249 71.67C126.034 71.2593 125.927 70.7973 125.927 70.284V63.606C125.927 63.4007 125.992 63.2327 126.123 63.102C126.253 62.9713 126.421 62.906 126.627 62.906C126.832 62.906 127 62.9713 127.131 63.102C127.261 63.2327 127.327 63.4007 127.327 63.606V70.284C127.327 70.6573 127.429 70.97 127.635 71.222C127.84 71.474 128.092 71.6 128.391 71.6H128.867C129.035 71.6 129.175 71.6653 129.287 71.796C129.408 71.9267 129.469 72.0947 129.469 72.3C129.469 72.5053 129.389 72.6733 129.231 72.804C129.081 72.9347 128.885 73 128.643 73H128.391ZM125.283 66.826C125.087 66.826 124.928 66.77 124.807 66.658C124.685 66.546 124.625 66.406 124.625 66.238C124.625 66.0513 124.685 65.902 124.807 65.79C124.928 65.678 125.087 65.622 125.283 65.622H128.517C128.713 65.622 128.871 65.678 128.993 65.79C129.114 65.902 129.175 66.0513 129.175 66.238C129.175 66.406 129.114 66.546 128.993 66.658C128.871 66.77 128.713 66.826 128.517 66.826H125.283ZM134.822 73.056C134.047 73.056 133.357 72.8927 132.75 72.566C132.153 72.23 131.681 71.7727 131.336 71.194C131 70.606 130.832 69.934 130.832 69.178C130.832 68.4127 130.991 67.7407 131.308 67.162C131.635 66.574 132.083 66.1167 132.652 65.79C133.221 65.454 133.875 65.286 134.612 65.286C135.34 65.286 135.965 65.4493 136.488 65.776C137.011 66.0933 137.407 66.5367 137.678 67.106C137.958 67.666 138.098 68.3147 138.098 69.052C138.098 69.2293 138.037 69.3787 137.916 69.5C137.795 69.612 137.641 69.668 137.454 69.668H131.812V68.548H137.412L136.838 68.94C136.829 68.4733 136.735 68.058 136.558 67.694C136.381 67.3207 136.129 67.0267 135.802 66.812C135.475 66.5973 135.079 66.49 134.612 66.49C134.08 66.49 133.623 66.6067 133.24 66.84C132.867 67.0733 132.582 67.3953 132.386 67.806C132.19 68.2073 132.092 68.6647 132.092 69.178C132.092 69.6913 132.209 70.1487 132.442 70.55C132.675 70.9513 132.997 71.2687 133.408 71.502C133.819 71.7353 134.29 71.852 134.822 71.852C135.111 71.852 135.405 71.8007 135.704 71.698C136.012 71.586 136.259 71.46 136.446 71.32C136.586 71.2173 136.735 71.166 136.894 71.166C137.062 71.1567 137.207 71.2033 137.328 71.306C137.487 71.446 137.571 71.6 137.58 71.768C137.589 71.936 137.515 72.0807 137.356 72.202C137.039 72.454 136.642 72.6593 136.166 72.818C135.699 72.9767 135.251 73.056 134.822 73.056ZM149.971 73.014C149.766 73.014 149.593 72.9487 149.453 72.818C149.323 72.678 149.257 72.5053 149.257 72.3V68.296C149.257 67.708 149.113 67.274 148.823 66.994C148.534 66.7047 148.156 66.56 147.689 66.56C147.204 66.56 146.803 66.728 146.485 67.064C146.177 67.4 146.023 67.8293 146.023 68.352H144.861C144.861 67.7453 144.992 67.2133 145.253 66.756C145.515 66.2893 145.879 65.9253 146.345 65.664C146.821 65.4027 147.363 65.272 147.969 65.272C148.501 65.272 148.973 65.3887 149.383 65.622C149.794 65.8553 150.111 66.2007 150.335 66.658C150.569 67.106 150.685 67.652 150.685 68.296V72.3C150.685 72.5053 150.62 72.678 150.489 72.818C150.359 72.9487 150.186 73.014 149.971 73.014ZM140.633 73.014C140.428 73.014 140.255 72.9487 140.115 72.818C139.985 72.678 139.919 72.5053 139.919 72.3V66.07C139.919 65.8553 139.985 65.6827 140.115 65.552C140.255 65.4213 140.428 65.356 140.633 65.356C140.848 65.356 141.021 65.4213 141.151 65.552C141.282 65.6827 141.347 65.8553 141.347 66.07V72.3C141.347 72.5053 141.282 72.678 141.151 72.818C141.021 72.9487 140.848 73.014 140.633 73.014ZM145.309 73.014C145.104 73.014 144.931 72.9487 144.791 72.818C144.661 72.678 144.595 72.5053 144.595 72.3V68.296C144.595 67.708 144.451 67.274 144.161 66.994C143.872 66.7047 143.494 66.56 143.027 66.56C142.542 66.56 142.141 66.728 141.823 67.064C141.506 67.4 141.347 67.8293 141.347 68.352H140.465C140.465 67.7453 140.587 67.2133 140.829 66.756C141.072 66.2893 141.408 65.9253 141.837 65.664C142.267 65.4027 142.757 65.272 143.307 65.272C143.839 65.272 144.311 65.3887 144.721 65.622C145.132 65.8553 145.449 66.2007 145.673 66.658C145.907 67.106 146.023 67.652 146.023 68.296V72.3C146.023 72.5053 145.958 72.678 145.827 72.818C145.697 72.9487 145.524 73.014 145.309 73.014ZM153.772 76.276C153.567 76.276 153.394 76.206 153.254 76.066C153.123 75.9353 153.058 75.7673 153.058 75.562V69.178C153.067 68.4407 153.24 67.778 153.576 67.19C153.912 66.602 154.369 66.14 154.948 65.804C155.527 65.4587 156.18 65.286 156.908 65.286C157.645 65.286 158.303 65.4587 158.882 65.804C159.461 66.14 159.918 66.602 160.254 67.19C160.599 67.778 160.772 68.4407 160.772 69.178C160.772 69.9153 160.613 70.578 160.296 71.166C159.988 71.7447 159.563 72.2067 159.022 72.552C158.481 72.888 157.869 73.056 157.188 73.056C156.637 73.056 156.129 72.944 155.662 72.72C155.205 72.4867 154.813 72.174 154.486 71.782V75.562C154.486 75.7673 154.421 75.9353 154.29 76.066C154.159 76.206 153.987 76.276 153.772 76.276ZM156.908 71.796C157.384 71.796 157.809 71.684 158.182 71.46C158.555 71.2267 158.849 70.914 159.064 70.522C159.288 70.1207 159.4 69.6727 159.4 69.178C159.4 68.674 159.288 68.226 159.064 67.834C158.849 67.4327 158.555 67.12 158.182 66.896C157.809 66.6627 157.384 66.546 156.908 66.546C156.441 66.546 156.017 66.6627 155.634 66.896C155.261 67.12 154.967 67.4327 154.752 67.834C154.537 68.226 154.43 68.674 154.43 69.178C154.43 69.6727 154.537 70.1207 154.752 70.522C154.967 70.914 155.261 71.2267 155.634 71.46C156.017 71.684 156.441 71.796 156.908 71.796ZM166.374 73.056C165.618 73.056 164.95 72.8927 164.372 72.566C163.793 72.23 163.336 71.7727 163 71.194C162.673 70.606 162.51 69.934 162.51 69.178C162.51 68.4127 162.673 67.7407 163 67.162C163.336 66.574 163.793 66.1167 164.372 65.79C164.95 65.454 165.618 65.286 166.374 65.286C167.12 65.286 167.783 65.454 168.362 65.79C168.94 66.1167 169.393 66.574 169.72 67.162C170.056 67.7407 170.224 68.4127 170.224 69.178C170.224 69.934 170.06 70.606 169.734 71.194C169.407 71.7727 168.954 72.23 168.376 72.566C167.797 72.8927 167.13 73.056 166.374 73.056ZM166.374 71.796C166.859 71.796 167.288 71.684 167.662 71.46C168.035 71.236 168.324 70.928 168.53 70.536C168.744 70.144 168.852 69.6913 168.852 69.178C168.852 68.6647 168.744 68.212 168.53 67.82C168.324 67.4187 168.035 67.106 167.662 66.882C167.288 66.658 166.859 66.546 166.374 66.546C165.888 66.546 165.459 66.658 165.086 66.882C164.712 67.106 164.418 67.4187 164.204 67.82C163.989 68.212 163.882 68.6647 163.882 69.178C163.882 69.6913 163.989 70.144 164.204 70.536C164.418 70.928 164.712 71.236 165.086 71.46C165.459 71.684 165.888 71.796 166.374 71.796ZM178.27 73C177.86 73 177.496 72.888 177.178 72.664C176.861 72.44 176.614 72.1367 176.436 71.754C176.259 71.362 176.17 70.914 176.17 70.41V62.766C176.17 62.5607 176.236 62.3927 176.366 62.262C176.497 62.1313 176.665 62.066 176.87 62.066C177.076 62.066 177.244 62.1313 177.374 62.262C177.505 62.3927 177.57 62.5607 177.57 62.766V70.41C177.57 70.7553 177.636 71.04 177.766 71.264C177.897 71.488 178.065 71.6 178.27 71.6H178.62C178.807 71.6 178.956 71.6653 179.068 71.796C179.19 71.9267 179.25 72.0947 179.25 72.3C179.25 72.5053 179.162 72.6733 178.984 72.804C178.807 72.9347 178.578 73 178.298 73H178.27ZM181.502 73C181.296 73 181.124 72.9347 180.984 72.804C180.853 72.664 180.788 72.4913 180.788 72.286V66.056C180.788 65.8413 180.853 65.6687 180.984 65.538C181.124 65.4073 181.296 65.342 181.502 65.342C181.716 65.342 181.889 65.4073 182.02 65.538C182.15 65.6687 182.216 65.8413 182.216 66.056V72.286C182.216 72.4913 182.15 72.664 182.02 72.804C181.889 72.9347 181.716 73 181.502 73ZM181.502 64.096C181.25 64.096 181.03 64.0073 180.844 63.83C180.666 63.6433 180.578 63.424 180.578 63.172C180.578 62.92 180.666 62.7053 180.844 62.528C181.03 62.3413 181.25 62.248 181.502 62.248C181.754 62.248 181.968 62.3413 182.146 62.528C182.332 62.7053 182.426 62.92 182.426 63.172C182.426 63.424 182.332 63.6433 182.146 63.83C181.968 64.0073 181.754 64.096 181.502 64.096ZM188.722 73.056C187.994 73.056 187.341 72.888 186.762 72.552C186.184 72.2067 185.726 71.74 185.39 71.152C185.054 70.564 184.882 69.9013 184.872 69.164V62.78C184.872 62.5653 184.938 62.3927 185.068 62.262C185.208 62.1313 185.381 62.066 185.586 62.066C185.801 62.066 185.974 62.1313 186.104 62.262C186.235 62.3927 186.3 62.5653 186.3 62.78V66.56C186.627 66.168 187.019 65.86 187.476 65.636C187.943 65.4027 188.452 65.286 189.002 65.286C189.684 65.286 190.295 65.4587 190.836 65.804C191.378 66.14 191.802 66.602 192.11 67.19C192.428 67.7687 192.586 68.4267 192.586 69.164C192.586 69.9013 192.414 70.564 192.068 71.152C191.732 71.74 191.275 72.2067 190.696 72.552C190.118 72.888 189.46 73.056 188.722 73.056ZM188.722 71.796C189.198 71.796 189.623 71.684 189.996 71.46C190.37 71.2267 190.664 70.9093 190.878 70.508C191.102 70.1067 191.214 69.6587 191.214 69.164C191.214 68.66 191.102 68.212 190.878 67.82C190.664 67.428 190.37 67.12 189.996 66.896C189.623 66.6627 189.198 66.546 188.722 66.546C188.256 66.546 187.831 66.6627 187.448 66.896C187.075 67.12 186.781 67.428 186.566 67.82C186.352 68.212 186.244 68.66 186.244 69.164C186.244 69.6587 186.352 70.1067 186.566 70.508C186.781 70.9093 187.075 71.2267 187.448 71.46C187.831 71.684 188.256 71.796 188.722 71.796ZM198.314 73.056C197.539 73.056 196.849 72.8927 196.242 72.566C195.645 72.23 195.173 71.7727 194.828 71.194C194.492 70.606 194.324 69.934 194.324 69.178C194.324 68.4127 194.483 67.7407 194.8 67.162C195.127 66.574 195.575 66.1167 196.144 65.79C196.713 65.454 197.367 65.286 198.104 65.286C198.832 65.286 199.457 65.4493 199.98 65.776C200.503 66.0933 200.899 66.5367 201.17 67.106C201.45 67.666 201.59 68.3147 201.59 69.052C201.59 69.2293 201.529 69.3787 201.408 69.5C201.287 69.612 201.133 69.668 200.946 69.668H195.304V68.548H200.904L200.33 68.94C200.321 68.4733 200.227 68.058 200.05 67.694C199.873 67.3207 199.621 67.0267 199.294 66.812C198.967 66.5973 198.571 66.49 198.104 66.49C197.572 66.49 197.115 66.6067 196.732 66.84C196.359 67.0733 196.074 67.3953 195.878 67.806C195.682 68.2073 195.584 68.6647 195.584 69.178C195.584 69.6913 195.701 70.1487 195.934 70.55C196.167 70.9513 196.489 71.2687 196.9 71.502C197.311 71.7353 197.782 71.852 198.314 71.852C198.603 71.852 198.897 71.8007 199.196 71.698C199.504 71.586 199.751 71.46 199.938 71.32C200.078 71.2173 200.227 71.166 200.386 71.166C200.554 71.1567 200.699 71.2033 200.82 71.306C200.979 71.446 201.063 71.6 201.072 71.768C201.081 71.936 201.007 72.0807 200.848 72.202C200.531 72.454 200.134 72.6593 199.658 72.818C199.191 72.9767 198.743 73.056 198.314 73.056ZM204.097 68.212C204.097 67.652 204.233 67.1527 204.503 66.714C204.783 66.266 205.157 65.9113 205.623 65.65C206.09 65.3887 206.603 65.258 207.163 65.258C207.723 65.258 208.139 65.3513 208.409 65.538C208.689 65.7153 208.797 65.93 208.731 66.182C208.703 66.3127 208.647 66.4153 208.563 66.49C208.489 66.5553 208.4 66.5973 208.297 66.616C208.195 66.6347 208.083 66.63 207.961 66.602C207.364 66.4807 206.827 66.4713 206.351 66.574C205.875 66.6767 205.497 66.868 205.217 67.148C204.947 67.428 204.811 67.7827 204.811 68.212H204.097ZM204.111 73C203.887 73 203.715 72.944 203.593 72.832C203.472 72.7107 203.411 72.5333 203.411 72.3V66.042C203.411 65.818 203.472 65.6453 203.593 65.524C203.715 65.4027 203.887 65.342 204.111 65.342C204.345 65.342 204.517 65.4027 204.629 65.524C204.751 65.636 204.811 65.8087 204.811 66.042V72.3C204.811 72.524 204.751 72.6967 204.629 72.818C204.517 72.9393 204.345 73 204.111 73ZM213.131 73.056C212.375 73.056 211.708 72.8927 211.129 72.566C210.551 72.23 210.093 71.7727 209.757 71.194C209.431 70.606 209.267 69.934 209.267 69.178C209.267 68.4127 209.431 67.7407 209.757 67.162C210.093 66.574 210.551 66.1167 211.129 65.79C211.708 65.454 212.375 65.286 213.131 65.286C213.878 65.286 214.541 65.454 215.119 65.79C215.698 66.1167 216.151 66.574 216.477 67.162C216.813 67.7407 216.981 68.4127 216.981 69.178C216.981 69.934 216.818 70.606 216.491 71.194C216.165 71.7727 215.712 72.23 215.133 72.566C214.555 72.8927 213.887 73.056 213.131 73.056ZM213.131 71.796C213.617 71.796 214.046 71.684 214.419 71.46C214.793 71.236 215.082 70.928 215.287 70.536C215.502 70.144 215.609 69.6913 215.609 69.178C215.609 68.6647 215.502 68.212 215.287 67.82C215.082 67.4187 214.793 67.106 214.419 66.882C214.046 66.658 213.617 66.546 213.131 66.546C212.646 66.546 212.217 66.658 211.843 66.882C211.47 67.106 211.176 67.4187 210.961 67.82C210.747 68.212 210.639 68.6647 210.639 69.178C210.639 69.6913 210.747 70.144 210.961 70.536C211.176 70.928 211.47 71.236 211.843 71.46C212.217 71.684 212.646 71.796 213.131 71.796Z" fill="#616161"/>
</svg>
