<?xml version="1.0" standalone="no"?>
<!DOCTYPE svg PUBLIC "-//W3C//DTD SVG 20010904//EN"
 "http://www.w3.org/TR/2001/REC-SVG-20010904/DTD/svg10.dtd">
<svg version="1.0" xmlns="http://www.w3.org/2000/svg"
 width="700.000000pt" height="700.000000pt" viewBox="0 0 700.000000 700.000000"
 preserveAspectRatio="xMidYMid meet">
<metadata>
Created by potrace 1.14, written by Peter Selinger 2001-2017
</metadata>
<g transform="translate(0.000000,700.000000) scale(0.100000,-0.100000)"
fill="#000000" stroke="none">
<path d="M3407 5984 c-1 -1 -49 -5 -107 -9 -58 -4 -114 -9 -125 -11 -11 -2
-47 -9 -80 -14 -256 -42 -482 -117 -730 -242 -445 -224 -829 -605 -1066 -1058
-126 -239 -228 -555 -255 -785 -3 -27 -7 -52 -9 -55 -7 -11 -18 -208 -18 -315
0 -101 9 -258 17 -302 2 -10 7 -40 10 -68 12 -88 66 -311 100 -412 185 -546
536 -994 1029 -1311 97 -63 264 -150 367 -192 30 -12 69 -28 85 -35 36 -16
206 -68 291 -89 261 -67 618 -87 892 -50 79 10 108 15 122 19 8 2 32 6 53 10
98 14 289 70 432 127 123 48 326 149 323 159 -2 5 -57 102 -123 217 l-120 209
-98 -49 c-223 -112 -449 -178 -702 -205 -143 -15 -374 -8 -515 17 -30 5 -66
11 -80 14 -135 23 -329 91 -489 171 -450 226 -799 614 -974 1085 -33 88 -77
247 -91 330 -3 19 -8 44 -10 56 -19 98 -26 370 -13 499 25 246 93 481 204 700
41 81 147 253 186 301 117 145 201 234 296 314 30 25 59 50 65 55 41 38 229
157 325 205 174 87 415 169 550 186 20 2 47 7 61 9 128 25 462 25 595 -1 11
-2 36 -7 55 -10 83 -14 242 -58 330 -91 150 -56 361 -167 465 -245 297 -223
510 -481 652 -793 67 -147 132 -357 149 -480 3 -27 8 -53 10 -57 9 -14 18
-167 18 -293 0 -167 -8 -237 -48 -440 -8 -41 -28 -112 -47 -169 -11 -32 -16
-62 -12 -66 6 -5 389 -146 449 -165 17 -5 99 273 118 400 9 64 18 118 22 139
21 114 21 502 -1 616 -2 14 -7 42 -9 63 -28 219 -120 504 -237 740 -127 254
-266 445 -475 652 -137 137 -228 211 -389 317 -328 216 -761 364 -1150 393
-82 7 -294 13 -298 9z"/>
<path d="M4487 2898 c-81 -17 -146 -74 -176 -154 -69 -187 117 -374 302 -304
28 11 61 28 72 38 38 32 73 87 79 122 3 19 8 47 10 61 6 38 -27 126 -60 160
-62 65 -147 94 -227 77z"/>
<path d="M4914 2396 c-150 -70 -183 -267 -63 -384 94 -92 242 -91 334 3 51 53
73 111 69 182 -4 67 -32 121 -86 167 -71 61 -166 73 -254 32z"/>
<path d="M5417 1926 c-59 -22 -103 -61 -131 -118 -82 -164 40 -352 225 -344
195 9 297 244 168 390 -22 25 -54 52 -72 61 -45 23 -143 29 -190 11z"/>
<path d="M5900 1445 c-51 -16 -88 -48 -128 -107 -23 -36 -27 -51 -27 -117 0
-85 13 -117 67 -170 45 -45 81 -62 143 -68 118 -12 230 67 256 182 32 146 -69
282 -216 291 -27 2 -70 -3 -95 -11z"/>
</g>
</svg>
