<svg width="35" height="36" viewBox="0 0 35 36" fill="none" xmlns="http://www.w3.org/2000/svg">
<path fill-rule="evenodd" clip-rule="evenodd" d="M29.0458 27.2174C31.5112 24.3342 33 20.591 33 16.5C33 7.3873 25.6127 0 16.5 0C7.3873 0 0 7.3873 0 16.5C0 25.6127 7.3873 33 16.5 33C20.0791 33 23.3921 31.8604 26.0958 29.9243L31.4852 35.3137L34.3137 32.4853L29.0458 27.2174Z" fill="#1A535C"/>
<path d="M16.8876 14.1291H6V21.2583C6.38736 22.942 6.79483 23.6756 7.77515 24.704C8.60114 25.5639 9.35303 25.8922 11.3254 26.1299C12.8481 26.1438 13.76 25.9049 15.4675 24.4664C16.5373 23.3208 16.8234 22.5446 17.0059 21.0207L16.8876 14.1291Z" fill="white"/>
<path d="M14.9941 7H26V13.8915C25.8533 15.2505 25.6077 15.7994 25.0533 16.6243C23.578 18.4434 22.5802 18.9522 20.5562 19.1195C19.3193 19.0049 18.765 18.8683 17.9527 18.5255V15.555V13.0598H14.9941V7Z" fill="white"/>
<ellipse cx="23.0414" cy="11.1587" rx="1.06509" ry="1.06937" fill="#1A535C"/>
<ellipse cx="18.0709" cy="11.1587" rx="1.06509" ry="1.06937" fill="#1A535C"/>
<ellipse cx="14.0473" cy="18.0502" rx="1.06509" ry="1.06937" fill="#1A535C"/>
<ellipse cx="9.07705" cy="18.0502" rx="1.06509" ry="1.06937" fill="#1A535C"/>
<path d="M13.9289 21.2583H8.9585C9.17866 21.7415 9.4522 22.001 10.1419 22.4465C10.5219 22.6068 10.7942 22.6655 11.4437 22.6841C12.2672 22.627 12.6387 22.5059 13.2189 22.2089C13.6302 21.8652 13.7812 21.656 13.9289 21.2583Z" fill="#1A535C" stroke="black" stroke-width="0.1"/>
<path d="M23.0414 15.555H17.9526L17.9549 15.5503C18.1122 15.2146 18.2011 15.0249 18.6627 14.6045C19.2472 14.2589 19.5536 14.1807 20.0828 14.1292H21.2662C21.6925 14.2089 21.9237 14.3176 22.3313 14.6045C22.7241 14.9781 22.832 15.1853 23.0414 15.555Z" fill="#1A535C"/>
</svg>
