<svg width="35" height="36" viewBox="0 0 35 36" fill="none" xmlns="http://www.w3.org/2000/svg">
<circle cx="16.5" cy="16.5" r="16.5" fill="#FF6B6B"/>
<rect x="25.8284" y="24" width="12" height="4" transform="rotate(45 25.8284 24)" fill="#FF6B6B"/>
<path fill-rule="evenodd" clip-rule="evenodd" d="M17.2058 14.9362L16.3547 14.5107V13.6596L17.6313 12.383C18.5022 12.0218 18.9627 11.9657 19.759 11.9575C20.6442 10.8312 20.6474 10.0187 20.61 8.55322C20.6544 8.47629 20.695 8.40307 20.7341 8.33281L20.7341 8.3328C21.0412 7.78017 21.2466 7.41047 22.3122 6.8511H24.0143L25.2909 6.00003C25.7062 5.99892 25.928 6.02411 26.142 6.42556C26.3606 6.9512 26.2847 7.2118 26.1578 7.64758L26.142 7.70216L24.8654 8.55322H23.1632C22.5883 8.87398 22.3607 9.12328 22.3122 9.82982V11.9575C22.1267 12.7302 20.9347 13.6321 20.61 13.6596C20.4808 13.6705 20.249 13.6633 19.9644 13.6543C19.5339 13.6408 18.9825 13.6234 18.4824 13.6596C17.7118 14.017 17.5587 14.2977 17.3473 14.6854C17.3044 14.7641 17.2591 14.8472 17.2058 14.9362ZM20.1845 18.766L21.0356 20.0426L23.5888 18.3405H25.7164L26.5675 17.4894L25.7164 16.2128H22.3122L20.1845 18.766ZM12.5249 10.6809L12.9505 11.9575H13.8015L15.9292 9.40429L16.3547 6.8511L15.5037 6.00003L14.2271 6.8511V8.97876L12.5249 10.6809ZM19.3334 21.3192L11.2483 13.2341L9.54621 16.2128L16.3547 23.0213L19.3334 21.3192ZM15.0781 23.4468L9.12068 17.4894L8.26962 19.6171L12.9505 24.2979L15.0781 23.4468ZM7.41855 26L11.2483 24.7234L7.84409 21.3192L6.14196 24.7234C5.955 25.3574 5.95037 25.6292 6.14196 26C6.40628 26.1861 6.75996 26.1272 7.41855 26ZM9.97175 7.70216C9.97175 8.4072 9.40019 8.97876 8.69515 8.97876C7.9901 8.97876 7.41855 8.4072 7.41855 7.70216C7.41855 6.99712 7.9901 6.42556 8.69515 6.42556C9.40019 6.42556 9.97175 6.99712 9.97175 7.70216ZM24.8654 25.149C25.5704 25.149 26.142 24.5774 26.142 23.8724C26.142 23.1673 25.5704 22.5958 24.8654 22.5958C24.1603 22.5958 23.5888 23.1673 23.5888 23.8724C23.5888 24.5774 24.1603 25.149 24.8654 25.149ZM26.993 12.8085C26.993 13.5136 26.4215 14.0851 25.7164 14.0851C25.0114 14.0851 24.4398 13.5136 24.4398 12.8085C24.4398 12.1035 25.0114 11.5319 25.7164 11.5319C26.4215 11.5319 26.993 12.1035 26.993 12.8085Z" fill="white"/>
</svg>
