<svg width="35" height="36" viewBox="0 0 35 36" fill="none" xmlns="http://www.w3.org/2000/svg">
<path fill-rule="evenodd" clip-rule="evenodd" d="M29.0458 27.2174C31.5112 24.3342 33 20.591 33 16.5C33 7.3873 25.6127 0 16.5 0C7.3873 0 0 7.3873 0 16.5C0 25.6127 7.3873 33 16.5 33C20.0791 33 23.3921 31.8604 26.0958 29.9243L31.4852 35.3137L34.3137 32.4853L29.0458 27.2174Z" fill="#1A535C"/>
<path d="M22.3731 25H9.74627C8.48763 24.8479 8.0906 24.4509 8 23.1194V14.791C8.03879 13.954 8.26233 13.6124 8.9403 13.1791C8.039 11.5679 7.95506 10.793 8.26866 9.55224C9.09217 8.02929 9.7749 7.39131 11.7612 7C13.9436 7.0713 14.6537 7.66733 15.6567 9.01493C16.6797 7.62889 17.4435 7.10746 19.4179 7C21.6012 7.32588 22.317 8.09339 23.0448 10.0896C23.1655 11.452 23.1574 12.1682 22.5075 13.1791C23.0917 13.3334 23.2996 13.46 23.5821 13.7164C23.9604 14.1584 24.042 14.3889 24.1194 14.791V17.3433L28.1493 15.4627V22.3134L24.1194 20.4328V23.1194C24.0268 23.6086 23.9307 23.8763 23.5821 24.3284C23.2687 24.8762 22.9637 24.9511 22.3731 25Z" fill="white"/>
<circle cx="12.0299" cy="11.0299" r="2.14925" fill="#1A535C"/>
<circle cx="19.015" cy="11.0299" r="2.14925" fill="#1A535C"/>
</svg>
