<svg width="35" height="36" viewBox="0 0 35 36" fill="none" xmlns="http://www.w3.org/2000/svg">
<circle cx="16.5" cy="16.5" r="16.5" fill="#FFD100"/>
<path d="M5.5 24L5 23.5V22.5L8.5 20.5L11 21.5H13.5L16 20.5L17 21L18 21.5H20H21L22.5 21L23.5 20.5L24.5 21L25.5 21.5L26.5 22L27.5 22.5V23.5L26.5 24H25.5L24.5 23.5L23.5 23L23 23.5L22 24H19H18L17 23.5L16 23L15 23.5L14 24H10.5L9.5 23.5L8.5 23L6.5 24H5.5Z" fill="white" stroke="#FFD500" stroke-width="0.1"/>
<path d="M5.5 18.5L5 18V17L8.5 15L11 16H13.5L16 15L17 15.5L18 16H20H21L22.5 15.5L23.5 15L24.5 15.5L25.5 16L26.5 16.5L27.5 17V18L26.5 18.5H25.5L24.5 18L23.5 17.5L23 18L22 18.5H19H18L17 18L16 17.5L15 18L14 18.5H10.5L9.5 18L8.5 17.5L6.5 18.5H5.5Z" fill="white" stroke="#FFD500" stroke-width="0.1"/>
<path d="M5.5 12.5L5 12V11L8.5 9L11 10H13.5L16 9L17 9.5L18 10H20H21L22.5 9.5L23.5 9L24.5 9.5L25.5 10L26.5 10.5L27.5 11V12L26.5 12.5H25.5L24.5 12L23.5 11.5L23 12L22 12.5H19H18L17 12L16 11.5L15 12L14 12.5H10.5L9.5 12L8.5 11.5L6.5 12.5H5.5Z" fill="white" stroke="#FFD500" stroke-width="0.1"/>
<rect x="25.8284" y="24" width="12" height="4" transform="rotate(45 25.8284 24)" fill="#FFD100"/>
</svg>
