<svg width="35" height="36" viewBox="0 0 35 36" fill="none" xmlns="http://www.w3.org/2000/svg">
<path fill-rule="evenodd" clip-rule="evenodd" d="M29.0458 27.2174C31.5112 24.3342 33 20.591 33 16.5C33 7.3873 25.6127 0 16.5 0C7.3873 0 0 7.3873 0 16.5C0 25.6127 7.3873 33 16.5 33C20.0791 33 23.3921 31.8604 26.0958 29.9243L31.4852 35.3137L34.3137 32.4853L29.0458 27.2174Z" fill="#1A535C"/>
<path fill-rule="evenodd" clip-rule="evenodd" d="M16.0139 8.61538C17.2884 8.61538 18.3216 7.58219 18.3216 6.30769C18.3216 5.03319 17.2884 4 16.0139 4C14.7394 4 13.7062 5.03319 13.7062 6.30769C13.7062 7.58219 14.7394 8.61538 16.0139 8.61538ZM8 17.7413C8.26688 15.5524 8.44622 14.3264 10.3706 12.2028C11.7544 10.7736 12.6886 10.2551 14.6294 9.8112H17.3147C17.3441 9.80276 17.3731 9.79441 17.4019 9.78615C18.6305 9.43358 19.3457 9.22832 20.6713 7.52449C21.4986 6.42991 21.7307 5.68731 21.7203 4.12589H24.028C23.8374 6.3204 23.5291 7.39939 22.5385 8.99302C21.6871 10.0492 21.0341 10.5415 19.4755 11.1958V16.6084L21.7203 21.056H19.4755V28H17.3147V21.056H14.6294L12.8252 23.1748L15.6364 26.0909L14.1049 27.6224L10.958 24.7063C10.626 24.2039 10.5752 23.8628 10.6643 23.1748C10.7654 22.3726 11.0328 21.9479 11.7972 21.2238H10.2448L12.5734 16.6084V13.2098C11.9838 13.6331 11.665 13.9549 11.1469 14.8881C10.5752 16.0356 10.4449 16.6501 10.2448 17.7413H8Z" fill="white"/>
</svg>
