<svg width="35" height="36" viewBox="0 0 35 36" fill="none" xmlns="http://www.w3.org/2000/svg">
<circle cx="16.5" cy="16.5" r="16.5" fill="#FF6B6B"/>
<rect x="25.8284" y="24" width="12" height="4" transform="rotate(45 25.8284 24)" fill="#FF6B6B"/>
<path d="M23.2546 26.9994C24.6603 27.017 24.9574 26.6617 25 25.659V7.78718L24.5636 6C22.7193 6.473 21.8994 7.01141 20.6364 8.23398C19.1161 9.88614 18.6951 10.8729 18.4547 12.7019V18.9571C18.5803 19.3745 18.7515 19.5748 19.3274 19.8507L21.5092 20.2974V25.659C21.6233 26.808 22.0914 27.0063 23.2546 26.9994Z" fill="white"/>
<path d="M13.2184 25.659V16.7231C14.6519 16.4716 15.3432 16.207 15.8365 14.9359C15.9258 14.3093 16.0064 14.0419 15.8365 12.7019L13.6548 6H13.2184V12.7019H12.3457L11.473 6L10.6003 12.7019H9.72756L9.29121 6H8.85485L7.10943 12.7019C6.97575 13.5742 6.95179 14.0636 7.10943 14.9359C7.68696 16.2579 8.43777 16.4003 9.72756 16.7231V25.659C9.81832 26.4962 10.1835 26.8769 11.473 26.9994C12.4174 26.9541 12.9296 26.9001 13.2184 25.659Z" fill="white"/>
</svg>
