<svg width="35" height="36" viewBox="0 0 35 36" fill="none" xmlns="http://www.w3.org/2000/svg">
<path fill-rule="evenodd" clip-rule="evenodd" d="M29.0458 27.2174C31.5112 24.3342 33 20.591 33 16.5C33 7.3873 25.6127 0 16.5 0C7.3873 0 0 7.3873 0 16.5C0 25.6127 7.3873 33 16.5 33C20.0791 33 23.3921 31.8604 26.0958 29.9243L31.4852 35.3137L34.3137 32.4853L29.0458 27.2174Z" fill="#1A535C"/>
<path fill-rule="evenodd" clip-rule="evenodd" d="M17.1307 9.00239L17.076 9L17.0213 9.00359C14.4376 9.17343 12.259 9.7749 10.3449 10.9255C8.4345 12.0739 6.8531 13.7299 5.40306 15.9095L5 16.5153L5.45247 17.0852C7.35992 19.4876 8.99944 21.2308 10.885 22.3932C12.7992 23.5734 14.8871 24.108 17.6112 24.2525L17.6647 24.2554L17.7182 24.2525C20.1289 24.122 22.0058 23.5905 23.7515 22.3978C25.4589 21.2313 26.9717 19.4768 28.7452 17.0541L29.1755 16.4662L28.7478 15.8764C26.9985 13.4638 25.4536 11.7721 23.6292 10.674C21.7837 9.56327 19.7494 9.11701 17.1307 9.00239ZM11.3753 12.6397C12.9466 11.6951 14.7835 11.1614 17.0981 11.0029C19.5027 11.1132 21.1545 11.5189 22.5978 12.3875C23.9455 13.1986 25.1922 14.461 26.6947 16.462C25.1511 18.5188 23.9136 19.8648 22.6232 20.7464C21.2634 21.6755 19.7792 22.1317 17.6634 22.2524C15.1918 22.1158 13.4713 21.6383 11.9346 20.6908C10.4899 19.8001 9.14105 18.4548 7.48149 16.4172C8.69146 14.7219 9.95078 13.496 11.3753 12.6397ZM17.2025 21.5015C20.0077 21.5015 22.2818 19.344 22.2818 16.6825C22.2818 14.021 20.0077 11.8634 17.2025 11.8634C14.3972 11.8634 12.1231 14.021 12.1231 16.6825C12.1231 19.344 14.3972 21.5015 17.2025 21.5015Z" fill="white"/>
</svg>
