<svg width="35" height="36" viewBox="0 0 35 36" fill="none" xmlns="http://www.w3.org/2000/svg">
<path fill-rule="evenodd" clip-rule="evenodd" d="M29.0458 27.2174C31.5112 24.3342 33 20.591 33 16.5C33 7.3873 25.6127 0 16.5 0C7.3873 0 0 7.3873 0 16.5C0 25.6127 7.3873 33 16.5 33C20.0791 33 23.3921 31.8604 26.0958 29.9243L31.4852 35.3137L34.3137 32.4853L29.0458 27.2174Z" fill="#FF6B6B"/>
<path d="M18.8878 10.0142C15.1098 8.62894 12.9435 8.36257 9.03661 8.34281C8.93218 7.45229 9.03881 6.98229 9.51715 6.19386C10.2271 5.28092 10.7688 5.12195 11.7997 5C15.0509 5.38576 16.8918 5.66001 20.4495 7.02956C22.8936 8.25697 24.2649 8.95595 26.8168 11.3275C27.2445 11.8741 27.3641 12.1887 27.4174 12.7601C27.465 13.1331 27.4671 13.3422 27.4174 13.7152L26.096 15.1478C23.8059 12.8751 22.3339 11.6974 18.8878 10.0142Z" fill="white"/>
<path d="M17.5663 10.9693C14.4333 9.92971 12.5768 9.60629 9.03661 9.65606V24.3406C9.11524 25.0801 9.24976 25.4027 9.87756 25.7732C10.5408 26.0733 10.9527 26.0779 11.7997 25.7732L14.4427 23.9824V24.6987C14.803 25.3035 15.1224 25.3981 15.7642 25.415C16.3968 25.3786 16.6977 25.2175 16.9656 24.2212V21.2365C17.0364 20.8824 17.2071 20.8177 17.5663 20.759C18.0592 20.7623 18.1617 20.9147 18.2871 21.2365V22.5498C18.3277 23.1414 18.5683 23.3518 19.6086 23.3855C20.5075 23.2083 20.8824 22.9959 20.9301 22.0722V19.0876L25.0147 15.9835C22.8928 13.6134 21.3133 12.49 17.5663 10.9693Z" fill="white"/>
<ellipse cx="13.7245" cy="13.5582" rx="1.26646" ry="1.25856" fill="#FF6B6B"/>
<ellipse cx="18.0306" cy="16.5787" rx="1.26646" ry="1.25856" fill="#FF6B6B"/>
<ellipse cx="13.7245" cy="20.1026" rx="1.26646" ry="1.25856" fill="#FF6B6B"/>
</svg>
