<svg width="35" height="36" viewBox="0 0 35 36" fill="none" xmlns="http://www.w3.org/2000/svg">
<circle cx="16.5" cy="16.5" r="16.5" fill="#FF6B6B"/>
<rect x="25.8284" y="24" width="12" height="4" transform="rotate(45 25.8284 24)" fill="#FF6B6B"/>
<path d="M18 24.5022V8.00219C17.9646 7.30534 17.7009 7.12633 17 7.00219C16.6814 6.97807 16.441 7.15371 16 7.50219L10.5 12.5022H6L5 14.0022V18.5022L6.5 20.0022H10.5L16 25.0022C16.425 25.3471 16.6407 25.4669 17 25.5022C17.7555 25.5531 17.9475 25.3012 18 24.5022Z" fill="white"/>
<path d="M21.5 16.0022C21.2499 15.233 21.0531 14.7939 20.5 14.0022C20.4476 13.5263 20.5817 13.3154 21 13.0022C21.4304 12.829 21.6584 12.7783 22 13.0022C23.0138 13.8634 23.1681 14.2686 23.5 15.0022C23.6075 15.9251 23.629 16.4618 23.5 17.5022C23.0138 18.5563 22.6573 18.9185 22 19.5022C21.5129 19.6842 21.284 19.7 21 19.5022C20.5458 19.1958 20.458 18.9698 20.5 18.5022L21.5 17.0022C21.5904 16.6945 21.5998 16.4842 21.5 16.0022Z" fill="white"/>
<path d="M25 13.5022L23 11.5022C22.7915 11.1892 22.7771 10.9738 23 10.5022C23.4625 10.0248 23.6626 9.98603 24 10.0022C25.4132 10.7219 26.0119 11.4873 27 13.0022C27.3004 13.6516 27.4254 13.9913 27.5 14.5022C27.7026 16.3368 27.6439 16.9653 27.5 18.0022C27.3381 19.2675 27.2194 19.573 27 20.0022C25.9911 21.3367 25.4452 21.9002 24.5 22.5022C23.8054 22.8113 23.4539 22.8657 23 22.5022C22.6076 21.9164 22.6425 21.5879 23 21.0022L23.0381 20.9709C23.8534 20.3009 24.3219 19.9159 25 19.0022C25.137 18.7971 25.224 18.625 25.5 17.5022C25.6249 16.6342 25.6534 16.1136 25.5 15.0022C25.4738 14.6217 25.415 14.353 25 13.5022Z" fill="white"/>
</svg>
