<svg width="35" height="36" viewBox="0 0 35 36" fill="none" xmlns="http://www.w3.org/2000/svg">
<path fill-rule="evenodd" clip-rule="evenodd" d="M29.0458 27.2174C31.5112 24.3342 33 20.591 33 16.5C33 7.3873 25.6127 0 16.5 0C7.3873 0 0 7.3873 0 16.5C0 25.6127 7.3873 33 16.5 33C20.0791 33 23.3921 31.8604 26.0958 29.9243L31.4852 35.3137L34.3137 32.4853L29.0458 27.2174Z" fill="#FF6B6B"/>
<path fill-rule="evenodd" clip-rule="evenodd" d="M24.7288 7.95057C24.5706 6.59295 24.1658 5.96155 23.0428 5C22.1562 5.38709 21.7609 5.72271 21.3568 6.68604C21.1048 7.83827 21.1227 8.48442 21.3568 9.63661C22.0156 11.1982 22.7624 11.8346 24.7288 12.5872C25.5832 12.8151 26.1234 12.8337 27.2579 12.5872C27.3082 12.5596 27.3571 12.533 27.4048 12.507C28.1005 12.1284 28.5329 11.8931 28.9439 10.9011C28.1955 10.1105 27.6582 9.81144 26.4149 9.63661C25.5999 9.63633 25.1361 9.75052 24.3073 10.0581C24.3325 9.99459 24.3566 9.9359 24.3798 9.87962L24.3799 9.8794L24.3799 9.87931L24.3799 9.8793C24.5556 9.45267 24.6745 9.16393 24.7288 7.95057ZM13.5872 12.1657C13.5872 13.3297 12.6437 14.2732 11.4797 14.2732C10.3157 14.2732 9.37213 13.3297 9.37213 12.1657C9.37213 11.0017 10.3157 10.0581 11.4797 10.0581C12.6437 10.0581 13.5872 11.0017 13.5872 12.1657ZM9.7935 20.1744C10.9575 20.1744 11.9011 19.2308 11.9011 18.0669C11.9011 16.9029 10.9575 15.9593 9.7935 15.9593C8.62953 15.9593 7.68595 16.9029 7.68595 18.0669C7.68595 19.2308 8.62953 20.1744 9.7935 20.1744ZM16.1162 23.1249C16.1162 24.2889 15.1726 25.2325 14.0086 25.2325C12.8446 25.2325 11.9011 24.2889 11.9011 23.1249C11.9011 21.961 12.8446 21.0174 14.0086 21.0174C15.1726 21.0174 16.1162 21.961 16.1162 23.1249ZM8.10755 26.0755C9.27152 26.0755 10.2151 25.1319 10.2151 23.968C10.2151 22.804 9.27152 21.8604 8.10755 21.8604C6.94358 21.8604 6 22.804 6 23.968C6 25.1319 6.94358 26.0755 8.10755 26.0755ZM22.0174 22.282C22.0174 23.4459 21.0739 24.3895 19.9099 24.3895C18.7459 24.3895 17.8023 23.4459 17.8023 22.282C17.8023 21.118 18.7459 20.1744 19.9099 20.1744C21.0739 20.1744 22.0174 21.118 22.0174 22.282ZM15.6948 19.3314C16.8588 19.3314 17.8023 18.3878 17.8023 17.2238C17.8023 16.0599 16.8588 15.1163 15.6948 15.1163C14.5308 15.1163 13.5872 16.0599 13.5872 17.2238C13.5872 18.3878 14.5308 19.3314 15.6948 19.3314ZM19.4883 11.3227C19.4883 12.4866 18.5447 13.4302 17.3807 13.4302C16.2168 13.4302 15.2732 12.4866 15.2732 11.3227C15.2732 10.1587 16.2168 9.2151 17.3807 9.2151C18.5447 9.2151 19.4883 10.1587 19.4883 11.3227ZM21.5958 18.4883C22.7598 18.4883 23.7034 17.5448 23.7034 16.3808C23.7034 15.2168 22.7598 14.2732 21.5958 14.2732C20.4319 14.2732 19.4883 15.2168 19.4883 16.3808C19.4883 17.5448 20.4319 18.4883 21.5958 18.4883Z" fill="white"/>
</svg>
