<svg width="35" height="36" viewBox="0 0 35 36" fill="none" xmlns="http://www.w3.org/2000/svg">
<path fill-rule="evenodd" clip-rule="evenodd" d="M29.0458 27.2174C31.5112 24.3342 33 20.591 33 16.5C33 7.3873 25.6127 0 16.5 0C7.3873 0 0 7.3873 0 16.5C0 25.6127 7.3873 33 16.5 33C20.0791 33 23.3921 31.8604 26.0958 29.9243L31.4852 35.3137L34.3137 32.4853L29.0458 27.2174Z" fill="#1A535C"/>
<path d="M19.5944 18.235H24.1259C25.4261 18.0663 25.9541 17.7083 26.5976 16.6591C27.4215 15.0832 26.8977 13.2548 25.7737 11.9315C24.5444 10.4843 23.913 9.6871 21.6542 7.99179C18.6826 6.16934 17.2775 5.91104 15.0629 6.02195C12.07 6.49935 10.7285 7.37153 8.47171 9.1737C6.35326 11.4056 6.06267 12.7161 6 15.0832C6.00665 18.4925 6.03044 20.3867 8.05976 22.1746C10.4884 23.9289 12.0828 24.6321 15.0629 25.7203C16.4257 26.1992 17.1573 26.1401 18.3586 24.9324C19.0148 24.2113 19.0695 23.6805 18.7705 22.5686L17.5346 20.2048C17.2872 18.7638 17.623 18.2596 19.5944 18.235Z" fill="white"/>
<ellipse cx="16.2988" cy="9.96163" rx="1.23586" ry="1.1819" fill="#1A535C"/>
<ellipse cx="21.2422" cy="12.3254" rx="1.23586" ry="1.1819" fill="#1A535C"/>
<ellipse cx="10.5315" cy="17.0531" rx="1.23586" ry="1.1819" fill="#1A535C"/>
<ellipse cx="11.3555" cy="12.3254" rx="1.23586" ry="1.1819" fill="#1A535C"/>
</svg>
