<svg width="35" height="36" viewBox="0 0 35 36" fill="none" xmlns="http://www.w3.org/2000/svg">
<path fill-rule="evenodd" clip-rule="evenodd" d="M29.0458 27.2174C31.5112 24.3342 33 20.591 33 16.5C33 7.3873 25.6127 0 16.5 0C7.3873 0 0 7.3873 0 16.5C0 25.6127 7.3873 33 16.5 33C20.0791 33 23.3921 31.8604 26.0958 29.9243L31.4852 35.3137L34.3137 32.4853L29.0458 27.2174Z" fill="#1A535C"/>
<path d="M12.5574 23.7778V14.8889L22.7781 11.7778V18C21.8286 17.5362 21.2293 17.4859 20.1118 17.5556C17.6595 18.1413 17.8335 19.0328 17.4426 20.6667C17.7208 22.9994 18.5147 23.3509 21.445 23.3333C23.0221 23.1487 23.8786 22.9446 25 21.1111V6L9.89112 10.4444V20.2222C8.83639 19.7402 8.25141 19.5971 7.22485 19.7778C5.19739 20.4706 4.96923 21.2677 5.00295 22.8889C5.33999 25.1483 6.54161 25.5512 9.00236 26C11.0927 25.6928 12.102 25.3905 12.5574 23.7778Z" fill="white"/>
</svg>
