<svg width="35" height="36" viewBox="0 0 35 36" fill="none" xmlns="http://www.w3.org/2000/svg">
<path fill-rule="evenodd" clip-rule="evenodd" d="M29.0458 27.2174C31.5112 24.3342 33 20.591 33 16.5C33 7.3873 25.6127 0 16.5 0C7.3873 0 0 7.3873 0 16.5C0 25.6127 7.3873 33 16.5 33C20.0791 33 23.3921 31.8604 26.0958 29.9243L31.4852 35.3137L34.3137 32.4853L29.0458 27.2174Z" fill="#1A535C"/>
<path d="M9 22.5867C9.06855 24.3305 9.63133 24.9184 11.8712 25.0478H24.1766C24.7625 24.9944 24.9352 24.8051 24.9969 24.2275C25.0277 23.5278 24.8333 23.2656 24.1766 22.9969V20.1257L24.9969 19.3053V9.05089C25.0128 7.25578 24.3948 7.01243 22.946 7H11.8712C10.0285 7.14085 9.12924 7.64333 9 10.2814V22.5867Z" fill="white"/>
<path d="M11.8711 22.997H22.5358V20.5359H11.8711C11.112 21.4567 11.0252 21.991 11.8711 22.997Z" fill="#1A535C"/>
<path d="M13.922 13.9731C13.626 14.2561 13.5122 14.4214 13.922 14.7934H21.3052C21.6062 14.4928 21.658 14.3166 21.3052 13.9731H13.922Z" fill="#1A535C"/>
<path d="M21.3053 12.7425H13.922C13.6368 12.4438 13.6297 12.2636 13.922 11.9222H21.3052C21.5883 12.2538 21.5945 12.4336 21.3053 12.7425Z" fill="#1A535C"/>
</svg>
