<svg width="35" height="36" viewBox="0 0 35 36" fill="none" xmlns="http://www.w3.org/2000/svg">
<path fill-rule="evenodd" clip-rule="evenodd" d="M29.0458 27.2174C31.5112 24.3342 33 20.591 33 16.5C33 7.3873 25.6127 0 16.5 0C7.3873 0 0 7.3873 0 16.5C0 25.6127 7.3873 33 16.5 33C20.0791 33 23.3921 31.8604 26.0958 29.9243L31.4852 35.3137L34.3137 32.4853L29.0458 27.2174Z" fill="#1A535C"/>
<path d="M4.64391 13L7.14391 14L6.14391 16C5.83711 16.3222 5.70101 16.5242 5.64391 17C5.68821 17.4665 5.78867 17.687 6.14391 18L5.14391 23.5C5.10337 24.1936 5.27869 24.3278 5.64391 24.5H8.14391C8.56115 24.2759 8.69506 24.0605 8.64391 23.5L7.64391 18C7.98863 17.7328 8.09564 17.5118 8.14391 17C8.10881 16.6439 8.0104 16.4277 7.64391 16L8.64391 14.5L16.6439 17L29.1439 13C29.7373 12.4672 29.7461 12.1401 29.1439 11.5L16.6439 7L4.64391 11.5C3.64977 12.1409 3.93253 12.4537 4.64391 13Z" fill="white"/>
<path d="M16.6439 18.5C13.8263 18.2876 12.3588 17.9312 10.1439 16.5L9.14391 22C11.5809 23.9012 13.2966 24.3141 16.6439 24.5H17.1439C20.2435 24.2982 21.8133 23.8195 24.1439 22L23.6439 16.5C21.3911 17.9307 19.8384 18.3382 16.6439 18.5Z" fill="white"/>
</svg>
